<?xml version="1.0" standalone="no"?>
<!DOCTYPE svg PUBLIC "-//W3C//DTD SVG 1.1//EN" "http://www.w3.org/Graphics/SVG/1.1/DTD/svg11.dtd" >
<svg xmlns="http://www.w3.org/2000/svg" xmlns:xlink="http://www.w3.org/1999/xlink" version="1.1">
<metadata></metadata>
<defs>
<font id="gogoiaregular" horiz-adv-x="378" >
<font-face units-per-em="1000" ascent="750" descent="-250" />
<missing-glyph horiz-adv-x="248" />
<glyph unicode=" "  horiz-adv-x="248" />
<glyph unicode="&#x09;" horiz-adv-x="248" />
<glyph unicode="&#xa0;" horiz-adv-x="248" />
<glyph unicode="A" horiz-adv-x="368" d="M109 22c0 -12 -10 -22 -22 -22s-22 10 -22 22v562c0 70 56 126 119 126s119 -56 119 -126v-562c0 -12 -10 -22 -22 -22s-22 10 -22 22v306h-150v-306zM259 372v212c0 47 -33 82 -75 82s-75 -35 -75 -82v-212h150z" />
<glyph unicode="&#xc1;" horiz-adv-x="368" d="M213 849c5 3 9 5 13 5c18 0 32 -23 14 -38l-63 -51c-4 -3 -8 -5 -13 -5c-16 0 -29 21 -13 35zM109 22c0 -12 -10 -22 -22 -22s-22 10 -22 22v562c0 70 56 126 119 126s119 -56 119 -126v-562c0 -12 -10 -22 -22 -22s-22 10 -22 22v306h-150v-306zM259 372v212 c0 47 -33 82 -75 82s-75 -35 -75 -82v-212h150z" />
<glyph unicode="&#x102;" horiz-adv-x="368" d="M240 854c10 0 19 -9 19 -19c0 -45 -30 -75 -75 -75s-75 30 -75 75c0 10 9 19 19 19s19 -9 19 -19c0 -21 16 -35 37 -35s37 14 37 35c0 10 9 19 19 19zM109 22c0 -12 -10 -22 -22 -22s-22 10 -22 22v562c0 70 56 126 119 126s119 -56 119 -126v-562c0 -12 -10 -22 -22 -22 s-22 10 -22 22v306h-150v-306zM259 372v212c0 47 -33 82 -75 82s-75 -35 -75 -82v-212h150z" />
<glyph unicode="&#xc2;" horiz-adv-x="368" d="M263 769c-8 -9 -21 -11 -30 -3l-49 44l-50 -44c-9 -8 -22 -6 -30 3c-7 9 -6 22 3 30l63 51c7 6 19 6 27 0l63 -51c9 -8 10 -21 3 -30zM109 22c0 -12 -10 -22 -22 -22s-22 10 -22 22v562c0 70 56 126 119 126s119 -56 119 -126v-562c0 -12 -10 -22 -22 -22s-22 10 -22 22 v306h-150v-306zM259 372v212c0 47 -33 82 -75 82s-75 -35 -75 -82v-212h150z" />
<glyph unicode="&#xc4;" horiz-adv-x="368" d="M134 772c-19 0 -34 15 -34 34s15 34 34 34s34 -15 34 -34s-15 -34 -34 -34zM234 772c-19 0 -34 15 -34 34s15 34 34 34s34 -15 34 -34s-15 -34 -34 -34zM109 22c0 -12 -10 -22 -22 -22s-22 10 -22 22v562c0 70 56 126 119 126s119 -56 119 -126v-562 c0 -12 -10 -22 -22 -22s-22 10 -22 22v306h-150v-306zM259 372v212c0 47 -33 82 -75 82s-75 -35 -75 -82v-212h150z" />
<glyph unicode="&#xc0;" horiz-adv-x="368" d="M157 849l62 -54c16 -14 3 -35 -13 -35c-5 0 -9 2 -13 5l-63 51c-18 15 -4 38 14 38c4 0 8 -2 13 -5zM109 22c0 -12 -10 -22 -22 -22s-22 10 -22 22v562c0 70 56 126 119 126s119 -56 119 -126v-562c0 -12 -10 -22 -22 -22s-22 10 -22 22v306h-150v-306zM259 372v212 c0 47 -33 82 -75 82s-75 -35 -75 -82v-212h150z" />
<glyph unicode="&#x100;" horiz-adv-x="368" d="M256 828c11 0 20 -9 20 -20s-9 -20 -20 -20h-144c-11 0 -20 9 -20 20s9 20 20 20h144zM109 22c0 -12 -10 -22 -22 -22s-22 10 -22 22v562c0 70 56 126 119 126s119 -56 119 -126v-562c0 -12 -10 -22 -22 -22s-22 10 -22 22v306h-150v-306zM259 372v212 c0 47 -33 82 -75 82s-75 -35 -75 -82v-212h150z" />
<glyph unicode="&#x104;" horiz-adv-x="368" d="M315 -133c11 0 20 -9 20 -20c0 -21 -32 -43 -63 -43c-45 0 -75 31 -75 77c0 40 25 84 62 139v2v306h-150v-306c0 -12 -10 -22 -22 -22s-22 10 -22 22v562c0 70 56 126 119 126s119 -56 119 -126v-562c0 -6 -2 -11 -6 -15c-36 -49 -60 -87 -60 -126c0 -22 14 -37 35 -37 c13 0 20 6 27 15c4 5 9 8 16 8zM259 372v212c0 47 -33 82 -75 82s-75 -35 -75 -82v-212h150z" />
<glyph unicode="&#xc5;" horiz-adv-x="368" d="M184 749c-34 0 -59 25 -59 59c0 33 25 58 59 58c33 0 58 -25 58 -58c0 -34 -25 -59 -58 -59zM184 780c15 0 27 12 27 28c0 15 -12 27 -27 27c-16 0 -28 -12 -28 -27c0 -16 12 -28 28 -28zM109 22c0 -12 -10 -22 -22 -22s-22 10 -22 22v562c0 70 56 126 119 126 s119 -56 119 -126v-562c0 -12 -10 -22 -22 -22s-22 10 -22 22v306h-150v-306zM259 372v212c0 47 -33 82 -75 82s-75 -35 -75 -82v-212h150z" />
<glyph unicode="&#xc3;" horiz-adv-x="368" d="M255 850c11 0 20 -9 20 -20c0 -39 -24 -66 -58 -66c-41 0 -47 45 -69 45c-9 0 -15 -10 -15 -25c0 -11 -9 -20 -20 -20s-20 9 -20 20c0 39 24 66 58 66c43 0 49 -45 70 -45c8 0 14 10 14 25c0 11 9 20 20 20zM109 22c0 -12 -10 -22 -22 -22s-22 10 -22 22v562 c0 70 56 126 119 126s119 -56 119 -126v-562c0 -12 -10 -22 -22 -22s-22 10 -22 22v306h-150v-306zM259 372v212c0 47 -33 82 -75 82s-75 -35 -75 -82v-212h150z" />
<glyph unicode="&#xc6;" horiz-adv-x="488" d="M303 166v-87c0 -19 17 -35 36 -35h72c12 0 22 -10 22 -22s-10 -22 -22 -22h-72c-44 0 -80 35 -80 79v249h-150v-306c0 -12 -10 -22 -22 -22s-22 10 -22 22v562c0 70 56 126 119 126c44 0 79 -28 100 -68c22 37 56 58 94 58h33c12 0 22 -10 22 -22s-10 -22 -22 -22h-33 c-42 0 -75 -35 -75 -82v-364h108c12 0 22 -10 22 -22s-10 -22 -22 -22h-108zM109 372h150v212c0 47 -33 82 -75 82s-75 -35 -75 -82v-212z" />
<glyph unicode="B" horiz-adv-x="403" d="M223 495c94 -34 155 -127 155 -242c0 -142 -91 -253 -203 -253h-89c-11 0 -21 10 -21 22v655c0 12 10 23 22 23h72c61 0 112 -53 112 -117c0 -37 -14 -68 -48 -88zM109 509h50c38 0 68 34 68 74s-31 73 -68 73h-50v-147zM175 44c89 0 159 91 159 209s-71 212 -159 212 h-66v-421h66z" />
<glyph unicode="C" horiz-adv-x="363" d="M291 133c12 0 22 -10 22 -22c0 -67 -55 -121 -124 -121c-68 0 -124 54 -124 121v478c0 67 56 121 124 121c69 0 124 -54 124 -121c0 -12 -10 -22 -22 -22s-22 10 -22 22c0 43 -35 77 -80 77c-44 0 -80 -34 -80 -77v-478c0 -43 36 -77 80 -77c45 0 80 34 80 77 c0 12 10 22 22 22z" />
<glyph unicode="&#x106;" horiz-adv-x="363" d="M218 849c5 3 9 5 13 5c18 0 32 -23 14 -38l-63 -51c-4 -3 -8 -5 -13 -5c-16 0 -29 21 -13 35zM291 133c12 0 22 -10 22 -22c0 -67 -55 -121 -124 -121c-68 0 -124 54 -124 121v478c0 67 56 121 124 121c69 0 124 -54 124 -121c0 -12 -10 -22 -22 -22s-22 10 -22 22 c0 43 -35 77 -80 77c-44 0 -80 -34 -80 -77v-478c0 -43 36 -77 80 -77c45 0 80 34 80 77c0 12 10 22 22 22z" />
<glyph unicode="&#x10c;" horiz-adv-x="363" d="M268 846c7 -9 6 -22 -3 -30l-63 -51c-8 -6 -20 -6 -27 0l-63 51c-9 8 -10 21 -3 30c8 9 21 11 30 3l50 -44l49 44c9 8 22 6 30 -3zM291 133c12 0 22 -10 22 -22c0 -67 -55 -121 -124 -121c-68 0 -124 54 -124 121v478c0 67 56 121 124 121c69 0 124 -54 124 -121 c0 -12 -10 -22 -22 -22s-22 10 -22 22c0 43 -35 77 -80 77c-44 0 -80 -34 -80 -77v-478c0 -43 36 -77 80 -77c45 0 80 34 80 77c0 12 10 22 22 22z" />
<glyph unicode="&#xc7;" horiz-adv-x="363" d="M291 133c12 0 22 -10 22 -22c0 -62 -46 -112 -107 -120l-16 -43c34 1 62 -25 62 -67c0 -46 -30 -77 -75 -77c-31 0 -63 22 -63 43c0 11 9 20 20 20c7 0 12 -3 16 -8c7 -9 14 -15 27 -15c21 0 35 15 35 37c0 46 -35 31 -48 31s-20 12 -14 28l19 52c-59 9 -104 59 -104 119 v478c0 67 56 121 124 121c69 0 124 -54 124 -121c0 -12 -10 -22 -22 -22s-22 10 -22 22c0 43 -35 77 -80 77c-44 0 -80 -34 -80 -77v-478c0 -43 36 -77 80 -77c45 0 80 34 80 77c0 12 10 22 22 22z" />
<glyph unicode="&#x10a;" horiz-adv-x="363" d="M189 768c-21 0 -38 17 -38 38s17 38 38 38s38 -17 38 -38s-17 -38 -38 -38zM291 133c12 0 22 -10 22 -22c0 -67 -55 -121 -124 -121c-68 0 -124 54 -124 121v478c0 67 56 121 124 121c69 0 124 -54 124 -121c0 -12 -10 -22 -22 -22s-22 10 -22 22c0 43 -35 77 -80 77 c-44 0 -80 -34 -80 -77v-478c0 -43 36 -77 80 -77c45 0 80 34 80 77c0 12 10 22 22 22z" />
<glyph unicode="D" d="M187 700c68 0 126 -54 126 -126v-448c0 -72 -58 -126 -126 -126h-100c-12 0 -22 10 -22 22v656c0 12 10 22 22 22h100zM269 126v448c0 45 -37 82 -82 82h-78v-612h78c45 0 82 37 82 82z" />
<glyph unicode="&#xd0;" horiz-adv-x="377" d="M186 700c68 0 126 -54 126 -126v-448c0 -72 -58 -126 -126 -126h-99c-12 0 -22 10 -22 22v310h-47c-10 0 -18 8 -18 18s8 18 18 18h47v310c0 12 10 22 22 22h99zM268 126v448c0 45 -37 82 -82 82h-77v-288h75c10 0 18 -8 18 -18s-8 -18 -18 -18h-75v-288h77 c45 0 82 37 82 82z" />
<glyph unicode="&#x10e;" d="M256 836c7 -9 6 -22 -3 -30l-63 -51c-8 -6 -20 -6 -27 0l-63 51c-9 8 -10 21 -3 30c8 9 21 11 30 3l50 -44l49 44c9 8 22 6 30 -3zM187 700c68 0 126 -54 126 -126v-448c0 -72 -58 -126 -126 -126h-100c-12 0 -22 10 -22 22v656c0 12 10 22 22 22h100zM269 126v448 c0 45 -37 82 -82 82h-78v-612h78c45 0 82 37 82 82z" />
<glyph unicode="&#x110;" horiz-adv-x="377" d="M186 700c68 0 126 -54 126 -126v-448c0 -72 -58 -126 -126 -126h-99c-12 0 -22 10 -22 22v310h-47c-10 0 -18 8 -18 18s8 18 18 18h47v310c0 12 10 22 22 22h99zM268 126v448c0 45 -37 82 -82 82h-77v-288h75c10 0 18 -8 18 -18s-8 -18 -18 -18h-75v-288h77 c45 0 82 37 82 82z" />
<glyph unicode="E" horiz-adv-x="294" d="M217 166h-108v-87c0 -19 17 -35 36 -35h72c12 0 22 -10 22 -22s-10 -22 -22 -22h-72c-44 0 -80 35 -80 79v542c0 44 36 79 80 79h72c12 0 22 -10 22 -22s-10 -22 -22 -22h-72c-19 0 -36 -16 -36 -35v-411h108c12 0 22 -10 22 -22s-10 -22 -22 -22z" />
<glyph unicode="&#xc9;" horiz-adv-x="294" d="M138 750c-16 0 -29 21 -13 35l62 54c5 3 9 5 13 5c18 0 32 -23 14 -38l-63 -51c-4 -3 -8 -5 -13 -5zM217 166h-108v-87c0 -19 17 -35 36 -35h72c12 0 22 -10 22 -22s-10 -22 -22 -22h-72c-44 0 -80 35 -80 79v542c0 44 36 79 80 79h72c12 0 22 -10 22 -22 s-10 -22 -22 -22h-72c-19 0 -36 -16 -36 -35v-411h108c12 0 22 -10 22 -22s-10 -22 -22 -22z" />
<glyph unicode="&#x11a;" horiz-adv-x="294" d="M81 806c-9 8 -10 21 -3 30c8 9 21 11 30 3l50 -44l49 44c9 8 22 6 30 -3c7 -9 6 -22 -3 -30l-63 -51c-8 -6 -20 -6 -27 0zM109 621v-411h108c12 0 22 -10 22 -22s-10 -22 -22 -22h-108v-87c0 -19 17 -35 36 -35h72c12 0 22 -10 22 -22s-10 -22 -22 -22h-72 c-44 0 -80 35 -80 79v542c0 44 36 79 80 79h72c12 0 22 -10 22 -22s-10 -22 -22 -22h-72c-19 0 -36 -16 -36 -35z" />
<glyph unicode="&#xca;" horiz-adv-x="294" d="M108 756c-9 -8 -22 -6 -30 3c-7 9 -6 22 3 30l63 51c7 6 19 6 27 0l63 -51c9 -8 10 -21 3 -30c-8 -9 -21 -11 -30 -3l-49 44zM109 621v-411h108c12 0 22 -10 22 -22s-10 -22 -22 -22h-108v-87c0 -19 17 -35 36 -35h72c12 0 22 -10 22 -22s-10 -22 -22 -22h-72 c-44 0 -80 35 -80 79v542c0 44 36 79 80 79h72c12 0 22 -10 22 -22s-10 -22 -22 -22h-72c-19 0 -36 -16 -36 -35z" />
<glyph unicode="&#xcb;" horiz-adv-x="294" d="M108 762c-19 0 -34 15 -34 34s15 34 34 34s34 -15 34 -34s-15 -34 -34 -34zM208 762c-19 0 -34 15 -34 34s15 34 34 34s34 -15 34 -34s-15 -34 -34 -34zM109 621v-411h108c12 0 22 -10 22 -22s-10 -22 -22 -22h-108v-87c0 -19 17 -35 36 -35h72c12 0 22 -10 22 -22 s-10 -22 -22 -22h-72c-44 0 -80 35 -80 79v542c0 44 36 79 80 79h72c12 0 22 -10 22 -22s-10 -22 -22 -22h-72c-19 0 -36 -16 -36 -35z" />
<glyph unicode="&#x116;" horiz-adv-x="294" d="M158 758c-21 0 -38 17 -38 38s17 38 38 38s38 -17 38 -38s-17 -38 -38 -38zM217 166h-108v-87c0 -19 17 -35 36 -35h72c12 0 22 -10 22 -22s-10 -22 -22 -22h-72c-44 0 -80 35 -80 79v542c0 44 36 79 80 79h72c12 0 22 -10 22 -22s-10 -22 -22 -22h-72 c-19 0 -36 -16 -36 -35v-411h108c12 0 22 -10 22 -22s-10 -22 -22 -22z" />
<glyph unicode="&#xc8;" horiz-adv-x="294" d="M104 806c-18 15 -4 38 14 38c4 0 8 -2 13 -5l62 -54c16 -14 3 -35 -13 -35c-5 0 -9 2 -13 5zM217 166h-108v-87c0 -19 17 -35 36 -35h72c12 0 22 -10 22 -22s-10 -22 -22 -22h-72c-44 0 -80 35 -80 79v542c0 44 36 79 80 79h72c12 0 22 -10 22 -22s-10 -22 -22 -22h-72 c-19 0 -36 -16 -36 -35v-411h108c12 0 22 -10 22 -22s-10 -22 -22 -22z" />
<glyph unicode="&#x112;" horiz-adv-x="294" d="M230 818c11 0 20 -9 20 -20s-9 -20 -20 -20h-144c-11 0 -20 9 -20 20s9 20 20 20h144zM109 621v-411h108c12 0 22 -10 22 -22s-10 -22 -22 -22h-108v-87c0 -19 17 -35 36 -35h72c12 0 22 -10 22 -22s-10 -22 -22 -22h-72c-44 0 -80 35 -80 79v542c0 44 36 79 80 79h72 c12 0 22 -10 22 -22s-10 -22 -22 -22h-72c-19 0 -36 -16 -36 -35z" />
<glyph unicode="&#x118;" horiz-adv-x="294" d="M231 -133c11 0 20 -9 20 -20c0 -21 -32 -43 -63 -43c-45 0 -75 31 -75 77c0 41 30 79 69 119h-37c-44 0 -80 35 -80 79v542c0 44 36 79 80 79h72c12 0 22 -10 22 -22s-10 -22 -22 -22h-72c-19 0 -36 -16 -36 -35v-239h108c12 0 22 -10 22 -22s-10 -22 -22 -22h-108v-259 c0 -19 17 -35 36 -35h72c12 0 22 -10 22 -22c0 -5 -2 -10 -5 -14c-42 -43 -81 -82 -81 -127c0 -22 14 -37 35 -37c13 0 20 6 27 15c4 5 9 8 16 8z" />
<glyph unicode="F" horiz-adv-x="340" d="M109 22c0 -12 -10 -22 -22 -22s-22 10 -22 22v599c0 44 36 79 80 79h138c12 0 22 -10 22 -22s-10 -22 -22 -22h-138c-19 0 -36 -16 -36 -35v-239h127c12 0 22 -10 22 -22s-10 -22 -22 -22h-127v-316z" />
<glyph unicode="G" d="M291 372c12 0 22 -10 22 -22v-239c0 -67 -55 -121 -124 -121c-68 0 -124 54 -124 121v478c0 67 56 121 124 121c69 0 124 -54 124 -121c0 -12 -10 -22 -22 -22s-22 10 -22 22c0 43 -35 77 -80 77c-44 0 -80 -34 -80 -77v-478c0 -43 36 -77 80 -77c45 0 80 34 80 77v217 h-61c-12 0 -22 10 -22 22s10 22 22 22h83z" />
<glyph unicode="&#x11e;" d="M186 760c-45 0 -75 30 -75 75c0 10 9 19 19 19s19 -9 19 -19c0 -21 16 -35 37 -35s37 14 37 35c0 10 9 19 19 19s19 -9 19 -19c0 -45 -30 -75 -75 -75zM291 372c12 0 22 -10 22 -22v-239c0 -67 -55 -121 -124 -121c-68 0 -124 54 -124 121v478c0 67 56 121 124 121 c69 0 124 -54 124 -121c0 -12 -10 -22 -22 -22s-22 10 -22 22c0 43 -35 77 -80 77c-44 0 -80 -34 -80 -77v-478c0 -43 36 -77 80 -77c45 0 80 34 80 77v217h-61c-12 0 -22 10 -22 22s10 22 22 22h83z" />
<glyph unicode="&#x122;" d="M291 372c12 0 22 -10 22 -22v-239c0 -67 -55 -121 -124 -121c-68 0 -124 54 -124 121v478c0 67 56 121 124 121c69 0 124 -54 124 -121c0 -12 -10 -22 -22 -22s-22 10 -22 22c0 43 -35 77 -80 77c-44 0 -80 -34 -80 -77v-478c0 -43 36 -77 80 -77c45 0 80 34 80 77v217 h-61c-12 0 -22 10 -22 22s10 22 22 22h83zM185 -60c20 0 33 -13 33 -33c0 -5 -1 -10 -4 -19l-21 -65c-3 -10 -11 -15 -19 -15c-12 0 -23 10 -19 25l11 46c-11 6 -16 17 -16 27c0 20 14 34 35 34z" />
<glyph unicode="&#x120;" d="M186 768c-21 0 -38 17 -38 38s17 38 38 38s38 -17 38 -38s-17 -38 -38 -38zM291 372c12 0 22 -10 22 -22v-239c0 -67 -55 -121 -124 -121c-68 0 -124 54 -124 121v478c0 67 56 121 124 121c69 0 124 -54 124 -121c0 -12 -10 -22 -22 -22s-22 10 -22 22 c0 43 -35 77 -80 77c-44 0 -80 -34 -80 -77v-478c0 -43 36 -77 80 -77c45 0 80 34 80 77v217h-61c-12 0 -22 10 -22 22s10 22 22 22h83z" />
<glyph unicode="H" horiz-adv-x="368" d="M109 372h150v306c0 12 10 22 22 22s22 -10 22 -22v-656c0 -12 -10 -22 -22 -22s-22 10 -22 22v306h-150v-306c0 -12 -10 -22 -22 -22s-22 10 -22 22v656c0 12 10 22 22 22s22 -10 22 -22v-306z" />
<glyph unicode="&#x126;" horiz-adv-x="368" d="M350 577c10 0 18 -8 18 -18s-8 -18 -18 -18h-47v-519c0 -12 -10 -22 -22 -22s-22 10 -22 22v306h-150v-306c0 -12 -10 -22 -22 -22s-22 10 -22 22v519h-47c-10 0 -18 8 -18 18s8 18 18 18h47v101c0 12 10 22 22 22s22 -10 22 -22v-101h150v101c0 12 10 22 22 22 s22 -10 22 -22v-101h47zM259 372v169h-150v-169h150z" />
<glyph unicode="I" horiz-adv-x="174" d="M109 22c0 -12 -10 -22 -22 -22s-22 10 -22 22v656c0 12 10 22 22 22s22 -10 22 -22v-656z" />
<glyph unicode="&#x132;" horiz-adv-x="471" d="M109 22c0 -12 -10 -22 -22 -22s-22 10 -22 22v656c0 12 10 22 22 22s22 -10 22 -22v-656zM384 700c12 0 22 -10 22 -22v-567c0 -67 -56 -121 -124 -121c-69 0 -124 54 -124 121c0 12 10 22 22 22s22 -10 22 -22c0 -43 35 -77 80 -77c44 0 80 34 80 77v567 c0 12 10 22 22 22z" />
<glyph unicode="&#xcd;" horiz-adv-x="174" d="M116 839c5 3 9 5 13 5c18 0 32 -23 14 -38l-63 -51c-4 -3 -8 -5 -13 -5c-16 0 -29 21 -13 35zM109 22c0 -12 -10 -22 -22 -22s-22 10 -22 22v656c0 12 10 22 22 22s22 -10 22 -22v-656z" />
<glyph unicode="&#xce;" horiz-adv-x="174" d="M166 759c-8 -9 -21 -11 -30 -3l-49 44l-50 -44c-9 -8 -22 -6 -30 3c-7 9 -6 22 3 30l63 51c7 6 19 6 27 0l63 -51c9 -8 10 -21 3 -30zM109 22c0 -12 -10 -22 -22 -22s-22 10 -22 22v656c0 12 10 22 22 22s22 -10 22 -22v-656z" />
<glyph unicode="&#xcf;" horiz-adv-x="174" d="M37 762c-19 0 -34 15 -34 34s15 34 34 34s34 -15 34 -34s-15 -34 -34 -34zM137 762c-19 0 -34 15 -34 34s15 34 34 34s34 -15 34 -34s-15 -34 -34 -34zM109 22c0 -12 -10 -22 -22 -22s-22 10 -22 22v656c0 12 10 22 22 22s22 -10 22 -22v-656z" />
<glyph unicode="&#x130;" horiz-adv-x="174" d="M87 758c-21 0 -38 17 -38 38s17 38 38 38s38 -17 38 -38s-17 -38 -38 -38zM109 22c0 -12 -10 -22 -22 -22s-22 10 -22 22v656c0 12 10 22 22 22s22 -10 22 -22v-656z" />
<glyph unicode="&#xcc;" horiz-adv-x="174" d="M60 839l62 -54c16 -14 3 -35 -13 -35c-5 0 -9 2 -13 5l-63 51c-18 15 -4 38 14 38c4 0 8 -2 13 -5zM109 22c0 -12 -10 -22 -22 -22s-22 10 -22 22v656c0 12 10 22 22 22s22 -10 22 -22v-656z" />
<glyph unicode="&#x12a;" horiz-adv-x="174" d="M159 798c11 0 20 -9 20 -20s-9 -20 -20 -20h-144c-11 0 -20 9 -20 20s9 20 20 20h144zM109 22c0 -12 -10 -22 -22 -22s-22 10 -22 22v656c0 12 10 22 22 22s22 -10 22 -22v-656z" />
<glyph unicode="&#x12e;" horiz-adv-x="174" d="M131 -133c11 0 20 -9 20 -20c0 -21 -32 -43 -63 -43c-45 0 -75 31 -75 77c0 39 12 78 52 141v656c0 12 10 22 22 22s22 -10 22 -22v-651c0 -7 -3 -15 -6 -19c-39 -57 -50 -89 -50 -127c0 -22 14 -37 35 -37c13 0 20 6 27 15c4 5 9 8 16 8z" />
<glyph unicode="J" horiz-adv-x="323" d="M236 700c12 0 22 -10 22 -22v-567c0 -67 -56 -121 -124 -121c-69 0 -124 54 -124 121c0 12 10 22 22 22s22 -10 22 -22c0 -43 35 -77 80 -77c44 0 80 34 80 77v567c0 12 10 22 22 22z" />
<glyph unicode="K" horiz-adv-x="366" d="M243 412c46 -6 73 -39 73 -81v-309c0 -12 -10 -22 -22 -22s-22 10 -22 22v309c0 25 -20 45 -45 45h-118v-354c0 -12 -10 -22 -22 -22s-22 10 -22 22v656c0 12 10 22 22 22s22 -10 22 -22v-258h70c22 0 42 20 42 44v120c0 12 10 22 22 22s22 -10 22 -22v-120 c0 -17 -5 -34 -22 -52z" />
<glyph unicode="&#x136;" horiz-adv-x="366" d="M243 412c46 -6 73 -39 73 -81v-309c0 -12 -10 -22 -22 -22s-22 10 -22 22v309c0 25 -20 45 -45 45h-118v-354c0 -12 -10 -22 -22 -22s-22 10 -22 22v656c0 12 10 22 22 22s22 -10 22 -22v-258h70c22 0 42 20 42 44v120c0 12 10 22 22 22s22 -10 22 -22v-120 c0 -17 -5 -34 -22 -52zM214 -112l-21 -65c-3 -10 -11 -15 -19 -15c-12 0 -23 10 -19 25l11 46c-11 6 -16 17 -16 27c0 20 14 34 35 34c20 0 33 -13 33 -33c0 -5 -1 -10 -4 -19z" />
<glyph unicode="L" horiz-adv-x="309" d="M267 0h-122c-44 0 -80 35 -80 79v599c0 12 10 22 22 22s22 -10 22 -22v-599c0 -19 17 -35 36 -35h122c12 0 22 -10 22 -22s-10 -22 -22 -22z" />
<glyph unicode="&#x139;" horiz-adv-x="309" d="M116 839c5 3 9 5 13 5c18 0 32 -23 14 -38l-63 -51c-4 -3 -8 -5 -13 -5c-16 0 -29 21 -13 35zM267 0h-122c-44 0 -80 35 -80 79v599c0 12 10 22 22 22s22 -10 22 -22v-599c0 -19 17 -35 36 -35h122c12 0 22 -10 22 -22s-10 -22 -22 -22z" />
<glyph unicode="&#x13d;" horiz-adv-x="309" d="M267 0h-122c-44 0 -80 35 -80 79v599c0 12 10 22 22 22s22 -10 22 -22v-599c0 -19 17 -35 36 -35h122c12 0 22 -10 22 -22s-10 -22 -22 -22zM277 648l-21 -65c-3 -10 -11 -15 -19 -15c-12 0 -23 10 -19 25l11 46c-11 6 -16 17 -16 27c0 20 14 34 35 34 c20 0 33 -13 33 -33c0 -5 -1 -10 -4 -19z" />
<glyph unicode="&#x13b;" horiz-adv-x="309" d="M267 0h-122c-44 0 -80 35 -80 79v599c0 12 10 22 22 22s22 -10 22 -22v-599c0 -19 17 -35 36 -35h122c12 0 22 -10 22 -22s-10 -22 -22 -22zM199 -112l-21 -65c-3 -10 -11 -15 -19 -15c-12 0 -23 10 -19 25l11 46c-11 6 -16 17 -16 27c0 20 14 34 35 34 c20 0 33 -13 33 -33c0 -5 -1 -10 -4 -19z" />
<glyph unicode="&#x13f;" horiz-adv-x="309" d="M267 0h-122c-44 0 -80 35 -80 79v599c0 12 10 22 22 22s22 -10 22 -22v-599c0 -19 17 -35 36 -35h122c12 0 22 -10 22 -22s-10 -22 -22 -22zM206 335c-19 0 -34 15 -34 34c0 18 15 33 34 33s34 -15 34 -33c0 -19 -15 -34 -34 -34z" />
<glyph unicode="&#x141;" horiz-adv-x="318" d="M276 44c12 0 22 -10 22 -22s-10 -22 -22 -22h-122c-44 0 -80 35 -80 79v185l-47 -27c-9 -5 -20 -2 -25 7s-2 20 7 25l65 38v371c0 12 10 22 22 22s22 -10 22 -22v-346l99 57c9 5 20 2 25 -7s2 -20 -7 -24l-117 -68v-211c0 -19 17 -35 36 -35h122z" />
<glyph unicode="M" horiz-adv-x="386" d="M299 0c-12 0 -22 10 -22 22v519l-62 -195c-4 -14 -13 -18 -22 -18s-18 4 -22 18l-62 195v-519c0 -12 -10 -22 -22 -22s-22 10 -22 22v656c0 12 10 22 22 22c10 0 18 -7 21 -16l85 -268l85 268c3 9 11 16 21 16c12 0 22 -10 22 -22v-656c0 -12 -10 -22 -22 -22z" />
<glyph unicode="N" d="M291 700c12 0 22 -10 22 -22v-656c0 -12 -10 -22 -22 -22c-10 0 -18 6 -21 15l-161 519v-512c0 -12 -10 -22 -22 -22s-22 10 -22 22v656c0 12 10 22 22 22c10 0 18 -6 21 -15l161 -519v512c0 12 10 22 22 22z" />
<glyph unicode="&#x143;" d="M217 839c5 3 9 5 13 5c18 0 32 -23 14 -38l-63 -51c-4 -3 -8 -5 -13 -5c-16 0 -29 21 -13 35zM291 700c12 0 22 -10 22 -22v-656c0 -12 -10 -22 -22 -22c-10 0 -18 6 -21 15l-161 519v-512c0 -12 -10 -22 -22 -22s-22 10 -22 22v656c0 12 10 22 22 22c10 0 18 -6 21 -15 l161 -519v512c0 12 10 22 22 22z" />
<glyph unicode="&#x147;" d="M267 836c7 -9 6 -22 -3 -30l-63 -51c-8 -6 -20 -6 -27 0l-63 51c-9 8 -10 21 -3 30c8 9 21 11 30 3l50 -44l49 44c9 8 22 6 30 -3zM291 700c12 0 22 -10 22 -22v-656c0 -12 -10 -22 -22 -22c-10 0 -18 6 -21 15l-161 519v-512c0 -12 -10 -22 -22 -22s-22 10 -22 22v656 c0 12 10 22 22 22c10 0 18 -6 21 -15l161 -519v512c0 12 10 22 22 22z" />
<glyph unicode="&#x145;" d="M291 700c12 0 22 -10 22 -22v-656c0 -12 -10 -22 -22 -22c-10 0 -18 6 -21 15l-161 519v-512c0 -12 -10 -22 -22 -22s-22 10 -22 22v656c0 12 10 22 22 22c10 0 18 -6 21 -15l161 -519v512c0 12 10 22 22 22zM215 -112l-21 -65c-3 -10 -11 -15 -19 -15 c-12 0 -23 10 -19 25l11 46c-11 6 -16 17 -16 27c0 20 14 34 35 34c20 0 33 -13 33 -33c0 -5 -1 -10 -4 -19z" />
<glyph unicode="&#x14a;" d="M291 700c12 0 22 -10 22 -22v-729c0 -67 -56 -121 -124 -121c-12 0 -22 10 -22 22s10 22 22 22c44 0 80 34 80 77v69l-160 516v-512c0 -12 -10 -22 -22 -22s-22 10 -22 22v656c0 12 10 22 22 22c10 0 18 -6 21 -15l161 -527v520c0 12 10 22 22 22z" />
<glyph unicode="&#xd1;" d="M259 840c11 0 20 -9 20 -20c0 -39 -24 -66 -58 -66c-41 0 -47 45 -69 45c-9 0 -15 -10 -15 -25c0 -11 -9 -20 -20 -20s-20 9 -20 20c0 39 24 66 58 66c43 0 49 -45 70 -45c8 0 14 10 14 25c0 11 9 20 20 20zM291 700c12 0 22 -10 22 -22v-656c0 -12 -10 -22 -22 -22 c-10 0 -18 6 -21 15l-161 519v-512c0 -12 -10 -22 -22 -22s-22 10 -22 22v656c0 12 10 22 22 22c10 0 18 -6 21 -15l161 -519v512c0 12 10 22 22 22z" />
<glyph unicode="O" d="M189 -10c68 0 124 54 124 121v478c0 67 -56 121 -124 121s-124 -54 -124 -121v-478c0 -67 56 -121 124 -121zM189 666c44 0 80 -34 80 -77v-478c0 -43 -36 -77 -80 -77s-80 34 -80 77v478c0 43 36 77 80 77z" />
<glyph unicode="&#xd3;" d="M218 849c5 3 9 5 13 5c18 0 32 -23 14 -38l-63 -51c-4 -3 -8 -5 -13 -5c-16 0 -29 21 -13 35zM189 -10c68 0 124 54 124 121v478c0 67 -56 121 -124 121s-124 -54 -124 -121v-478c0 -67 56 -121 124 -121zM189 666c44 0 80 -34 80 -77v-478c0 -43 -36 -77 -80 -77 s-80 34 -80 77v478c0 43 36 77 80 77z" />
<glyph unicode="&#xd4;" d="M268 769c-8 -9 -21 -11 -30 -3l-49 44l-50 -44c-9 -8 -22 -6 -30 3c-7 9 -6 22 3 30l63 51c7 6 19 6 27 0l63 -51c9 -8 10 -21 3 -30zM189 -10c68 0 124 54 124 121v478c0 67 -56 121 -124 121s-124 -54 -124 -121v-478c0 -67 56 -121 124 -121zM189 666 c44 0 80 -34 80 -77v-478c0 -43 -36 -77 -80 -77s-80 34 -80 77v478c0 43 36 77 80 77z" />
<glyph unicode="&#xd6;" d="M139 772c-19 0 -34 15 -34 34s15 34 34 34s34 -15 34 -34s-15 -34 -34 -34zM239 772c-19 0 -34 15 -34 34s15 34 34 34s34 -15 34 -34s-15 -34 -34 -34zM189 -10c68 0 124 54 124 121v478c0 67 -56 121 -124 121s-124 -54 -124 -121v-478c0 -67 56 -121 124 -121z M189 666c44 0 80 -34 80 -77v-478c0 -43 -36 -77 -80 -77s-80 34 -80 77v478c0 43 36 77 80 77z" />
<glyph unicode="&#xd2;" d="M162 849l62 -54c16 -14 3 -35 -13 -35c-5 0 -9 2 -13 5l-63 51c-18 15 -4 38 14 38c4 0 8 -2 13 -5zM189 -10c68 0 124 54 124 121v478c0 67 -56 121 -124 121s-124 -54 -124 -121v-478c0 -67 56 -121 124 -121zM189 666c44 0 80 -34 80 -77v-478c0 -43 -36 -77 -80 -77 s-80 34 -80 77v478c0 43 36 77 80 77z" />
<glyph unicode="&#x150;" d="M173 847c5 5 10 7 16 7c16 0 30 -19 16 -35l-47 -52c-5 -5 -10 -7 -15 -7c-15 0 -28 17 -16 32zM253 847c5 5 10 7 16 7c16 0 30 -19 16 -35l-47 -52c-5 -5 -10 -7 -15 -7c-15 0 -28 17 -16 32zM189 -10c68 0 124 54 124 121v478c0 67 -56 121 -124 121 s-124 -54 -124 -121v-478c0 -67 56 -121 124 -121zM189 666c44 0 80 -34 80 -77v-478c0 -43 -36 -77 -80 -77s-80 34 -80 77v478c0 43 36 77 80 77z" />
<glyph unicode="&#x14c;" d="M261 828c11 0 20 -9 20 -20s-9 -20 -20 -20h-144c-11 0 -20 9 -20 20s9 20 20 20h144zM189 -10c68 0 124 54 124 121v478c0 67 -56 121 -124 121s-124 -54 -124 -121v-478c0 -67 56 -121 124 -121zM189 666c44 0 80 -34 80 -77v-478c0 -43 -36 -77 -80 -77s-80 34 -80 77 v478c0 43 36 77 80 77z" />
<glyph unicode="&#xd8;" d="M266 684c29 -22 47 -57 47 -95v-478c0 -67 -56 -121 -124 -121c-14 0 -28 2 -41 7l-8 -46c-3 -10 -13 -17 -22 -16c-11 4 -17 12 -15 22l10 58c-29 22 -48 57 -48 96v478c0 67 56 121 124 121c15 0 30 -3 44 -8l8 47c1 9 12 16 20 15c11 -3 17 -12 15 -22zM109 111 c0 -22 4 -39 12 -51l105 602c-10 3 -23 4 -37 4c-44 0 -80 -34 -80 -77v-478zM269 111v478c0 21 -3 37 -11 49l-103 -600c10 -3 21 -4 34 -4c44 0 80 34 80 77z" />
<glyph unicode="&#xd5;" d="M260 850c11 0 20 -9 20 -20c0 -39 -24 -66 -58 -66c-41 0 -47 45 -69 45c-9 0 -15 -10 -15 -25c0 -11 -9 -20 -20 -20s-20 9 -20 20c0 39 24 66 58 66c43 0 49 -45 70 -45c8 0 14 10 14 25c0 11 9 20 20 20zM189 -10c68 0 124 54 124 121v478c0 67 -56 121 -124 121 s-124 -54 -124 -121v-478c0 -67 56 -121 124 -121zM189 666c44 0 80 -34 80 -77v-478c0 -43 -36 -77 -80 -77s-80 34 -80 77v478c0 43 36 77 80 77z" />
<glyph unicode="&#x152;" horiz-adv-x="498" d="M421 338h-108v-212c0 -47 33 -82 75 -82h33c12 0 22 -10 22 -22s-10 -22 -22 -22h-33c-36 0 -74 19 -95 60c-22 -45 -58 -70 -104 -70c-68 0 -124 54 -124 121v478c0 67 56 121 124 121c46 0 84 -25 104 -70c23 41 59 60 95 60h33c12 0 22 -10 22 -22s-10 -22 -22 -22 h-33c-42 0 -75 -35 -75 -82v-192h108c12 0 22 -10 22 -22s-10 -22 -22 -22zM269 111v478c0 43 -36 77 -80 77s-80 -34 -80 -77v-478c0 -43 36 -77 80 -77s80 34 80 77z" />
<glyph unicode="P" horiz-adv-x="380" d="M221 700c62 0 114 -53 114 -117s-52 -117 -114 -117h-112v-444c0 -12 -10 -22 -22 -22s-22 10 -22 22v656c0 12 10 22 22 22h134zM221 510c38 0 70 33 70 73s-32 73 -70 73h-112v-146h112z" />
<glyph unicode="&#xde;" horiz-adv-x="380" d="M221 467c62 0 114 -53 114 -117s-52 -117 -114 -117h-112v-211c0 -12 -10 -22 -22 -22s-22 10 -22 22v656c0 12 10 22 22 22s22 -10 22 -22v-211h112zM221 277c38 0 70 33 70 73s-32 73 -70 73h-112v-146h112z" />
<glyph unicode="Q" d="M320 9c7 -7 7 -19 0 -26s-18 -7 -26 0l-31 31c-21 -15 -46 -24 -74 -24c-68 0 -124 54 -124 121v478c0 67 56 121 124 121s124 -54 124 -121v-478c0 -27 -9 -51 -24 -71zM189 34c16 0 30 4 43 12l-32 32c-7 7 -7 19 0 26s18 7 25 0l33 -33c7 12 11 25 11 40v478 c0 43 -36 77 -80 77s-80 -34 -80 -77v-478c0 -43 36 -77 80 -77z" />
<glyph unicode="R" horiz-adv-x="400" d="M109 22c0 -12 -10 -22 -22 -22s-22 10 -22 22v656c0 12 10 22 22 22h134c62 0 114 -53 114 -117c0 -38 -18 -72 -52 -94c34 -20 52 -53 52 -91v-376c0 -12 -10 -22 -22 -22s-22 10 -22 22v376c-1 38 -30 68 -70 68h-112v-444zM109 656v-146h112c38 0 70 33 70 73 s-32 73 -70 73h-112z" />
<glyph unicode="&#x154;" horiz-adv-x="400" d="M223 839c5 3 9 5 13 5c18 0 32 -23 14 -38l-63 -51c-4 -3 -8 -5 -13 -5c-16 0 -29 21 -13 35zM109 22c0 -12 -10 -22 -22 -22s-22 10 -22 22v656c0 12 10 22 22 22h134c62 0 114 -53 114 -117c0 -38 -18 -72 -52 -94c34 -20 52 -53 52 -91v-376c0 -12 -10 -22 -22 -22 s-22 10 -22 22v376c-1 38 -30 68 -70 68h-112v-444zM109 656v-146h112c38 0 70 33 70 73s-32 73 -70 73h-112z" />
<glyph unicode="&#x158;" horiz-adv-x="400" d="M273 836c7 -9 6 -22 -3 -30l-63 -51c-8 -6 -20 -6 -27 0l-63 51c-9 8 -10 21 -3 30c8 9 21 11 30 3l50 -44l49 44c9 8 22 6 30 -3zM109 22c0 -12 -10 -22 -22 -22s-22 10 -22 22v656c0 12 10 22 22 22h134c62 0 114 -53 114 -117c0 -38 -18 -72 -52 -94 c34 -20 52 -53 52 -91v-376c0 -12 -10 -22 -22 -22s-22 10 -22 22v376c-1 38 -30 68 -70 68h-112v-444zM109 656v-146h112c38 0 70 33 70 73s-32 73 -70 73h-112z" />
<glyph unicode="&#x156;" horiz-adv-x="400" d="M109 22c0 -12 -10 -22 -22 -22s-22 10 -22 22v656c0 12 10 22 22 22h134c62 0 114 -53 114 -117c0 -38 -18 -72 -52 -94c34 -20 52 -53 52 -91v-376c0 -12 -10 -22 -22 -22s-22 10 -22 22v376c-1 38 -30 68 -70 68h-112v-444zM109 656v-146h112c38 0 70 33 70 73 s-32 73 -70 73h-112zM225 -112l-21 -65c-3 -10 -11 -15 -19 -15c-12 0 -23 10 -19 25l11 46c-11 6 -16 17 -16 27c0 20 14 34 35 34c20 0 33 -13 33 -33c0 -5 -1 -10 -4 -19z" />
<glyph unicode="S" horiz-adv-x="328" d="M293 285v-169c0 -70 -58 -126 -129 -126c-72 0 -129 56 -129 126c0 12 10 22 22 22s22 -10 22 -22c0 -46 37 -82 85 -82c47 0 85 37 85 82v169c0 44 -38 88 -88 103c-75 23 -121 79 -121 140v61c0 67 56 121 124 121c69 0 124 -54 124 -121c0 -12 -10 -22 -22 -22 s-22 10 -22 22c0 43 -35 77 -80 77c-44 0 -80 -34 -80 -77v-61c0 -43 36 -82 90 -98c71 -23 119 -81 119 -145z" />
<glyph unicode="&#x15a;" horiz-adv-x="328" d="M193 849c5 3 9 5 13 5c18 0 32 -23 14 -38l-63 -51c-4 -3 -8 -5 -13 -5c-16 0 -29 21 -13 35zM293 285v-169c0 -70 -58 -126 -129 -126c-72 0 -129 56 -129 126c0 12 10 22 22 22s22 -10 22 -22c0 -46 37 -82 85 -82c47 0 85 37 85 82v169c0 44 -38 88 -88 103 c-75 23 -121 79 -121 140v61c0 67 56 121 124 121c69 0 124 -54 124 -121c0 -12 -10 -22 -22 -22s-22 10 -22 22c0 43 -35 77 -80 77c-44 0 -80 -34 -80 -77v-61c0 -43 36 -82 90 -98c71 -23 119 -81 119 -145z" />
<glyph unicode="&#x160;" horiz-adv-x="328" d="M243 846c7 -9 6 -22 -3 -30l-63 -51c-8 -6 -20 -6 -27 0l-63 51c-9 8 -10 21 -3 30c8 9 21 11 30 3l50 -44l49 44c9 8 22 6 30 -3zM293 285v-169c0 -70 -58 -126 -129 -126c-72 0 -129 56 -129 126c0 12 10 22 22 22s22 -10 22 -22c0 -46 37 -82 85 -82c47 0 85 37 85 82 v169c0 44 -38 88 -88 103c-75 23 -121 79 -121 140v61c0 67 56 121 124 121c69 0 124 -54 124 -121c0 -12 -10 -22 -22 -22s-22 10 -22 22c0 43 -35 77 -80 77c-44 0 -80 -34 -80 -77v-61c0 -43 36 -82 90 -98c71 -23 119 -81 119 -145z" />
<glyph unicode="&#x15e;" horiz-adv-x="328" d="M174 430c71 -23 119 -81 119 -145v-169c0 -64 -48 -116 -110 -125l-16 -43c34 1 62 -25 62 -67c0 -46 -30 -77 -75 -77c-31 0 -63 22 -63 43c0 11 9 20 20 20c7 0 12 -3 16 -8c7 -9 14 -15 27 -15c21 0 35 15 35 37c0 46 -35 31 -48 31s-20 12 -14 28l19 51 c-63 9 -111 61 -111 125c0 12 10 22 22 22s22 -10 22 -22c0 -46 37 -82 85 -82c47 0 85 37 85 82v169c0 44 -38 88 -88 103c-75 23 -121 79 -121 140v61c0 67 56 121 124 121c69 0 124 -54 124 -121c0 -12 -10 -22 -22 -22s-22 10 -22 22c0 43 -35 77 -80 77 c-44 0 -80 -34 -80 -77v-61c0 -43 36 -82 90 -98z" />
<glyph unicode="&#x218;" horiz-adv-x="328" d="M293 285v-169c0 -70 -58 -126 -129 -126c-72 0 -129 56 -129 126c0 12 10 22 22 22s22 -10 22 -22c0 -46 37 -82 85 -82c47 0 85 37 85 82v169c0 44 -38 88 -88 103c-75 23 -121 79 -121 140v61c0 67 56 121 124 121c69 0 124 -54 124 -121c0 -12 -10 -22 -22 -22 s-22 10 -22 22c0 43 -35 77 -80 77c-44 0 -80 -34 -80 -77v-61c0 -43 36 -82 90 -98c71 -23 119 -81 119 -145zM191 -112l-21 -65c-3 -10 -11 -15 -19 -15c-12 0 -23 10 -19 25l11 46c-11 6 -16 17 -16 27c0 20 14 34 35 34c20 0 33 -13 33 -33c0 -5 -1 -10 -4 -19z" />
<glyph unicode="T" horiz-adv-x="302" d="M255 700c12 0 22 -10 22 -22s-10 -22 -22 -22h-82v-634c0 -12 -10 -22 -22 -22s-22 10 -22 22v634h-82c-12 0 -22 10 -22 22s10 22 22 22h208z" />
<glyph unicode="&#x166;" horiz-adv-x="302" d="M255 700c12 0 22 -10 22 -22s-10 -22 -22 -22h-82v-218h57c10 0 18 -8 18 -18s-8 -18 -18 -18h-57v-380c0 -12 -10 -22 -22 -22s-22 10 -22 22v380h-57c-10 0 -18 8 -18 18s8 18 18 18h57v218h-82c-12 0 -22 10 -22 22s10 22 22 22h208z" />
<glyph unicode="&#x164;" horiz-adv-x="302" d="M230 836c7 -9 6 -22 -3 -30l-63 -51c-8 -6 -20 -6 -27 0l-63 51c-9 8 -10 21 -3 30c8 9 21 11 30 3l50 -44l49 44c9 8 22 6 30 -3zM255 700c12 0 22 -10 22 -22s-10 -22 -22 -22h-82v-634c0 -12 -10 -22 -22 -22s-22 10 -22 22v634h-82c-12 0 -22 10 -22 22s10 22 22 22 h208z" />
<glyph unicode="&#x162;" horiz-adv-x="302" d="M255 700c12 0 22 -10 22 -22s-10 -22 -22 -22h-82v-634c0 -12 -10 -22 -22 -22s-22 10 -22 22v634h-82c-12 0 -22 10 -22 22s10 22 22 22h208zM176 -112l-21 -65c-3 -10 -11 -15 -19 -15c-12 0 -23 10 -19 25l11 46c-11 6 -16 17 -16 27c0 20 14 34 35 34 c20 0 33 -13 33 -33c0 -5 -1 -10 -4 -19z" />
<glyph unicode="&#x21a;" horiz-adv-x="302" d="M255 700c12 0 22 -10 22 -22s-10 -22 -22 -22h-82v-634c0 -12 -10 -22 -22 -22s-22 10 -22 22v634h-82c-12 0 -22 10 -22 22s10 22 22 22h208zM176 -112l-21 -65c-3 -10 -11 -15 -19 -15c-12 0 -23 10 -19 25l11 46c-11 6 -16 17 -16 27c0 20 14 34 35 34 c20 0 33 -13 33 -33c0 -5 -1 -10 -4 -19z" />
<glyph unicode="U" horiz-adv-x="368" d="M109 116c0 -49 30 -82 75 -82s75 33 75 82v562c0 12 10 22 22 22s22 -10 22 -22v-562c0 -76 -48 -126 -119 -126s-119 50 -119 126v562c0 12 10 22 22 22s22 -10 22 -22v-562z" />
<glyph unicode="&#xda;" horiz-adv-x="368" d="M213 839c5 3 9 5 13 5c18 0 32 -23 14 -38l-63 -51c-4 -3 -8 -5 -13 -5c-16 0 -29 21 -13 35zM109 116c0 -49 30 -82 75 -82s75 33 75 82v562c0 12 10 22 22 22s22 -10 22 -22v-562c0 -76 -48 -126 -119 -126s-119 50 -119 126v562c0 12 10 22 22 22s22 -10 22 -22v-562z " />
<glyph unicode="&#xdb;" horiz-adv-x="368" d="M263 759c-8 -9 -21 -11 -30 -3l-49 44l-50 -44c-9 -8 -22 -6 -30 3c-7 9 -6 22 3 30l63 51c7 6 19 6 27 0l63 -51c9 -8 10 -21 3 -30zM109 116c0 -49 30 -82 75 -82s75 33 75 82v562c0 12 10 22 22 22s22 -10 22 -22v-562c0 -76 -48 -126 -119 -126s-119 50 -119 126v562 c0 12 10 22 22 22s22 -10 22 -22v-562z" />
<glyph unicode="&#xdc;" horiz-adv-x="368" d="M134 762c-19 0 -34 15 -34 34s15 34 34 34s34 -15 34 -34s-15 -34 -34 -34zM234 762c-19 0 -34 15 -34 34s15 34 34 34s34 -15 34 -34s-15 -34 -34 -34zM109 116c0 -49 30 -82 75 -82s75 33 75 82v562c0 12 10 22 22 22s22 -10 22 -22v-562c0 -76 -48 -126 -119 -126 s-119 50 -119 126v562c0 12 10 22 22 22s22 -10 22 -22v-562z" />
<glyph unicode="&#xd9;" horiz-adv-x="368" d="M157 839l62 -54c16 -14 3 -35 -13 -35c-5 0 -9 2 -13 5l-63 51c-18 15 -4 38 14 38c4 0 8 -2 13 -5zM109 116c0 -49 30 -82 75 -82s75 33 75 82v562c0 12 10 22 22 22s22 -10 22 -22v-562c0 -76 -48 -126 -119 -126s-119 50 -119 126v562c0 12 10 22 22 22s22 -10 22 -22 v-562z" />
<glyph unicode="&#x170;" horiz-adv-x="368" d="M168 837c5 5 10 7 16 7c16 0 30 -19 16 -35l-47 -52c-5 -5 -10 -7 -15 -7c-15 0 -28 17 -16 32zM248 837c5 5 10 7 16 7c16 0 30 -19 16 -35l-47 -52c-5 -5 -10 -7 -15 -7c-15 0 -28 17 -16 32zM109 116c0 -49 30 -82 75 -82s75 33 75 82v562c0 12 10 22 22 22 s22 -10 22 -22v-562c0 -76 -48 -126 -119 -126s-119 50 -119 126v562c0 12 10 22 22 22s22 -10 22 -22v-562z" />
<glyph unicode="&#x16a;" horiz-adv-x="368" d="M256 818c11 0 20 -9 20 -20s-9 -20 -20 -20h-144c-11 0 -20 9 -20 20s9 20 20 20h144zM109 116c0 -49 30 -82 75 -82s75 33 75 82v562c0 12 10 22 22 22s22 -10 22 -22v-562c0 -76 -48 -126 -119 -126s-119 50 -119 126v562c0 12 10 22 22 22s22 -10 22 -22v-562z" />
<glyph unicode="&#x172;" horiz-adv-x="368" d="M303 116c0 -29 -9 -56 -25 -77c-60 -81 -84 -119 -84 -158c0 -22 14 -37 35 -37c13 0 20 6 27 15c4 5 9 8 16 8c11 0 20 -9 20 -20c0 -21 -32 -43 -63 -43c-45 0 -75 31 -75 77c0 29 8 60 48 110c-5 -1 -11 -1 -18 -1c-71 0 -119 50 -119 126v562c0 12 10 22 22 22 s22 -10 22 -22v-562c0 -49 30 -82 75 -82c42 0 75 35 75 82v562c0 12 10 22 22 22s22 -10 22 -22v-562z" />
<glyph unicode="&#x16e;" horiz-adv-x="368" d="M184 739c-34 0 -59 25 -59 59c0 33 25 58 59 58c33 0 58 -25 58 -58c0 -34 -25 -59 -58 -59zM184 770c15 0 27 12 27 28c0 15 -12 27 -27 27c-16 0 -28 -12 -28 -27c0 -16 12 -28 28 -28zM109 116c0 -49 30 -82 75 -82s75 33 75 82v562c0 12 10 22 22 22s22 -10 22 -22 v-562c0 -76 -48 -126 -119 -126s-119 50 -119 126v562c0 12 10 22 22 22s22 -10 22 -22v-562z" />
<glyph unicode="V" horiz-adv-x="356" d="M279 700c12 0 22 -10 22 -22v-459c0 -7 -1 -13 -4 -18l-100 -190c-4 -7 -11 -11 -19 -11s-15 4 -19 11l-100 190c-3 5 -4 11 -4 18v459c0 12 10 22 22 22s22 -10 22 -22v-459l79 -151l79 151v459c0 12 10 22 22 22z" />
<glyph unicode="W" horiz-adv-x="386" d="M299 700c12 0 22 -10 22 -22v-656c0 -12 -10 -22 -22 -22c-10 0 -18 7 -21 16l-85 268l-85 -268c-3 -9 -11 -16 -21 -16c-12 0 -22 10 -22 22v656c0 12 10 22 22 22s22 -10 22 -22v-519l62 195c4 14 13 18 22 18s18 -4 22 -18l62 -195v519c0 12 10 22 22 22z" />
<glyph unicode="&#x1e82;" horiz-adv-x="386" d="M222 839c5 3 9 5 13 5c18 0 32 -23 14 -38l-63 -51c-4 -3 -8 -5 -13 -5c-16 0 -29 21 -13 35zM299 700c12 0 22 -10 22 -22v-656c0 -12 -10 -22 -22 -22c-10 0 -18 7 -21 16l-85 268l-85 -268c-3 -9 -11 -16 -21 -16c-12 0 -22 10 -22 22v656c0 12 10 22 22 22 s22 -10 22 -22v-519l62 195c4 14 13 18 22 18s18 -4 22 -18l62 -195v519c0 12 10 22 22 22z" />
<glyph unicode="&#x174;" horiz-adv-x="386" d="M272 759c-8 -9 -21 -11 -30 -3l-49 44l-50 -44c-9 -8 -22 -6 -30 3c-7 9 -6 22 3 30l63 51c7 6 19 6 27 0l63 -51c9 -8 10 -21 3 -30zM299 700c12 0 22 -10 22 -22v-656c0 -12 -10 -22 -22 -22c-10 0 -18 7 -21 16l-85 268l-85 -268c-3 -9 -11 -16 -21 -16 c-12 0 -22 10 -22 22v656c0 12 10 22 22 22s22 -10 22 -22v-519l62 195c4 14 13 18 22 18s18 -4 22 -18l62 -195v519c0 12 10 22 22 22z" />
<glyph unicode="&#x1e84;" horiz-adv-x="386" d="M143 762c-19 0 -34 15 -34 34s15 34 34 34s34 -15 34 -34s-15 -34 -34 -34zM243 762c-19 0 -34 15 -34 34s15 34 34 34s34 -15 34 -34s-15 -34 -34 -34zM299 700c12 0 22 -10 22 -22v-656c0 -12 -10 -22 -22 -22c-10 0 -18 7 -21 16l-85 268l-85 -268 c-3 -9 -11 -16 -21 -16c-12 0 -22 10 -22 22v656c0 12 10 22 22 22s22 -10 22 -22v-519l62 195c4 14 13 18 22 18s18 -4 22 -18l62 -195v519c0 12 10 22 22 22z" />
<glyph unicode="&#x1e80;" horiz-adv-x="386" d="M166 839l62 -54c16 -14 3 -35 -13 -35c-5 0 -9 2 -13 5l-63 51c-18 15 -4 38 14 38c4 0 8 -2 13 -5zM299 700c12 0 22 -10 22 -22v-656c0 -12 -10 -22 -22 -22c-10 0 -18 7 -21 16l-85 268l-85 -268c-3 -9 -11 -16 -21 -16c-12 0 -22 10 -22 22v656c0 12 10 22 22 22 s22 -10 22 -22v-519l62 195c4 14 13 18 22 18s18 -4 22 -18l62 -195v519c0 12 10 22 22 22z" />
<glyph unicode="X" horiz-adv-x="347" d="M311 29c6 -18 -8 -29 -21 -29c-9 0 -18 5 -21 15l-95 277l-96 -277c-3 -10 -12 -15 -21 -15c-13 0 -27 11 -21 29l114 331l-107 311c-6 17 8 29 22 29c8 0 16 -4 20 -15l89 -257l88 257c4 11 12 15 20 15c14 0 28 -12 22 -29l-107 -311z" />
<glyph unicode="Y" horiz-adv-x="324" d="M271 700c14 0 28 -12 22 -29l-108 -313v-336c0 -12 -10 -22 -22 -22s-22 10 -22 22v336l-109 313c-6 17 8 29 22 29c8 0 16 -4 20 -15l89 -257l88 257c4 11 12 15 20 15z" />
<glyph unicode="&#xdd;" horiz-adv-x="324" d="M192 839c5 3 9 5 13 5c18 0 32 -23 14 -38l-63 -51c-4 -3 -8 -5 -13 -5c-16 0 -29 21 -13 35zM271 700c14 0 28 -12 22 -29l-108 -313v-336c0 -12 -10 -22 -22 -22s-22 10 -22 22v336l-109 313c-6 17 8 29 22 29c8 0 16 -4 20 -15l89 -257l88 257c4 11 12 15 20 15z" />
<glyph unicode="&#x176;" horiz-adv-x="324" d="M242 759c-8 -9 -21 -11 -30 -3l-49 44l-50 -44c-9 -8 -22 -6 -30 3c-7 9 -6 22 3 30l63 51c7 6 19 6 27 0l63 -51c9 -8 10 -21 3 -30zM271 700c14 0 28 -12 22 -29l-108 -313v-336c0 -12 -10 -22 -22 -22s-22 10 -22 22v336l-109 313c-6 17 8 29 22 29c8 0 16 -4 20 -15 l89 -257l88 257c4 11 12 15 20 15z" />
<glyph unicode="&#x178;" horiz-adv-x="324" d="M113 762c-19 0 -34 15 -34 34s15 34 34 34s34 -15 34 -34s-15 -34 -34 -34zM213 762c-19 0 -34 15 -34 34s15 34 34 34s34 -15 34 -34s-15 -34 -34 -34zM271 700c14 0 28 -12 22 -29l-108 -313v-336c0 -12 -10 -22 -22 -22s-22 10 -22 22v336l-109 313c-6 17 8 29 22 29 c8 0 16 -4 20 -15l89 -257l88 257c4 11 12 15 20 15z" />
<glyph unicode="&#x1ef2;" horiz-adv-x="324" d="M136 839l62 -54c16 -14 3 -35 -13 -35c-5 0 -9 2 -13 5l-63 51c-18 15 -4 38 14 38c4 0 8 -2 13 -5zM271 700c14 0 28 -12 22 -29l-108 -313v-336c0 -12 -10 -22 -22 -22s-22 10 -22 22v336l-109 313c-6 17 8 29 22 29c8 0 16 -4 20 -15l89 -257l88 257c4 11 12 15 20 15 z" />
<glyph unicode="Z" horiz-adv-x="341" d="M81 700c-12 0 -22 -10 -22 -22s10 -22 22 -22h162l-208 -627c-6 -18 8 -29 21 -29h228c12 0 22 10 22 22s-10 22 -22 22h-198l208 627c6 17 -8 29 -22 29h-191z" />
<glyph unicode="&#x179;" horiz-adv-x="341" d="M209 839c5 3 9 5 13 5c18 0 32 -23 14 -38l-63 -51c-4 -3 -8 -5 -13 -5c-16 0 -29 21 -13 35zM81 700c-12 0 -22 -10 -22 -22s10 -22 22 -22h162l-208 -627c-6 -18 8 -29 21 -29h228c12 0 22 10 22 22s-10 22 -22 22h-198l208 627c6 17 -8 29 -22 29h-191z" />
<glyph unicode="&#x17d;" horiz-adv-x="341" d="M259 836c7 -9 6 -22 -3 -30l-63 -51c-8 -6 -20 -6 -27 0l-63 51c-9 8 -10 21 -3 30c8 9 21 11 30 3l50 -44l49 44c9 8 22 6 30 -3zM81 700c-12 0 -22 -10 -22 -22s10 -22 22 -22h162l-208 -627c-6 -18 8 -29 21 -29h228c12 0 22 10 22 22s-10 22 -22 22h-198l208 627 c6 17 -8 29 -22 29h-191z" />
<glyph unicode="&#x17b;" horiz-adv-x="341" d="M180 758c-21 0 -38 17 -38 38s17 38 38 38s38 -17 38 -38s-17 -38 -38 -38zM81 700c-12 0 -22 -10 -22 -22s10 -22 22 -22h162l-208 -627c-6 -18 8 -29 21 -29h228c12 0 22 10 22 22s-10 22 -22 22h-198l208 627c6 17 -8 29 -22 29h-191z" />
<glyph horiz-adv-x="316" d="M286 25c2 -16 -10 -25 -23 -25c-10 0 -19 5 -21 18l-19 129h-129l-19 -129c-2 -13 -11 -18 -21 -18c-13 0 -26 9 -23 25l106 665c2 14 13 20 22 20c10 0 18 -6 21 -20zM100 187h117l-58 390z" />
<glyph horiz-adv-x="353" d="M241 362c44 -13 77 -61 77 -105v-131c0 -70 -58 -126 -129 -126h-102c-12 0 -22 10 -22 22v656c0 12 10 22 22 22h94c68 0 124 -54 124 -121v-119c0 -41 -20 -86 -64 -98zM109 656v-273h80c48 0 72 31 72 77v119c0 43 -36 77 -80 77h-72zM274 126v131c0 49 -34 82 -85 82 h-80v-295h80c47 0 85 37 85 82z" />
<glyph horiz-adv-x="294" d="M217 328h-108v-284h108c12 0 22 -10 22 -22s-10 -22 -22 -22h-130c-12 0 -22 11 -22 23v654c0 12 10 23 22 23h130c12 0 22 -10 22 -22s-10 -22 -22 -22h-108v-284h108c12 0 22 -10 22 -22s-10 -22 -22 -22z" />
<glyph unicode="a" horiz-adv-x="368" d="M109 22c0 -12 -10 -22 -22 -22s-22 10 -22 22v562c0 70 56 126 119 126s119 -56 119 -126v-562c0 -12 -10 -22 -22 -22s-22 10 -22 22v306h-150v-306zM259 372v212c0 47 -33 82 -75 82s-75 -35 -75 -82v-212h150z" />
<glyph unicode="&#xe1;" horiz-adv-x="368" d="M213 849c5 3 9 5 13 5c18 0 32 -23 14 -38l-63 -51c-4 -3 -8 -5 -13 -5c-16 0 -29 21 -13 35zM109 22c0 -12 -10 -22 -22 -22s-22 10 -22 22v562c0 70 56 126 119 126s119 -56 119 -126v-562c0 -12 -10 -22 -22 -22s-22 10 -22 22v306h-150v-306zM259 372v212 c0 47 -33 82 -75 82s-75 -35 -75 -82v-212h150z" />
<glyph unicode="&#x103;" horiz-adv-x="368" d="M240 854c10 0 19 -9 19 -19c0 -45 -30 -75 -75 -75s-75 30 -75 75c0 10 9 19 19 19s19 -9 19 -19c0 -21 16 -35 37 -35s37 14 37 35c0 10 9 19 19 19zM109 22c0 -12 -10 -22 -22 -22s-22 10 -22 22v562c0 70 56 126 119 126s119 -56 119 -126v-562c0 -12 -10 -22 -22 -22 s-22 10 -22 22v306h-150v-306zM259 372v212c0 47 -33 82 -75 82s-75 -35 -75 -82v-212h150z" />
<glyph unicode="&#xe2;" horiz-adv-x="368" d="M263 769c-8 -9 -21 -11 -30 -3l-49 44l-50 -44c-9 -8 -22 -6 -30 3c-7 9 -6 22 3 30l63 51c7 6 19 6 27 0l63 -51c9 -8 10 -21 3 -30zM109 22c0 -12 -10 -22 -22 -22s-22 10 -22 22v562c0 70 56 126 119 126s119 -56 119 -126v-562c0 -12 -10 -22 -22 -22s-22 10 -22 22 v306h-150v-306zM259 372v212c0 47 -33 82 -75 82s-75 -35 -75 -82v-212h150z" />
<glyph unicode="&#xe4;" horiz-adv-x="368" d="M134 772c-19 0 -34 15 -34 34s15 34 34 34s34 -15 34 -34s-15 -34 -34 -34zM234 772c-19 0 -34 15 -34 34s15 34 34 34s34 -15 34 -34s-15 -34 -34 -34zM109 22c0 -12 -10 -22 -22 -22s-22 10 -22 22v562c0 70 56 126 119 126s119 -56 119 -126v-562 c0 -12 -10 -22 -22 -22s-22 10 -22 22v306h-150v-306zM259 372v212c0 47 -33 82 -75 82s-75 -35 -75 -82v-212h150z" />
<glyph unicode="&#xe0;" horiz-adv-x="368" d="M157 849l62 -54c16 -14 3 -35 -13 -35c-5 0 -9 2 -13 5l-63 51c-18 15 -4 38 14 38c4 0 8 -2 13 -5zM109 22c0 -12 -10 -22 -22 -22s-22 10 -22 22v562c0 70 56 126 119 126s119 -56 119 -126v-562c0 -12 -10 -22 -22 -22s-22 10 -22 22v306h-150v-306zM259 372v212 c0 47 -33 82 -75 82s-75 -35 -75 -82v-212h150z" />
<glyph unicode="&#x101;" horiz-adv-x="368" d="M256 828c11 0 20 -9 20 -20s-9 -20 -20 -20h-144c-11 0 -20 9 -20 20s9 20 20 20h144zM109 22c0 -12 -10 -22 -22 -22s-22 10 -22 22v562c0 70 56 126 119 126s119 -56 119 -126v-562c0 -12 -10 -22 -22 -22s-22 10 -22 22v306h-150v-306zM259 372v212 c0 47 -33 82 -75 82s-75 -35 -75 -82v-212h150z" />
<glyph unicode="&#x105;" horiz-adv-x="368" d="M109 22c0 -12 -10 -22 -22 -22s-22 10 -22 22v562c0 70 56 126 119 126s119 -56 119 -126v-562c0 -12 -10 -22 -22 -22s-22 10 -22 22v306h-150v-306zM259 372v212c0 47 -33 82 -75 82s-75 -35 -75 -82v-212h150zM119 30l31 -23c-36 -49 -60 -87 -60 -126 c0 -22 14 -37 35 -37c13 0 20 6 27 15c4 5 9 8 16 8c11 0 20 -9 20 -20c0 -21 -32 -43 -63 -43c-45 0 -75 31 -75 77c0 42 28 89 69 149z" />
<glyph unicode="&#xe5;" horiz-adv-x="368" d="M184 749c-34 0 -59 25 -59 59c0 33 25 58 59 58c33 0 58 -25 58 -58c0 -34 -25 -59 -58 -59zM184 780c15 0 27 12 27 28c0 15 -12 27 -27 27c-16 0 -28 -12 -28 -27c0 -16 12 -28 28 -28zM109 22c0 -12 -10 -22 -22 -22s-22 10 -22 22v562c0 70 56 126 119 126 s119 -56 119 -126v-562c0 -12 -10 -22 -22 -22s-22 10 -22 22v306h-150v-306zM259 372v212c0 47 -33 82 -75 82s-75 -35 -75 -82v-212h150z" />
<glyph unicode="&#xe3;" horiz-adv-x="368" d="M255 850c11 0 20 -9 20 -20c0 -39 -24 -66 -58 -66c-41 0 -47 45 -69 45c-9 0 -15 -10 -15 -25c0 -11 -9 -20 -20 -20s-20 9 -20 20c0 39 24 66 58 66c43 0 49 -45 70 -45c8 0 14 10 14 25c0 11 9 20 20 20zM109 22c0 -12 -10 -22 -22 -22s-22 10 -22 22v562 c0 70 56 126 119 126s119 -56 119 -126v-562c0 -12 -10 -22 -22 -22s-22 10 -22 22v306h-150v-306zM259 372v212c0 47 -33 82 -75 82s-75 -35 -75 -82v-212h150z" />
<glyph unicode="&#xe6;" horiz-adv-x="488" d="M303 166v-87c0 -19 17 -35 36 -35h72c12 0 22 -10 22 -22s-10 -22 -22 -22h-72c-44 0 -80 35 -80 79v249h-150v-306c0 -12 -10 -22 -22 -22s-22 10 -22 22v562c0 70 56 126 119 126c44 0 79 -28 100 -68c22 37 56 58 94 58h33c12 0 22 -10 22 -22s-10 -22 -22 -22h-33 c-42 0 -75 -35 -75 -82v-364h108c12 0 22 -10 22 -22s-10 -22 -22 -22h-108zM109 372h150v212c0 47 -33 82 -75 82s-75 -35 -75 -82v-212z" />
<glyph unicode="b" horiz-adv-x="403" d="M223 495c94 -34 155 -127 155 -242c0 -142 -91 -253 -203 -253h-89c-11 0 -21 10 -21 22v655c0 12 10 23 22 23h72c61 0 112 -53 112 -117c0 -37 -14 -68 -48 -88zM109 509h50c38 0 68 34 68 74s-31 73 -68 73h-50v-147zM175 44c89 0 159 91 159 209s-71 212 -159 212 h-66v-421h66z" />
<glyph unicode="c" horiz-adv-x="363" d="M291 133c12 0 22 -10 22 -22c0 -67 -55 -121 -124 -121c-68 0 -124 54 -124 121v478c0 67 56 121 124 121c69 0 124 -54 124 -121c0 -12 -10 -22 -22 -22s-22 10 -22 22c0 43 -35 77 -80 77c-44 0 -80 -34 -80 -77v-478c0 -43 36 -77 80 -77c45 0 80 34 80 77 c0 12 10 22 22 22z" />
<glyph unicode="&#x107;" horiz-adv-x="363" d="M218 849c5 3 9 5 13 5c18 0 32 -23 14 -38l-63 -51c-4 -3 -8 -5 -13 -5c-16 0 -29 21 -13 35zM291 133c12 0 22 -10 22 -22c0 -67 -55 -121 -124 -121c-68 0 -124 54 -124 121v478c0 67 56 121 124 121c69 0 124 -54 124 -121c0 -12 -10 -22 -22 -22s-22 10 -22 22 c0 43 -35 77 -80 77c-44 0 -80 -34 -80 -77v-478c0 -43 36 -77 80 -77c45 0 80 34 80 77c0 12 10 22 22 22z" />
<glyph unicode="&#x10d;" horiz-adv-x="363" d="M268 846c7 -9 6 -22 -3 -30l-63 -51c-8 -6 -20 -6 -27 0l-63 51c-9 8 -10 21 -3 30c8 9 21 11 30 3l50 -44l49 44c9 8 22 6 30 -3zM291 133c12 0 22 -10 22 -22c0 -67 -55 -121 -124 -121c-68 0 -124 54 -124 121v478c0 67 56 121 124 121c69 0 124 -54 124 -121 c0 -12 -10 -22 -22 -22s-22 10 -22 22c0 43 -35 77 -80 77c-44 0 -80 -34 -80 -77v-478c0 -43 36 -77 80 -77c45 0 80 34 80 77c0 12 10 22 22 22z" />
<glyph unicode="&#xe7;" horiz-adv-x="363" d="M291 133c12 0 22 -10 22 -22c0 -62 -46 -112 -107 -120l-16 -43c34 1 62 -25 62 -67c0 -46 -30 -77 -75 -77c-31 0 -63 22 -63 43c0 11 9 20 20 20c7 0 12 -3 16 -8c7 -9 14 -15 27 -15c21 0 35 15 35 37c0 46 -35 31 -48 31s-20 12 -14 28l19 52c-59 9 -104 59 -104 119 v478c0 67 56 121 124 121c69 0 124 -54 124 -121c0 -12 -10 -22 -22 -22s-22 10 -22 22c0 43 -35 77 -80 77c-44 0 -80 -34 -80 -77v-478c0 -43 36 -77 80 -77c45 0 80 34 80 77c0 12 10 22 22 22z" />
<glyph unicode="&#x10b;" horiz-adv-x="363" d="M189 768c-21 0 -38 17 -38 38s17 38 38 38s38 -17 38 -38s-17 -38 -38 -38zM291 133c12 0 22 -10 22 -22c0 -67 -55 -121 -124 -121c-68 0 -124 54 -124 121v478c0 67 56 121 124 121c69 0 124 -54 124 -121c0 -12 -10 -22 -22 -22s-22 10 -22 22c0 43 -35 77 -80 77 c-44 0 -80 -34 -80 -77v-478c0 -43 36 -77 80 -77c45 0 80 34 80 77c0 12 10 22 22 22z" />
<glyph unicode="d" d="M187 700c68 0 126 -54 126 -126v-448c0 -72 -58 -126 -126 -126h-100c-12 0 -22 10 -22 22v656c0 12 10 22 22 22h100zM269 126v448c0 45 -37 82 -82 82h-78v-612h78c45 0 82 37 82 82z" />
<glyph unicode="&#xf0;" horiz-adv-x="377" d="M186 700c68 0 126 -54 126 -126v-448c0 -72 -58 -126 -126 -126h-99c-12 0 -22 10 -22 22v310h-47c-10 0 -18 8 -18 18s8 18 18 18h47v310c0 12 10 22 22 22h99zM268 126v448c0 45 -37 82 -82 82h-77v-288h75c10 0 18 -8 18 -18s-8 -18 -18 -18h-75v-288h77 c45 0 82 37 82 82z" />
<glyph unicode="&#x10f;" d="M256 836c7 -9 6 -22 -3 -30l-63 -51c-8 -6 -20 -6 -27 0l-63 51c-9 8 -10 21 -3 30c8 9 21 11 30 3l50 -44l49 44c9 8 22 6 30 -3zM187 700c68 0 126 -54 126 -126v-448c0 -72 -58 -126 -126 -126h-100c-12 0 -22 10 -22 22v656c0 12 10 22 22 22h100zM269 126v448 c0 45 -37 82 -82 82h-78v-612h78c45 0 82 37 82 82z" />
<glyph unicode="&#x111;" horiz-adv-x="377" d="M186 700c68 0 126 -54 126 -126v-448c0 -72 -58 -126 -126 -126h-99c-12 0 -22 10 -22 22v310h-47c-10 0 -18 8 -18 18s8 18 18 18h47v310c0 12 10 22 22 22h99zM268 126v448c0 45 -37 82 -82 82h-77v-288h75c10 0 18 -8 18 -18s-8 -18 -18 -18h-75v-288h77 c45 0 82 37 82 82z" />
<glyph unicode="e" horiz-adv-x="294" d="M217 166h-108v-87c0 -19 17 -35 36 -35h72c12 0 22 -10 22 -22s-10 -22 -22 -22h-72c-44 0 -80 35 -80 79v542c0 44 36 79 80 79h72c12 0 22 -10 22 -22s-10 -22 -22 -22h-72c-19 0 -36 -16 -36 -35v-411h108c12 0 22 -10 22 -22s-10 -22 -22 -22z" />
<glyph unicode="&#xe9;" horiz-adv-x="294" d="M138 750c-16 0 -29 21 -13 35l62 54c5 3 9 5 13 5c18 0 32 -23 14 -38l-63 -51c-4 -3 -8 -5 -13 -5zM217 166h-108v-87c0 -19 17 -35 36 -35h72c12 0 22 -10 22 -22s-10 -22 -22 -22h-72c-44 0 -80 35 -80 79v542c0 44 36 79 80 79h72c12 0 22 -10 22 -22 s-10 -22 -22 -22h-72c-19 0 -36 -16 -36 -35v-411h108c12 0 22 -10 22 -22s-10 -22 -22 -22z" />
<glyph unicode="&#x11b;" horiz-adv-x="294" d="M81 806c-9 8 -10 21 -3 30c8 9 21 11 30 3l50 -44l49 44c9 8 22 6 30 -3c7 -9 6 -22 -3 -30l-63 -51c-8 -6 -20 -6 -27 0zM109 621v-411h108c12 0 22 -10 22 -22s-10 -22 -22 -22h-108v-87c0 -19 17 -35 36 -35h72c12 0 22 -10 22 -22s-10 -22 -22 -22h-72 c-44 0 -80 35 -80 79v542c0 44 36 79 80 79h72c12 0 22 -10 22 -22s-10 -22 -22 -22h-72c-19 0 -36 -16 -36 -35z" />
<glyph unicode="&#xea;" horiz-adv-x="294" d="M108 756c-9 -8 -22 -6 -30 3c-7 9 -6 22 3 30l63 51c7 6 19 6 27 0l63 -51c9 -8 10 -21 3 -30c-8 -9 -21 -11 -30 -3l-49 44zM109 621v-411h108c12 0 22 -10 22 -22s-10 -22 -22 -22h-108v-87c0 -19 17 -35 36 -35h72c12 0 22 -10 22 -22s-10 -22 -22 -22h-72 c-44 0 -80 35 -80 79v542c0 44 36 79 80 79h72c12 0 22 -10 22 -22s-10 -22 -22 -22h-72c-19 0 -36 -16 -36 -35z" />
<glyph unicode="&#xeb;" horiz-adv-x="294" d="M108 762c-19 0 -34 15 -34 34s15 34 34 34s34 -15 34 -34s-15 -34 -34 -34zM208 762c-19 0 -34 15 -34 34s15 34 34 34s34 -15 34 -34s-15 -34 -34 -34zM109 621v-411h108c12 0 22 -10 22 -22s-10 -22 -22 -22h-108v-87c0 -19 17 -35 36 -35h72c12 0 22 -10 22 -22 s-10 -22 -22 -22h-72c-44 0 -80 35 -80 79v542c0 44 36 79 80 79h72c12 0 22 -10 22 -22s-10 -22 -22 -22h-72c-19 0 -36 -16 -36 -35z" />
<glyph unicode="&#x117;" horiz-adv-x="294" d="M158 758c-21 0 -38 17 -38 38s17 38 38 38s38 -17 38 -38s-17 -38 -38 -38zM217 166h-108v-87c0 -19 17 -35 36 -35h72c12 0 22 -10 22 -22s-10 -22 -22 -22h-72c-44 0 -80 35 -80 79v542c0 44 36 79 80 79h72c12 0 22 -10 22 -22s-10 -22 -22 -22h-72 c-19 0 -36 -16 -36 -35v-411h108c12 0 22 -10 22 -22s-10 -22 -22 -22z" />
<glyph unicode="&#xe8;" horiz-adv-x="294" d="M104 806c-18 15 -4 38 14 38c4 0 8 -2 13 -5l62 -54c16 -14 3 -35 -13 -35c-5 0 -9 2 -13 5zM217 166h-108v-87c0 -19 17 -35 36 -35h72c12 0 22 -10 22 -22s-10 -22 -22 -22h-72c-44 0 -80 35 -80 79v542c0 44 36 79 80 79h72c12 0 22 -10 22 -22s-10 -22 -22 -22h-72 c-19 0 -36 -16 -36 -35v-411h108c12 0 22 -10 22 -22s-10 -22 -22 -22z" />
<glyph unicode="&#x113;" horiz-adv-x="294" d="M230 818c11 0 20 -9 20 -20s-9 -20 -20 -20h-144c-11 0 -20 9 -20 20s9 20 20 20h144zM109 621v-411h108c12 0 22 -10 22 -22s-10 -22 -22 -22h-108v-87c0 -19 17 -35 36 -35h72c12 0 22 -10 22 -22s-10 -22 -22 -22h-72c-44 0 -80 35 -80 79v542c0 44 36 79 80 79h72 c12 0 22 -10 22 -22s-10 -22 -22 -22h-72c-19 0 -36 -16 -36 -35z" />
<glyph unicode="&#x119;" horiz-adv-x="294" d="M231 -133c11 0 20 -9 20 -20c0 -21 -32 -43 -63 -43c-45 0 -75 31 -75 77c0 41 30 79 69 119h-37c-44 0 -80 35 -80 79v542c0 44 36 79 80 79h72c12 0 22 -10 22 -22s-10 -22 -22 -22h-72c-19 0 -36 -16 -36 -35v-239h108c12 0 22 -10 22 -22s-10 -22 -22 -22h-108v-259 c0 -19 17 -35 36 -35h72c12 0 22 -10 22 -22c0 -5 -2 -10 -5 -14c-42 -43 -81 -82 -81 -127c0 -22 14 -37 35 -37c13 0 20 6 27 15c4 5 9 8 16 8z" />
<glyph unicode="f" horiz-adv-x="340" d="M109 22c0 -12 -10 -22 -22 -22s-22 10 -22 22v599c0 44 36 79 80 79h138c12 0 22 -10 22 -22s-10 -22 -22 -22h-138c-19 0 -36 -16 -36 -35v-239h127c12 0 22 -10 22 -22s-10 -22 -22 -22h-127v-316z" />
<glyph unicode="g" d="M291 372c12 0 22 -10 22 -22v-239c0 -67 -55 -121 -124 -121c-68 0 -124 54 -124 121v478c0 67 56 121 124 121c69 0 124 -54 124 -121c0 -12 -10 -22 -22 -22s-22 10 -22 22c0 43 -35 77 -80 77c-44 0 -80 -34 -80 -77v-478c0 -43 36 -77 80 -77c45 0 80 34 80 77v217 h-61c-12 0 -22 10 -22 22s10 22 22 22h83z" />
<glyph unicode="&#x11f;" d="M186 760c-45 0 -75 30 -75 75c0 10 9 19 19 19s19 -9 19 -19c0 -21 16 -35 37 -35s37 14 37 35c0 10 9 19 19 19s19 -9 19 -19c0 -45 -30 -75 -75 -75zM291 372c12 0 22 -10 22 -22v-239c0 -67 -55 -121 -124 -121c-68 0 -124 54 -124 121v478c0 67 56 121 124 121 c69 0 124 -54 124 -121c0 -12 -10 -22 -22 -22s-22 10 -22 22c0 43 -35 77 -80 77c-44 0 -80 -34 -80 -77v-478c0 -43 36 -77 80 -77c45 0 80 34 80 77v217h-61c-12 0 -22 10 -22 22s10 22 22 22h83z" />
<glyph unicode="&#x123;" d="M291 372c12 0 22 -10 22 -22v-239c0 -67 -55 -121 -124 -121c-68 0 -124 54 -124 121v478c0 67 56 121 124 121c69 0 124 -54 124 -121c0 -12 -10 -22 -22 -22s-22 10 -22 22c0 43 -35 77 -80 77c-44 0 -80 -34 -80 -77v-478c0 -43 36 -77 80 -77c45 0 80 34 80 77v217 h-61c-12 0 -22 10 -22 22s10 22 22 22h83zM185 -60c20 0 33 -13 33 -33c0 -5 -1 -10 -4 -19l-21 -65c-3 -10 -11 -15 -19 -15c-12 0 -23 10 -19 25l11 46c-11 6 -16 17 -16 27c0 20 14 34 35 34z" />
<glyph unicode="&#x121;" d="M186 768c-21 0 -38 17 -38 38s17 38 38 38s38 -17 38 -38s-17 -38 -38 -38zM291 372c12 0 22 -10 22 -22v-239c0 -67 -55 -121 -124 -121c-68 0 -124 54 -124 121v478c0 67 56 121 124 121c69 0 124 -54 124 -121c0 -12 -10 -22 -22 -22s-22 10 -22 22 c0 43 -35 77 -80 77c-44 0 -80 -34 -80 -77v-478c0 -43 36 -77 80 -77c45 0 80 34 80 77v217h-61c-12 0 -22 10 -22 22s10 22 22 22h83z" />
<glyph unicode="h" horiz-adv-x="368" d="M109 372h150v306c0 12 10 22 22 22s22 -10 22 -22v-656c0 -12 -10 -22 -22 -22s-22 10 -22 22v306h-150v-306c0 -12 -10 -22 -22 -22s-22 10 -22 22v656c0 12 10 22 22 22s22 -10 22 -22v-306z" />
<glyph unicode="&#x127;" horiz-adv-x="368" d="M350 577c10 0 18 -8 18 -18s-8 -18 -18 -18h-47v-519c0 -12 -10 -22 -22 -22s-22 10 -22 22v306h-150v-306c0 -12 -10 -22 -22 -22s-22 10 -22 22v519h-47c-10 0 -18 8 -18 18s8 18 18 18h47v101c0 12 10 22 22 22s22 -10 22 -22v-101h150v101c0 12 10 22 22 22 s22 -10 22 -22v-101h47zM259 372v169h-150v-169h150z" />
<glyph unicode="i" horiz-adv-x="174" d="M109 22c0 -12 -10 -22 -22 -22s-22 10 -22 22v656c0 12 10 22 22 22s22 -10 22 -22v-656z" />
<glyph unicode="&#x131;" horiz-adv-x="270" d="M193 44c12 0 22 -10 22 -22s-10 -22 -22 -22c-23 0 -43 9 -58 30c-15 -21 -35 -30 -58 -30c-12 0 -22 10 -22 22s10 22 22 22c22 0 36 19 36 35v542c0 16 -14 35 -36 35c-12 0 -22 10 -22 22s10 22 22 22c23 0 43 -9 58 -30c15 21 35 30 58 30c12 0 22 -10 22 -22 s-10 -22 -22 -22c-22 0 -36 -19 -36 -35v-542c0 -16 14 -35 36 -35z" />
<glyph unicode="&#xed;" horiz-adv-x="270" d="M193 44c12 0 22 -10 22 -22s-10 -22 -22 -22c-23 0 -43 9 -58 30c-15 -21 -35 -30 -58 -30c-12 0 -22 10 -22 22s10 22 22 22c22 0 36 19 36 35v542c0 16 -14 35 -36 35c-12 0 -22 10 -22 22s10 22 22 22c23 0 43 -9 58 -30c15 21 35 30 58 30c12 0 22 -10 22 -22 s-10 -22 -22 -22c-22 0 -36 -19 -36 -35v-542c0 -16 14 -35 36 -35z" />
<glyph unicode="&#xee;" horiz-adv-x="270" d="M214 759c-8 -9 -21 -11 -30 -3l-49 44l-50 -44c-9 -8 -22 -6 -30 3c-7 9 -6 22 3 30l63 51c7 6 19 6 27 0l63 -51c9 -8 10 -21 3 -30zM193 44c12 0 22 -10 22 -22s-10 -22 -22 -22c-23 0 -43 9 -58 30c-15 -21 -35 -30 -58 -30c-12 0 -22 10 -22 22s10 22 22 22 c22 0 36 19 36 35v542c0 16 -14 35 -36 35c-12 0 -22 10 -22 22s10 22 22 22c23 0 43 -9 58 -30c15 21 35 30 58 30c12 0 22 -10 22 -22s-10 -22 -22 -22c-22 0 -36 -19 -36 -35v-542c0 -16 14 -35 36 -35z" />
<glyph unicode="&#xef;" horiz-adv-x="270" d="M85 762c-19 0 -34 15 -34 34s15 34 34 34s34 -15 34 -34s-15 -34 -34 -34zM185 762c-19 0 -34 15 -34 34s15 34 34 34s34 -15 34 -34s-15 -34 -34 -34zM193 44c12 0 22 -10 22 -22s-10 -22 -22 -22c-23 0 -43 9 -58 30c-15 -21 -35 -30 -58 -30c-12 0 -22 10 -22 22 s10 22 22 22c22 0 36 19 36 35v542c0 16 -14 35 -36 35c-12 0 -22 10 -22 22s10 22 22 22c23 0 43 -9 58 -30c15 21 35 30 58 30c12 0 22 -10 22 -22s-10 -22 -22 -22c-22 0 -36 -19 -36 -35v-542c0 -16 14 -35 36 -35z" />
<glyph horiz-adv-x="270" d="M135 758c-21 0 -38 17 -38 38s17 38 38 38s38 -17 38 -38s-17 -38 -38 -38zM193 44c12 0 22 -10 22 -22s-10 -22 -22 -22c-23 0 -43 9 -58 30c-15 -21 -35 -30 -58 -30c-12 0 -22 10 -22 22s10 22 22 22c22 0 36 19 36 35v542c0 16 -14 35 -36 35c-12 0 -22 10 -22 22 s10 22 22 22c23 0 43 -9 58 -30c15 21 35 30 58 30c12 0 22 -10 22 -22s-10 -22 -22 -22c-22 0 -36 -19 -36 -35v-542c0 -16 14 -35 36 -35z" />
<glyph unicode="&#xec;" horiz-adv-x="270" d="M108 839l62 -54c16 -14 3 -35 -13 -35c-5 0 -9 2 -13 5l-63 51c-18 15 -4 38 14 38c4 0 8 -2 13 -5zM193 44c12 0 22 -10 22 -22s-10 -22 -22 -22c-23 0 -43 9 -58 30c-15 -21 -35 -30 -58 -30c-12 0 -22 10 -22 22s10 22 22 22c22 0 36 19 36 35v542c0 16 -14 35 -36 35 c-12 0 -22 10 -22 22s10 22 22 22c23 0 43 -9 58 -30c15 21 35 30 58 30c12 0 22 -10 22 -22s-10 -22 -22 -22c-22 0 -36 -19 -36 -35v-542c0 -16 14 -35 36 -35z" />
<glyph unicode="&#x133;" horiz-adv-x="497" d="M109 22c0 -12 -10 -22 -22 -22s-22 10 -22 22v656c0 12 10 22 22 22s22 -10 22 -22v-656zM410 700c12 0 22 -10 22 -22v-567c0 -67 -56 -121 -124 -121c-69 0 -124 54 -124 121c0 12 10 22 22 22s22 -10 22 -22c0 -43 35 -77 80 -77c44 0 80 34 80 77v567 c0 12 10 22 22 22z" />
<glyph unicode="&#x12b;" horiz-adv-x="174" d="M159 798c11 0 20 -9 20 -20s-9 -20 -20 -20h-144c-11 0 -20 9 -20 20s9 20 20 20h144zM109 22c0 -12 -10 -22 -22 -22s-22 10 -22 22v656c0 12 10 22 22 22s22 -10 22 -22v-656z" />
<glyph unicode="&#x12f;" horiz-adv-x="174" d="M131 -133c11 0 20 -9 20 -20c0 -21 -32 -43 -63 -43c-45 0 -75 31 -75 77c0 39 12 78 52 141v656c0 12 10 22 22 22s22 -10 22 -22v-651c0 -7 -3 -15 -6 -19c-39 -57 -50 -89 -50 -127c0 -22 14 -37 35 -37c13 0 20 6 27 15c4 5 9 8 16 8z" />
<glyph unicode="j" horiz-adv-x="323" d="M236 700c12 0 22 -10 22 -22v-567c0 -67 -56 -121 -124 -121c-69 0 -124 54 -124 121c0 12 10 22 22 22s22 -10 22 -22c0 -43 35 -77 80 -77c44 0 80 34 80 77v567c0 12 10 22 22 22z" />
<glyph unicode="k" horiz-adv-x="366" d="M243 412c46 -6 73 -39 73 -81v-309c0 -12 -10 -22 -22 -22s-22 10 -22 22v309c0 25 -20 45 -45 45h-118v-354c0 -12 -10 -22 -22 -22s-22 10 -22 22v656c0 12 10 22 22 22s22 -10 22 -22v-258h70c22 0 42 20 42 44v120c0 12 10 22 22 22s22 -10 22 -22v-120 c0 -17 -5 -34 -22 -52z" />
<glyph unicode="&#x137;" horiz-adv-x="366" d="M243 412c46 -6 73 -39 73 -81v-309c0 -12 -10 -22 -22 -22s-22 10 -22 22v309c0 25 -20 45 -45 45h-118v-354c0 -12 -10 -22 -22 -22s-22 10 -22 22v656c0 12 10 22 22 22s22 -10 22 -22v-258h70c22 0 42 20 42 44v120c0 12 10 22 22 22s22 -10 22 -22v-120 c0 -17 -5 -34 -22 -52zM214 -112l-21 -65c-3 -10 -11 -15 -19 -15c-12 0 -23 10 -19 25l11 46c-11 6 -16 17 -16 27c0 20 14 34 35 34c20 0 33 -13 33 -33c0 -5 -1 -10 -4 -19z" />
<glyph unicode="l" horiz-adv-x="309" d="M267 0h-122c-44 0 -80 35 -80 79v599c0 12 10 22 22 22s22 -10 22 -22v-599c0 -19 17 -35 36 -35h122c12 0 22 -10 22 -22s-10 -22 -22 -22z" />
<glyph unicode="&#x13a;" horiz-adv-x="309" d="M116 839c5 3 9 5 13 5c18 0 32 -23 14 -38l-63 -51c-4 -3 -8 -5 -13 -5c-16 0 -29 21 -13 35zM267 0h-122c-44 0 -80 35 -80 79v599c0 12 10 22 22 22s22 -10 22 -22v-599c0 -19 17 -35 36 -35h122c12 0 22 -10 22 -22s-10 -22 -22 -22z" />
<glyph unicode="&#x13e;" horiz-adv-x="309" d="M267 0h-122c-44 0 -80 35 -80 79v599c0 12 10 22 22 22s22 -10 22 -22v-599c0 -19 17 -35 36 -35h122c12 0 22 -10 22 -22s-10 -22 -22 -22zM277 648l-21 -65c-3 -10 -11 -15 -19 -15c-12 0 -23 10 -19 25l11 46c-11 6 -16 17 -16 27c0 20 14 34 35 34 c20 0 33 -13 33 -33c0 -5 -1 -10 -4 -19z" />
<glyph unicode="&#x13c;" horiz-adv-x="309" d="M267 0h-122c-44 0 -80 35 -80 79v599c0 12 10 22 22 22s22 -10 22 -22v-599c0 -19 17 -35 36 -35h122c12 0 22 -10 22 -22s-10 -22 -22 -22zM199 -112l-21 -65c-3 -10 -11 -15 -19 -15c-12 0 -23 10 -19 25l11 46c-11 6 -16 17 -16 27c0 20 14 34 35 34 c20 0 33 -13 33 -33c0 -5 -1 -10 -4 -19z" />
<glyph unicode="&#x140;" horiz-adv-x="309" d="M267 0h-122c-44 0 -80 35 -80 79v599c0 12 10 22 22 22s22 -10 22 -22v-599c0 -19 17 -35 36 -35h122c12 0 22 -10 22 -22s-10 -22 -22 -22zM206 335c-19 0 -34 15 -34 34c0 18 15 33 34 33s34 -15 34 -33c0 -19 -15 -34 -34 -34z" />
<glyph unicode="&#x142;" horiz-adv-x="318" d="M276 44c12 0 22 -10 22 -22s-10 -22 -22 -22h-122c-44 0 -80 35 -80 79v185l-47 -27c-9 -5 -20 -2 -25 7s-2 20 7 25l65 38v371c0 12 10 22 22 22s22 -10 22 -22v-346l99 57c9 5 20 2 25 -7s2 -20 -7 -24l-117 -68v-211c0 -19 17 -35 36 -35h122z" />
<glyph unicode="m" horiz-adv-x="386" d="M299 0c-12 0 -22 10 -22 22v519l-62 -195c-4 -14 -13 -18 -22 -18s-18 4 -22 18l-62 195v-519c0 -12 -10 -22 -22 -22s-22 10 -22 22v656c0 12 10 22 22 22c10 0 18 -7 21 -16l85 -268l85 268c3 9 11 16 21 16c12 0 22 -10 22 -22v-656c0 -12 -10 -22 -22 -22z" />
<glyph unicode="n" d="M291 700c12 0 22 -10 22 -22v-656c0 -12 -10 -22 -22 -22c-10 0 -18 6 -21 15l-161 519v-512c0 -12 -10 -22 -22 -22s-22 10 -22 22v656c0 12 10 22 22 22c10 0 18 -6 21 -15l161 -519v512c0 12 10 22 22 22z" />
<glyph unicode="&#x144;" d="M217 839c5 3 9 5 13 5c18 0 32 -23 14 -38l-63 -51c-4 -3 -8 -5 -13 -5c-16 0 -29 21 -13 35zM291 700c12 0 22 -10 22 -22v-656c0 -12 -10 -22 -22 -22c-10 0 -18 6 -21 15l-161 519v-512c0 -12 -10 -22 -22 -22s-22 10 -22 22v656c0 12 10 22 22 22c10 0 18 -6 21 -15 l161 -519v512c0 12 10 22 22 22z" />
<glyph unicode="&#x148;" d="M267 836c7 -9 6 -22 -3 -30l-63 -51c-8 -6 -20 -6 -27 0l-63 51c-9 8 -10 21 -3 30c8 9 21 11 30 3l50 -44l49 44c9 8 22 6 30 -3zM291 700c12 0 22 -10 22 -22v-656c0 -12 -10 -22 -22 -22c-10 0 -18 6 -21 15l-161 519v-512c0 -12 -10 -22 -22 -22s-22 10 -22 22v656 c0 12 10 22 22 22c10 0 18 -6 21 -15l161 -519v512c0 12 10 22 22 22z" />
<glyph unicode="&#x146;" d="M291 700c12 0 22 -10 22 -22v-656c0 -12 -10 -22 -22 -22c-10 0 -18 6 -21 15l-161 519v-512c0 -12 -10 -22 -22 -22s-22 10 -22 22v656c0 12 10 22 22 22c10 0 18 -6 21 -15l161 -519v512c0 12 10 22 22 22zM215 -112l-21 -65c-3 -10 -11 -15 -19 -15 c-12 0 -23 10 -19 25l11 46c-11 6 -16 17 -16 27c0 20 14 34 35 34c20 0 33 -13 33 -33c0 -5 -1 -10 -4 -19z" />
<glyph unicode="&#x14b;" d="M291 700c12 0 22 -10 22 -22v-729c0 -67 -56 -121 -124 -121c-12 0 -22 10 -22 22s10 22 22 22c44 0 80 34 80 77v69l-160 516v-512c0 -12 -10 -22 -22 -22s-22 10 -22 22v656c0 12 10 22 22 22c10 0 18 -6 21 -15l161 -527v520c0 12 10 22 22 22z" />
<glyph unicode="&#xf1;" d="M259 840c11 0 20 -9 20 -20c0 -39 -24 -66 -58 -66c-41 0 -47 45 -69 45c-9 0 -15 -10 -15 -25c0 -11 -9 -20 -20 -20s-20 9 -20 20c0 39 24 66 58 66c43 0 49 -45 70 -45c8 0 14 10 14 25c0 11 9 20 20 20zM291 700c12 0 22 -10 22 -22v-656c0 -12 -10 -22 -22 -22 c-10 0 -18 6 -21 15l-161 519v-512c0 -12 -10 -22 -22 -22s-22 10 -22 22v656c0 12 10 22 22 22c10 0 18 -6 21 -15l161 -519v512c0 12 10 22 22 22z" />
<glyph unicode="o" d="M189 -10c68 0 124 54 124 121v478c0 67 -56 121 -124 121s-124 -54 -124 -121v-478c0 -67 56 -121 124 -121zM189 666c44 0 80 -34 80 -77v-478c0 -43 -36 -77 -80 -77s-80 34 -80 77v478c0 43 36 77 80 77z" />
<glyph unicode="&#xf3;" d="M218 849c5 3 9 5 13 5c18 0 32 -23 14 -38l-63 -51c-4 -3 -8 -5 -13 -5c-16 0 -29 21 -13 35zM189 -10c68 0 124 54 124 121v478c0 67 -56 121 -124 121s-124 -54 -124 -121v-478c0 -67 56 -121 124 -121zM189 666c44 0 80 -34 80 -77v-478c0 -43 -36 -77 -80 -77 s-80 34 -80 77v478c0 43 36 77 80 77z" />
<glyph unicode="&#xf4;" d="M268 769c-8 -9 -21 -11 -30 -3l-49 44l-50 -44c-9 -8 -22 -6 -30 3c-7 9 -6 22 3 30l63 51c7 6 19 6 27 0l63 -51c9 -8 10 -21 3 -30zM189 -10c68 0 124 54 124 121v478c0 67 -56 121 -124 121s-124 -54 -124 -121v-478c0 -67 56 -121 124 -121zM189 666 c44 0 80 -34 80 -77v-478c0 -43 -36 -77 -80 -77s-80 34 -80 77v478c0 43 36 77 80 77z" />
<glyph unicode="&#xf6;" d="M139 772c-19 0 -34 15 -34 34s15 34 34 34s34 -15 34 -34s-15 -34 -34 -34zM239 772c-19 0 -34 15 -34 34s15 34 34 34s34 -15 34 -34s-15 -34 -34 -34zM189 -10c68 0 124 54 124 121v478c0 67 -56 121 -124 121s-124 -54 -124 -121v-478c0 -67 56 -121 124 -121z M189 666c44 0 80 -34 80 -77v-478c0 -43 -36 -77 -80 -77s-80 34 -80 77v478c0 43 36 77 80 77z" />
<glyph unicode="&#xf2;" d="M162 849l62 -54c16 -14 3 -35 -13 -35c-5 0 -9 2 -13 5l-63 51c-18 15 -4 38 14 38c4 0 8 -2 13 -5zM189 -10c68 0 124 54 124 121v478c0 67 -56 121 -124 121s-124 -54 -124 -121v-478c0 -67 56 -121 124 -121zM189 666c44 0 80 -34 80 -77v-478c0 -43 -36 -77 -80 -77 s-80 34 -80 77v478c0 43 36 77 80 77z" />
<glyph unicode="&#x151;" d="M173 847c5 5 10 7 16 7c16 0 30 -19 16 -35l-47 -52c-5 -5 -10 -7 -15 -7c-15 0 -28 17 -16 32zM253 847c5 5 10 7 16 7c16 0 30 -19 16 -35l-47 -52c-5 -5 -10 -7 -15 -7c-15 0 -28 17 -16 32zM189 -10c68 0 124 54 124 121v478c0 67 -56 121 -124 121 s-124 -54 -124 -121v-478c0 -67 56 -121 124 -121zM189 666c44 0 80 -34 80 -77v-478c0 -43 -36 -77 -80 -77s-80 34 -80 77v478c0 43 36 77 80 77z" />
<glyph unicode="&#x14d;" d="M261 828c11 0 20 -9 20 -20s-9 -20 -20 -20h-144c-11 0 -20 9 -20 20s9 20 20 20h144zM189 -10c68 0 124 54 124 121v478c0 67 -56 121 -124 121s-124 -54 -124 -121v-478c0 -67 56 -121 124 -121zM189 666c44 0 80 -34 80 -77v-478c0 -43 -36 -77 -80 -77s-80 34 -80 77 v478c0 43 36 77 80 77z" />
<glyph unicode="&#xf8;" d="M266 684c29 -22 47 -57 47 -95v-478c0 -67 -56 -121 -124 -121c-14 0 -28 2 -41 7l-8 -46c-3 -10 -13 -17 -22 -16c-11 4 -17 12 -15 22l10 58c-29 22 -48 57 -48 96v478c0 67 56 121 124 121c15 0 30 -3 44 -8l8 47c1 9 12 16 20 15c11 -3 17 -12 15 -22zM109 111 c0 -22 4 -39 12 -51l105 602c-10 3 -23 4 -37 4c-44 0 -80 -34 -80 -77v-478zM269 111v478c0 21 -3 37 -11 49l-103 -600c10 -3 21 -4 34 -4c44 0 80 34 80 77z" />
<glyph unicode="&#xf5;" d="M260 850c11 0 20 -9 20 -20c0 -39 -24 -66 -58 -66c-41 0 -47 45 -69 45c-9 0 -15 -10 -15 -25c0 -11 -9 -20 -20 -20s-20 9 -20 20c0 39 24 66 58 66c43 0 49 -45 70 -45c8 0 14 10 14 25c0 11 9 20 20 20zM189 -10c68 0 124 54 124 121v478c0 67 -56 121 -124 121 s-124 -54 -124 -121v-478c0 -67 56 -121 124 -121zM189 666c44 0 80 -34 80 -77v-478c0 -43 -36 -77 -80 -77s-80 34 -80 77v478c0 43 36 77 80 77z" />
<glyph unicode="&#x153;" horiz-adv-x="498" d="M421 338h-108v-212c0 -47 33 -82 75 -82h33c12 0 22 -10 22 -22s-10 -22 -22 -22h-33c-36 0 -74 19 -95 60c-22 -45 -58 -70 -104 -70c-68 0 -124 54 -124 121v478c0 67 56 121 124 121c46 0 84 -25 104 -70c23 41 59 60 95 60h33c12 0 22 -10 22 -22s-10 -22 -22 -22 h-33c-42 0 -75 -35 -75 -82v-192h108c12 0 22 -10 22 -22s-10 -22 -22 -22zM269 111v478c0 43 -36 77 -80 77s-80 -34 -80 -77v-478c0 -43 36 -77 80 -77s80 34 80 77z" />
<glyph unicode="p" horiz-adv-x="380" d="M221 700c62 0 114 -53 114 -117s-52 -117 -114 -117h-112v-444c0 -12 -10 -22 -22 -22s-22 10 -22 22v656c0 12 10 22 22 22h134zM221 510c38 0 70 33 70 73s-32 73 -70 73h-112v-146h112z" />
<glyph unicode="&#xfe;" horiz-adv-x="377" d="M186 700c68 0 126 -54 126 -126v-448c0 -72 -58 -126 -126 -126h-99c-12 0 -22 10 -22 22v310h-47c-10 0 -18 8 -18 18s8 18 18 18h47v310c0 12 10 22 22 22h99zM268 126v448c0 45 -37 82 -82 82h-77v-288h75c10 0 18 -8 18 -18s-8 -18 -18 -18h-75v-288h77 c45 0 82 37 82 82z" />
<glyph unicode="q" d="M320 9c7 -7 7 -19 0 -26s-18 -7 -26 0l-31 31c-21 -15 -46 -24 -74 -24c-68 0 -124 54 -124 121v478c0 67 56 121 124 121s124 -54 124 -121v-478c0 -27 -9 -51 -24 -71zM189 34c16 0 30 4 43 12l-32 32c-7 7 -7 19 0 26s18 7 25 0l33 -33c7 12 11 25 11 40v478 c0 43 -36 77 -80 77s-80 -34 -80 -77v-478c0 -43 36 -77 80 -77z" />
<glyph unicode="r" horiz-adv-x="400" d="M109 22c0 -12 -10 -22 -22 -22s-22 10 -22 22v656c0 12 10 22 22 22h134c62 0 114 -53 114 -117c0 -38 -18 -72 -52 -94c34 -20 52 -53 52 -91v-376c0 -12 -10 -22 -22 -22s-22 10 -22 22v376c-1 38 -30 68 -70 68h-112v-444zM109 656v-146h112c38 0 70 33 70 73 s-32 73 -70 73h-112z" />
<glyph unicode="&#x155;" horiz-adv-x="400" d="M223 839c5 3 9 5 13 5c18 0 32 -23 14 -38l-63 -51c-4 -3 -8 -5 -13 -5c-16 0 -29 21 -13 35zM109 22c0 -12 -10 -22 -22 -22s-22 10 -22 22v656c0 12 10 22 22 22h134c62 0 114 -53 114 -117c0 -38 -18 -72 -52 -94c34 -20 52 -53 52 -91v-376c0 -12 -10 -22 -22 -22 s-22 10 -22 22v376c-1 38 -30 68 -70 68h-112v-444zM109 656v-146h112c38 0 70 33 70 73s-32 73 -70 73h-112z" />
<glyph unicode="&#x159;" horiz-adv-x="400" d="M273 836c7 -9 6 -22 -3 -30l-63 -51c-8 -6 -20 -6 -27 0l-63 51c-9 8 -10 21 -3 30c8 9 21 11 30 3l50 -44l49 44c9 8 22 6 30 -3zM109 22c0 -12 -10 -22 -22 -22s-22 10 -22 22v656c0 12 10 22 22 22h134c62 0 114 -53 114 -117c0 -38 -18 -72 -52 -94 c34 -20 52 -53 52 -91v-376c0 -12 -10 -22 -22 -22s-22 10 -22 22v376c-1 38 -30 68 -70 68h-112v-444zM109 656v-146h112c38 0 70 33 70 73s-32 73 -70 73h-112z" />
<glyph unicode="&#x157;" horiz-adv-x="400" d="M109 22c0 -12 -10 -22 -22 -22s-22 10 -22 22v656c0 12 10 22 22 22h134c62 0 114 -53 114 -117c0 -38 -18 -72 -52 -94c34 -20 52 -53 52 -91v-376c0 -12 -10 -22 -22 -22s-22 10 -22 22v376c-1 38 -30 68 -70 68h-112v-444zM109 656v-146h112c38 0 70 33 70 73 s-32 73 -70 73h-112zM225 -112l-21 -65c-3 -10 -11 -15 -19 -15c-12 0 -23 10 -19 25l11 46c-11 6 -16 17 -16 27c0 20 14 34 35 34c20 0 33 -13 33 -33c0 -5 -1 -10 -4 -19z" />
<glyph unicode="s" horiz-adv-x="328" d="M293 285v-169c0 -70 -58 -126 -129 -126c-72 0 -129 56 -129 126c0 12 10 22 22 22s22 -10 22 -22c0 -46 37 -82 85 -82c47 0 85 37 85 82v169c0 44 -38 88 -88 103c-75 23 -121 79 -121 140v61c0 67 56 121 124 121c69 0 124 -54 124 -121c0 -12 -10 -22 -22 -22 s-22 10 -22 22c0 43 -35 77 -80 77c-44 0 -80 -34 -80 -77v-61c0 -43 36 -82 90 -98c71 -23 119 -81 119 -145z" />
<glyph unicode="&#x15b;" horiz-adv-x="328" d="M193 849c5 3 9 5 13 5c18 0 32 -23 14 -38l-63 -51c-4 -3 -8 -5 -13 -5c-16 0 -29 21 -13 35zM293 285v-169c0 -70 -58 -126 -129 -126c-72 0 -129 56 -129 126c0 12 10 22 22 22s22 -10 22 -22c0 -46 37 -82 85 -82c47 0 85 37 85 82v169c0 44 -38 88 -88 103 c-75 23 -121 79 -121 140v61c0 67 56 121 124 121c69 0 124 -54 124 -121c0 -12 -10 -22 -22 -22s-22 10 -22 22c0 43 -35 77 -80 77c-44 0 -80 -34 -80 -77v-61c0 -43 36 -82 90 -98c71 -23 119 -81 119 -145z" />
<glyph unicode="&#x161;" horiz-adv-x="328" d="M243 846c7 -9 6 -22 -3 -30l-63 -51c-8 -6 -20 -6 -27 0l-63 51c-9 8 -10 21 -3 30c8 9 21 11 30 3l50 -44l49 44c9 8 22 6 30 -3zM293 285v-169c0 -70 -58 -126 -129 -126c-72 0 -129 56 -129 126c0 12 10 22 22 22s22 -10 22 -22c0 -46 37 -82 85 -82c47 0 85 37 85 82 v169c0 44 -38 88 -88 103c-75 23 -121 79 -121 140v61c0 67 56 121 124 121c69 0 124 -54 124 -121c0 -12 -10 -22 -22 -22s-22 10 -22 22c0 43 -35 77 -80 77c-44 0 -80 -34 -80 -77v-61c0 -43 36 -82 90 -98c71 -23 119 -81 119 -145z" />
<glyph unicode="&#x15f;" horiz-adv-x="328" d="M174 430c71 -23 119 -81 119 -145v-169c0 -64 -48 -116 -110 -125l-16 -43c34 1 62 -25 62 -67c0 -46 -30 -77 -75 -77c-31 0 -63 22 -63 43c0 11 9 20 20 20c7 0 12 -3 16 -8c7 -9 14 -15 27 -15c21 0 35 15 35 37c0 46 -35 31 -48 31s-20 12 -14 28l19 51 c-63 9 -111 61 -111 125c0 12 10 22 22 22s22 -10 22 -22c0 -46 37 -82 85 -82c47 0 85 37 85 82v169c0 44 -38 88 -88 103c-75 23 -121 79 -121 140v61c0 67 56 121 124 121c69 0 124 -54 124 -121c0 -12 -10 -22 -22 -22s-22 10 -22 22c0 43 -35 77 -80 77 c-44 0 -80 -34 -80 -77v-61c0 -43 36 -82 90 -98z" />
<glyph unicode="&#x219;" horiz-adv-x="328" d="M293 285v-169c0 -70 -58 -126 -129 -126c-72 0 -129 56 -129 126c0 12 10 22 22 22s22 -10 22 -22c0 -46 37 -82 85 -82c47 0 85 37 85 82v169c0 44 -38 88 -88 103c-75 23 -121 79 -121 140v61c0 67 56 121 124 121c69 0 124 -54 124 -121c0 -12 -10 -22 -22 -22 s-22 10 -22 22c0 43 -35 77 -80 77c-44 0 -80 -34 -80 -77v-61c0 -43 36 -82 90 -98c71 -23 119 -81 119 -145zM191 -112l-21 -65c-3 -10 -11 -15 -19 -15c-12 0 -23 10 -19 25l11 46c-11 6 -16 17 -16 27c0 20 14 34 35 34c20 0 33 -13 33 -33c0 -5 -1 -10 -4 -19z" />
<glyph unicode="&#xdf;" horiz-adv-x="330" d="M216 390c44 -13 77 -61 77 -105v-159c0 -70 -58 -126 -129 -126h-18c-12 0 -22 10 -22 22s10 22 22 22h18c47 0 85 37 85 82v159c0 49 -34 82 -85 82h-18c-12 0 -22 10 -22 22s10 22 22 22h18c48 0 80 31 80 77v101c0 43 -36 77 -80 77c-45 0 -80 -34 -80 -77v-567 c0 -12 -10 -22 -22 -22s-22 10 -22 22v567c0 67 55 121 124 121c68 0 124 -54 124 -121v-101c0 -41 -28 -86 -72 -98z" />
<glyph unicode="t" horiz-adv-x="302" d="M255 700c12 0 22 -10 22 -22s-10 -22 -22 -22h-82v-634c0 -12 -10 -22 -22 -22s-22 10 -22 22v634h-82c-12 0 -22 10 -22 22s10 22 22 22h208z" />
<glyph unicode="&#x167;" horiz-adv-x="302" d="M255 700c12 0 22 -10 22 -22s-10 -22 -22 -22h-82v-218h57c10 0 18 -8 18 -18s-8 -18 -18 -18h-57v-380c0 -12 -10 -22 -22 -22s-22 10 -22 22v380h-57c-10 0 -18 8 -18 18s8 18 18 18h57v218h-82c-12 0 -22 10 -22 22s10 22 22 22h208z" />
<glyph unicode="&#x165;" horiz-adv-x="302" d="M230 836c7 -9 6 -22 -3 -30l-63 -51c-8 -6 -20 -6 -27 0l-63 51c-9 8 -10 21 -3 30c8 9 21 11 30 3l50 -44l49 44c9 8 22 6 30 -3zM255 700c12 0 22 -10 22 -22s-10 -22 -22 -22h-82v-634c0 -12 -10 -22 -22 -22s-22 10 -22 22v634h-82c-12 0 -22 10 -22 22s10 22 22 22 h208z" />
<glyph unicode="&#x163;" horiz-adv-x="302" d="M255 700c12 0 22 -10 22 -22s-10 -22 -22 -22h-82v-634c0 -12 -10 -22 -22 -22s-22 10 -22 22v634h-82c-12 0 -22 10 -22 22s10 22 22 22h208zM176 -112l-21 -65c-3 -10 -11 -15 -19 -15c-12 0 -23 10 -19 25l11 46c-11 6 -16 17 -16 27c0 20 14 34 35 34 c20 0 33 -13 33 -33c0 -5 -1 -10 -4 -19z" />
<glyph unicode="&#x21b;" horiz-adv-x="302" d="M255 700c12 0 22 -10 22 -22s-10 -22 -22 -22h-82v-634c0 -12 -10 -22 -22 -22s-22 10 -22 22v634h-82c-12 0 -22 10 -22 22s10 22 22 22h208zM176 -112l-21 -65c-3 -10 -11 -15 -19 -15c-12 0 -23 10 -19 25l11 46c-11 6 -16 17 -16 27c0 20 14 34 35 34 c20 0 33 -13 33 -33c0 -5 -1 -10 -4 -19z" />
<glyph unicode="u" horiz-adv-x="368" d="M109 116c0 -49 30 -82 75 -82s75 33 75 82v562c0 12 10 22 22 22s22 -10 22 -22v-562c0 -76 -48 -126 -119 -126s-119 50 -119 126v562c0 12 10 22 22 22s22 -10 22 -22v-562z" />
<glyph unicode="&#xfa;" horiz-adv-x="368" d="M213 839c5 3 9 5 13 5c18 0 32 -23 14 -38l-63 -51c-4 -3 -8 -5 -13 -5c-16 0 -29 21 -13 35zM109 116c0 -49 30 -82 75 -82s75 33 75 82v562c0 12 10 22 22 22s22 -10 22 -22v-562c0 -76 -48 -126 -119 -126s-119 50 -119 126v562c0 12 10 22 22 22s22 -10 22 -22v-562z " />
<glyph unicode="&#xfb;" horiz-adv-x="368" d="M263 759c-8 -9 -21 -11 -30 -3l-49 44l-50 -44c-9 -8 -22 -6 -30 3c-7 9 -6 22 3 30l63 51c7 6 19 6 27 0l63 -51c9 -8 10 -21 3 -30zM109 116c0 -49 30 -82 75 -82s75 33 75 82v562c0 12 10 22 22 22s22 -10 22 -22v-562c0 -76 -48 -126 -119 -126s-119 50 -119 126v562 c0 12 10 22 22 22s22 -10 22 -22v-562z" />
<glyph unicode="&#xfc;" horiz-adv-x="368" d="M134 762c-19 0 -34 15 -34 34s15 34 34 34s34 -15 34 -34s-15 -34 -34 -34zM234 762c-19 0 -34 15 -34 34s15 34 34 34s34 -15 34 -34s-15 -34 -34 -34zM109 116c0 -49 30 -82 75 -82s75 33 75 82v562c0 12 10 22 22 22s22 -10 22 -22v-562c0 -76 -48 -126 -119 -126 s-119 50 -119 126v562c0 12 10 22 22 22s22 -10 22 -22v-562z" />
<glyph unicode="&#xf9;" horiz-adv-x="368" d="M157 839l62 -54c16 -14 3 -35 -13 -35c-5 0 -9 2 -13 5l-63 51c-18 15 -4 38 14 38c4 0 8 -2 13 -5zM109 116c0 -49 30 -82 75 -82s75 33 75 82v562c0 12 10 22 22 22s22 -10 22 -22v-562c0 -76 -48 -126 -119 -126s-119 50 -119 126v562c0 12 10 22 22 22s22 -10 22 -22 v-562z" />
<glyph unicode="&#x171;" horiz-adv-x="368" d="M168 837c5 5 10 7 16 7c16 0 30 -19 16 -35l-47 -52c-5 -5 -10 -7 -15 -7c-15 0 -28 17 -16 32zM248 837c5 5 10 7 16 7c16 0 30 -19 16 -35l-47 -52c-5 -5 -10 -7 -15 -7c-15 0 -28 17 -16 32zM109 116c0 -49 30 -82 75 -82s75 33 75 82v562c0 12 10 22 22 22 s22 -10 22 -22v-562c0 -76 -48 -126 -119 -126s-119 50 -119 126v562c0 12 10 22 22 22s22 -10 22 -22v-562z" />
<glyph unicode="&#x16b;" horiz-adv-x="368" d="M256 818c11 0 20 -9 20 -20s-9 -20 -20 -20h-144c-11 0 -20 9 -20 20s9 20 20 20h144zM109 116c0 -49 30 -82 75 -82s75 33 75 82v562c0 12 10 22 22 22s22 -10 22 -22v-562c0 -76 -48 -126 -119 -126s-119 50 -119 126v562c0 12 10 22 22 22s22 -10 22 -22v-562z" />
<glyph unicode="&#x173;" horiz-adv-x="368" d="M303 116c0 -29 -9 -56 -25 -77c-60 -81 -84 -119 -84 -158c0 -22 14 -37 35 -37c13 0 20 6 27 15c4 5 9 8 16 8c11 0 20 -9 20 -20c0 -21 -32 -43 -63 -43c-45 0 -75 31 -75 77c0 29 8 60 48 110c-5 -1 -11 -1 -18 -1c-71 0 -119 50 -119 126v562c0 12 10 22 22 22 s22 -10 22 -22v-562c0 -49 30 -82 75 -82c42 0 75 35 75 82v562c0 12 10 22 22 22s22 -10 22 -22v-562z" />
<glyph unicode="&#x16f;" horiz-adv-x="368" d="M184 739c-34 0 -59 25 -59 59c0 33 25 58 59 58c33 0 58 -25 58 -58c0 -34 -25 -59 -58 -59zM184 770c15 0 27 12 27 28c0 15 -12 27 -27 27c-16 0 -28 -12 -28 -27c0 -16 12 -28 28 -28zM109 116c0 -49 30 -82 75 -82s75 33 75 82v562c0 12 10 22 22 22s22 -10 22 -22 v-562c0 -76 -48 -126 -119 -126s-119 50 -119 126v562c0 12 10 22 22 22s22 -10 22 -22v-562z" />
<glyph unicode="v" horiz-adv-x="356" d="M279 700c12 0 22 -10 22 -22v-459c0 -7 -1 -13 -4 -18l-100 -190c-4 -7 -11 -11 -19 -11s-15 4 -19 11l-100 190c-3 5 -4 11 -4 18v459c0 12 10 22 22 22s22 -10 22 -22v-459l79 -151l79 151v459c0 12 10 22 22 22z" />
<glyph unicode="w" horiz-adv-x="386" d="M299 700c12 0 22 -10 22 -22v-656c0 -12 -10 -22 -22 -22c-10 0 -18 7 -21 16l-85 268l-85 -268c-3 -9 -11 -16 -21 -16c-12 0 -22 10 -22 22v656c0 12 10 22 22 22s22 -10 22 -22v-519l62 195c4 14 13 18 22 18s18 -4 22 -18l62 -195v519c0 12 10 22 22 22z" />
<glyph unicode="&#x1e83;" horiz-adv-x="386" d="M222 839c5 3 9 5 13 5c18 0 32 -23 14 -38l-63 -51c-4 -3 -8 -5 -13 -5c-16 0 -29 21 -13 35zM299 700c12 0 22 -10 22 -22v-656c0 -12 -10 -22 -22 -22c-10 0 -18 7 -21 16l-85 268l-85 -268c-3 -9 -11 -16 -21 -16c-12 0 -22 10 -22 22v656c0 12 10 22 22 22 s22 -10 22 -22v-519l62 195c4 14 13 18 22 18s18 -4 22 -18l62 -195v519c0 12 10 22 22 22z" />
<glyph unicode="&#x175;" horiz-adv-x="386" d="M272 759c-8 -9 -21 -11 -30 -3l-49 44l-50 -44c-9 -8 -22 -6 -30 3c-7 9 -6 22 3 30l63 51c7 6 19 6 27 0l63 -51c9 -8 10 -21 3 -30zM299 700c12 0 22 -10 22 -22v-656c0 -12 -10 -22 -22 -22c-10 0 -18 7 -21 16l-85 268l-85 -268c-3 -9 -11 -16 -21 -16 c-12 0 -22 10 -22 22v656c0 12 10 22 22 22s22 -10 22 -22v-519l62 195c4 14 13 18 22 18s18 -4 22 -18l62 -195v519c0 12 10 22 22 22z" />
<glyph unicode="&#x1e85;" horiz-adv-x="386" d="M143 762c-19 0 -34 15 -34 34s15 34 34 34s34 -15 34 -34s-15 -34 -34 -34zM243 762c-19 0 -34 15 -34 34s15 34 34 34s34 -15 34 -34s-15 -34 -34 -34zM299 700c12 0 22 -10 22 -22v-656c0 -12 -10 -22 -22 -22c-10 0 -18 7 -21 16l-85 268l-85 -268 c-3 -9 -11 -16 -21 -16c-12 0 -22 10 -22 22v656c0 12 10 22 22 22s22 -10 22 -22v-519l62 195c4 14 13 18 22 18s18 -4 22 -18l62 -195v519c0 12 10 22 22 22z" />
<glyph unicode="&#x1e81;" horiz-adv-x="386" d="M166 839l62 -54c16 -14 3 -35 -13 -35c-5 0 -9 2 -13 5l-63 51c-18 15 -4 38 14 38c4 0 8 -2 13 -5zM299 700c12 0 22 -10 22 -22v-656c0 -12 -10 -22 -22 -22c-10 0 -18 7 -21 16l-85 268l-85 -268c-3 -9 -11 -16 -21 -16c-12 0 -22 10 -22 22v656c0 12 10 22 22 22 s22 -10 22 -22v-519l62 195c4 14 13 18 22 18s18 -4 22 -18l62 -195v519c0 12 10 22 22 22z" />
<glyph unicode="x" horiz-adv-x="347" d="M311 29c6 -18 -8 -29 -21 -29c-9 0 -18 5 -21 15l-95 277l-96 -277c-3 -10 -12 -15 -21 -15c-13 0 -27 11 -21 29l114 331l-107 311c-6 17 8 29 22 29c8 0 16 -4 20 -15l89 -257l88 257c4 11 12 15 20 15c14 0 28 -12 22 -29l-107 -311z" />
<glyph unicode="y" horiz-adv-x="324" d="M271 700c14 0 28 -12 22 -29l-108 -313v-336c0 -12 -10 -22 -22 -22s-22 10 -22 22v336l-109 313c-6 17 8 29 22 29c8 0 16 -4 20 -15l89 -257l88 257c4 11 12 15 20 15z" />
<glyph unicode="&#xfd;" horiz-adv-x="324" d="M192 839c5 3 9 5 13 5c18 0 32 -23 14 -38l-63 -51c-4 -3 -8 -5 -13 -5c-16 0 -29 21 -13 35zM271 700c14 0 28 -12 22 -29l-108 -313v-336c0 -12 -10 -22 -22 -22s-22 10 -22 22v336l-109 313c-6 17 8 29 22 29c8 0 16 -4 20 -15l89 -257l88 257c4 11 12 15 20 15z" />
<glyph unicode="&#x177;" horiz-adv-x="324" d="M242 759c-8 -9 -21 -11 -30 -3l-49 44l-50 -44c-9 -8 -22 -6 -30 3c-7 9 -6 22 3 30l63 51c7 6 19 6 27 0l63 -51c9 -8 10 -21 3 -30zM271 700c14 0 28 -12 22 -29l-108 -313v-336c0 -12 -10 -22 -22 -22s-22 10 -22 22v336l-109 313c-6 17 8 29 22 29c8 0 16 -4 20 -15 l89 -257l88 257c4 11 12 15 20 15z" />
<glyph unicode="&#xff;" horiz-adv-x="324" d="M113 762c-19 0 -34 15 -34 34s15 34 34 34s34 -15 34 -34s-15 -34 -34 -34zM213 762c-19 0 -34 15 -34 34s15 34 34 34s34 -15 34 -34s-15 -34 -34 -34zM271 700c14 0 28 -12 22 -29l-108 -313v-336c0 -12 -10 -22 -22 -22s-22 10 -22 22v336l-109 313c-6 17 8 29 22 29 c8 0 16 -4 20 -15l89 -257l88 257c4 11 12 15 20 15z" />
<glyph unicode="&#x1ef3;" horiz-adv-x="324" d="M136 839l62 -54c16 -14 3 -35 -13 -35c-5 0 -9 2 -13 5l-63 51c-18 15 -4 38 14 38c4 0 8 -2 13 -5zM271 700c14 0 28 -12 22 -29l-108 -313v-336c0 -12 -10 -22 -22 -22s-22 10 -22 22v336l-109 313c-6 17 8 29 22 29c8 0 16 -4 20 -15l89 -257l88 257c4 11 12 15 20 15 z" />
<glyph unicode="z" horiz-adv-x="341" d="M81 700c-12 0 -22 -10 -22 -22s10 -22 22 -22h162l-208 -627c-6 -18 8 -29 21 -29h228c12 0 22 10 22 22s-10 22 -22 22h-198l208 627c6 17 -8 29 -22 29h-191z" />
<glyph unicode="&#x17a;" horiz-adv-x="341" d="M209 839c5 3 9 5 13 5c18 0 32 -23 14 -38l-63 -51c-4 -3 -8 -5 -13 -5c-16 0 -29 21 -13 35zM81 700c-12 0 -22 -10 -22 -22s10 -22 22 -22h162l-208 -627c-6 -18 8 -29 21 -29h228c12 0 22 10 22 22s-10 22 -22 22h-198l208 627c6 17 -8 29 -22 29h-191z" />
<glyph unicode="&#x17e;" horiz-adv-x="341" d="M259 836c7 -9 6 -22 -3 -30l-63 -51c-8 -6 -20 -6 -27 0l-63 51c-9 8 -10 21 -3 30c8 9 21 11 30 3l50 -44l49 44c9 8 22 6 30 -3zM81 700c-12 0 -22 -10 -22 -22s10 -22 22 -22h162l-208 -627c-6 -18 8 -29 21 -29h228c12 0 22 10 22 22s-10 22 -22 22h-198l208 627 c6 17 -8 29 -22 29h-191z" />
<glyph unicode="&#x17c;" horiz-adv-x="341" d="M180 758c-21 0 -38 17 -38 38s17 38 38 38s38 -17 38 -38s-17 -38 -38 -38zM81 700c-12 0 -22 -10 -22 -22s10 -22 22 -22h162l-208 -627c-6 -18 8 -29 21 -29h228c12 0 22 10 22 22s-10 22 -22 22h-198l208 627c6 17 -8 29 -22 29h-191z" />
<glyph unicode="&#x410;" horiz-adv-x="368" d="M109 22c0 -12 -10 -22 -22 -22s-22 10 -22 22v562c0 70 56 126 119 126s119 -56 119 -126v-562c0 -12 -10 -22 -22 -22s-22 10 -22 22v306h-150v-306zM259 372v212c0 47 -33 82 -75 82s-75 -35 -75 -82v-212h150z" />
<glyph unicode="&#x411;" horiz-adv-x="383" d="M145 506c112 0 203 -111 203 -253s-91 -253 -203 -253h-59c-11 0 -21 10 -21 22v655c0 12 10 23 22 23h171c12 0 22 -10 22 -22s-10 -22 -22 -22h-149v-150h36zM145 44c89 0 159 91 159 209s-70 209 -159 209h-36v-418h36z" />
<glyph unicode="&#x412;" horiz-adv-x="403" d="M223 495c94 -34 155 -127 155 -242c0 -142 -91 -253 -203 -253h-89c-11 0 -21 10 -21 22v655c0 12 10 23 22 23h72c61 0 112 -53 112 -117c0 -37 -14 -68 -48 -88zM109 509h50c38 0 68 34 68 74s-31 73 -68 73h-50v-147zM175 44c89 0 159 91 159 209s-71 212 -159 212 h-66v-421h66z" />
<glyph unicode="&#x413;" horiz-adv-x="342" d="M285 700c12 0 22 -10 22 -22s-10 -22 -22 -22h-176v-634c0 -12 -10 -22 -22 -22s-22 10 -22 22v655c0 12 10 23 22 23h198z" />
<glyph unicode="&#x414;" horiz-adv-x="449" d="M397 44c12 0 22 -10 22 -22v-129c0 -11 -9 -20 -20 -20s-20 9 -20 20v107h-309v-107c0 -11 -9 -20 -20 -20s-20 9 -20 20v129c0 12 10 22 22 22h25l126 648c2 12 12 18 22 18s20 -6 22 -18l126 -648h24zM225 596l-104 -552h207z" />
<glyph unicode="&#x415;" horiz-adv-x="294" d="M217 166h-108v-87c0 -19 17 -35 36 -35h72c12 0 22 -10 22 -22s-10 -22 -22 -22h-72c-44 0 -80 35 -80 79v542c0 44 36 79 80 79h72c12 0 22 -10 22 -22s-10 -22 -22 -22h-72c-19 0 -36 -16 -36 -35v-411h108c12 0 22 -10 22 -22s-10 -22 -22 -22z" />
<glyph unicode="&#x401;" horiz-adv-x="294" d="M108 762c-19 0 -34 15 -34 34s15 34 34 34s34 -15 34 -34s-15 -34 -34 -34zM208 762c-19 0 -34 15 -34 34s15 34 34 34s34 -15 34 -34s-15 -34 -34 -34zM109 621v-411h108c12 0 22 -10 22 -22s-10 -22 -22 -22h-108v-87c0 -19 17 -35 36 -35h72c12 0 22 -10 22 -22 s-10 -22 -22 -22h-72c-44 0 -80 35 -80 79v542c0 44 36 79 80 79h72c12 0 22 -10 22 -22s-10 -22 -22 -22h-72c-19 0 -36 -16 -36 -35z" />
<glyph unicode="&#x416;" horiz-adv-x="498" d="M375 412c46 -6 73 -39 73 -81v-309c0 -12 -10 -22 -22 -22s-22 10 -22 22v309c0 25 -20 45 -45 45h-88v-354c0 -12 -10 -22 -22 -22s-22 10 -22 22v354h-88c-25 0 -45 -20 -45 -45v-309c0 -12 -10 -22 -22 -22s-22 10 -22 22v309c0 42 27 75 73 81c-17 18 -22 35 -22 52 v180c0 12 10 22 22 22s22 -10 22 -22v-180c0 -24 20 -44 42 -44h40v258c0 12 10 22 22 22s22 -10 22 -22v-258h40c22 0 42 20 42 44v180c0 12 10 22 22 22s22 -10 22 -22v-180c0 -17 -5 -34 -22 -52z" />
<glyph unicode="&#x417;" horiz-adv-x="323" d="M211 489c44 -13 72 -61 72 -105v-268c0 -70 -53 -126 -124 -126c-72 0 -124 56 -124 126c0 12 10 22 22 22s22 -10 22 -22c0 -46 32 -82 80 -82c47 0 80 37 80 82v268c0 49 -29 82 -80 82h-53c-12 0 -22 10 -22 22s10 22 22 22h53c48 0 80 30 80 79c0 43 -36 77 -80 77 c-45 0 -80 -34 -80 -77c0 -12 -10 -22 -22 -22s-22 10 -22 22c0 67 55 121 124 121c68 0 124 -54 124 -121c0 -47 -31 -89 -72 -100z" />
<glyph unicode="&#x418;" d="M87 700c12 0 22 -10 22 -22v-512l161 519c3 9 11 15 21 15c12 0 22 -10 22 -22v-656c0 -12 -10 -22 -22 -22s-22 10 -22 22v512l-161 -519c-3 -9 -11 -15 -21 -15c-12 0 -22 10 -22 22v656c0 12 10 22 22 22z" />
<glyph unicode="&#x419;" d="M265 821c0 -43 -30 -71 -75 -71s-75 28 -75 71c0 14 8 23 21 23s21 -9 21 -23c0 -21 13 -35 33 -35s33 14 33 35c0 14 8 23 21 23s21 -9 21 -23zM87 700c12 0 22 -10 22 -22v-512l161 519c3 9 11 15 21 15c12 0 22 -10 22 -22v-656c0 -12 -10 -22 -22 -22s-22 10 -22 22 v512l-161 -519c-3 -9 -11 -15 -21 -15c-12 0 -22 10 -22 22v656c0 12 10 22 22 22z" />
<glyph unicode="&#x41a;" horiz-adv-x="366" d="M243 412c46 -6 73 -39 73 -81v-309c0 -12 -10 -22 -22 -22s-22 10 -22 22v309c0 25 -20 45 -45 45h-118v-354c0 -12 -10 -22 -22 -22s-22 10 -22 22v656c0 12 10 22 22 22s22 -10 22 -22v-258h70c22 0 42 20 42 44v120c0 12 10 22 22 22s22 -10 22 -22v-120 c0 -17 -5 -34 -22 -52z" />
<glyph unicode="&#x41b;" horiz-adv-x="316" d="M286 25c2 -16 -10 -25 -23 -25c-10 0 -19 5 -21 18l-83 559l-84 -559c-2 -13 -11 -18 -21 -18c-13 0 -26 9 -23 25l106 665c2 14 13 20 22 20c10 0 18 -6 21 -20z" />
<glyph unicode="&#x41c;" horiz-adv-x="386" d="M299 0c-12 0 -22 10 -22 22v519l-62 -195c-4 -14 -13 -18 -22 -18s-18 4 -22 18l-62 195v-519c0 -12 -10 -22 -22 -22s-22 10 -22 22v656c0 12 10 22 22 22c10 0 18 -7 21 -16l85 -268l85 268c3 9 11 16 21 16c12 0 22 -10 22 -22v-656c0 -12 -10 -22 -22 -22z" />
<glyph unicode="&#x41d;" horiz-adv-x="368" d="M109 372h150v306c0 12 10 22 22 22s22 -10 22 -22v-656c0 -12 -10 -22 -22 -22s-22 10 -22 22v306h-150v-306c0 -12 -10 -22 -22 -22s-22 10 -22 22v656c0 12 10 22 22 22s22 -10 22 -22v-306z" />
<glyph unicode="&#x41e;" d="M189 -10c68 0 124 54 124 121v478c0 67 -56 121 -124 121s-124 -54 -124 -121v-478c0 -67 56 -121 124 -121zM189 666c44 0 80 -34 80 -77v-478c0 -43 -36 -77 -80 -77s-80 34 -80 77v478c0 43 36 77 80 77z" />
<glyph unicode="&#x41f;" horiz-adv-x="368" d="M109 22c0 -12 -10 -22 -22 -22s-22 10 -22 22v656c0 12 10 22 22 22h194c12 0 22 -10 22 -22v-656c0 -12 -10 -22 -22 -22s-22 10 -22 22v634h-150v-634z" />
<glyph unicode="&#x420;" horiz-adv-x="380" d="M221 700c62 0 114 -53 114 -117s-52 -117 -114 -117h-112v-444c0 -12 -10 -22 -22 -22s-22 10 -22 22v656c0 12 10 22 22 22h134zM221 510c38 0 70 33 70 73s-32 73 -70 73h-112v-146h112z" />
<glyph unicode="&#x421;" horiz-adv-x="363" d="M291 133c12 0 22 -10 22 -22c0 -67 -55 -121 -124 -121c-68 0 -124 54 -124 121v478c0 67 56 121 124 121c69 0 124 -54 124 -121c0 -12 -10 -22 -22 -22s-22 10 -22 22c0 43 -35 77 -80 77c-44 0 -80 -34 -80 -77v-478c0 -43 36 -77 80 -77c45 0 80 34 80 77 c0 12 10 22 22 22z" />
<glyph unicode="&#x422;" horiz-adv-x="302" d="M255 700c12 0 22 -10 22 -22s-10 -22 -22 -22h-82v-634c0 -12 -10 -22 -22 -22s-22 10 -22 22v634h-82c-12 0 -22 10 -22 22s10 22 22 22h208z" />
<glyph unicode="&#x423;" horiz-adv-x="347" d="M290 699c13 0 28 -10 23 -28l-189 -655c-3 -11 -11 -16 -19 -16c-14 0 -29 11 -24 28l65 226l-121 417c-5 18 10 28 23 28c9 -1 17 -6 20 -16l101 -350l101 350c3 10 11 15 20 16z" />
<glyph unicode="&#x424;" horiz-adv-x="454" d="M265 700c68 0 124 -54 124 -121v-458c0 -67 -56 -121 -124 -121h-16v-28c0 -12 -10 -22 -22 -22s-22 10 -22 22v28h-16c-68 0 -124 54 -124 121v458c0 67 56 121 124 121h16v28c0 12 10 22 22 22s22 -10 22 -22v-28h16zM189 44h16v612h-16c-44 0 -80 -34 -80 -77v-458 c0 -43 36 -77 80 -77zM345 121v458c0 43 -36 77 -80 77h-16v-612h16c44 0 80 34 80 77z" />
<glyph unicode="&#x425;" horiz-adv-x="347" d="M311 29c6 -18 -8 -29 -21 -29c-9 0 -18 5 -21 15l-95 277l-96 -277c-3 -10 -12 -15 -21 -15c-13 0 -27 11 -21 29l114 331l-107 311c-6 17 8 29 22 29c8 0 16 -4 20 -15l89 -257l88 257c4 11 12 15 20 15c14 0 28 -12 22 -29l-107 -311z" />
<glyph unicode="&#x427;" horiz-adv-x="363" d="M276 700c12 0 22 -10 22 -22v-656c0 -12 -10 -22 -22 -22s-22 10 -22 22v277c-24 -17 -51 -27 -80 -27c-69 0 -124 54 -124 121v285c0 12 10 22 22 22s22 -10 22 -22v-285c0 -43 35 -77 80 -77c30 0 58 10 80 29v333c0 12 10 22 22 22z" />
<glyph unicode="&#x426;" horiz-adv-x="372" d="M109 44h150v634c0 12 10 22 22 22s22 -10 22 -22v-634h32c12 0 22 -10 22 -22v-129c0 -11 -9 -20 -20 -20s-20 9 -20 20v107h-230c-12 0 -22 10 -22 22v656c0 12 10 22 22 22s22 -10 22 -22v-634z" />
<glyph unicode="&#x428;" horiz-adv-x="462" d="M375 700c12 0 22 -10 22 -22v-656c0 -12 -10 -22 -22 -22h-288c-12 0 -22 10 -22 22v656c0 12 10 22 22 22s22 -10 22 -22v-634h100v634c0 12 10 22 22 22s22 -10 22 -22v-634h100v634c0 12 10 22 22 22z" />
<glyph unicode="&#x429;" horiz-adv-x="462" d="M429 44c12 0 22 -10 22 -22v-129c0 -11 -9 -20 -20 -20s-20 9 -20 20v107h-324c-12 0 -22 10 -22 22v656c0 12 10 22 22 22s22 -10 22 -22v-634h100v634c0 12 10 22 22 22s22 -10 22 -22v-634h100v634c0 12 10 22 22 22s22 -10 22 -22v-634h32z" />
<glyph unicode="&#x42f;" horiz-adv-x="400" d="M291 22v444h-112c-40 0 -69 -30 -70 -68v-376c0 -12 -10 -22 -22 -22s-22 10 -22 22v376c0 38 18 71 52 91c-34 22 -52 56 -52 94c0 64 52 117 114 117h134c12 0 22 -10 22 -22v-656c0 -12 -10 -22 -22 -22s-22 10 -22 22zM291 656h-112c-38 0 -70 -33 -70 -73 s32 -73 70 -73h112v146z" />
<glyph unicode="&#x42c;" horiz-adv-x="403" d="M175 506c112 0 203 -111 203 -253s-91 -253 -203 -253h-89c-11 0 -21 10 -21 22v656c0 11 10 22 22 22c15 0 22 -13 22 -22v-172h66zM175 44c89 0 159 91 159 209s-70 209 -159 209h-66v-418h66z" />
<glyph unicode="&#x42a;" horiz-adv-x="479" d="M251 506c112 0 203 -111 203 -253s-91 -253 -203 -253h-89c-11 0 -21 10 -21 22v634h-119c-12 0 -22 10 -22 22s10 22 22 22h141c15 0 22 -13 22 -22v-172h66zM251 44c89 0 159 91 159 209s-70 209 -159 209h-66v-418h66z" />
<glyph unicode="&#x42b;" horiz-adv-x="623" d="M175 506c112 0 203 -111 203 -253s-91 -253 -203 -253h-89c-11 0 -21 10 -21 22v656c0 11 10 22 22 22c15 0 22 -13 22 -22v-172h66zM462 22c0 -12 -10 -22 -22 -22s-22 10 -22 22v656c0 12 10 22 22 22s22 -10 22 -22v-656zM175 44c89 0 159 91 159 209 s-70 209 -159 209h-66v-418h66z" />
<glyph unicode="&#x42d;" horiz-adv-x="363" d="M174 710c68 0 124 -54 124 -121v-478c0 -67 -56 -121 -124 -121c-69 0 -124 54 -124 121c0 12 10 22 22 22s22 -10 22 -22c0 -43 35 -77 80 -77c44 0 80 34 80 77v217h-127c-12 0 -22 10 -22 22s10 22 22 22h127v217c0 43 -36 77 -80 77c-45 0 -80 -34 -80 -77 c0 -12 -10 -22 -22 -22s-22 10 -22 22c0 67 55 121 124 121z" />
<glyph unicode="&#x42e;" horiz-adv-x="494" d="M305 710c68 0 124 -54 124 -121v-478c0 -67 -56 -121 -124 -121s-124 54 -124 121v217h-72v-306c0 -12 -10 -22 -22 -22s-22 10 -22 22v656c0 12 10 22 22 22s22 -10 22 -22v-306h72v217c0 67 56 121 124 121zM385 111v478c0 43 -36 77 -80 77s-80 -34 -80 -77v-478 c0 -43 36 -77 80 -77s80 34 80 77z" />
<glyph horiz-adv-x="504" d="M187 500c68 0 126 -54 126 -126v-248c0 -72 -58 -126 -126 -126h-100c-12 0 -22 10 -22 22v656c0 12 10 22 22 22s22 -10 22 -22v-178h78zM439 22c0 -12 -10 -22 -22 -22s-22 10 -22 22v656c0 12 10 22 22 22s22 -10 22 -22v-656zM269 126v248c0 45 -37 82 -82 82h-78 v-412h78c45 0 82 37 82 82z" />
<glyph horiz-adv-x="348" d="M187 500c68 0 126 -54 126 -126v-248c0 -72 -58 -126 -126 -126h-100c-12 0 -22 10 -22 22v656c0 12 10 22 22 22s22 -10 22 -22v-178h78zM269 126v248c0 45 -37 82 -82 82h-78v-412h78c45 0 82 37 82 82z" />
<glyph horiz-adv-x="424" d="M263 500c68 0 126 -54 126 -126v-248c0 -72 -58 -126 -126 -126h-100c-12 0 -22 10 -22 22v634h-119c-12 0 -22 10 -22 22s10 22 22 22h141c12 0 22 -10 22 -22v-178h78zM345 126v248c0 45 -37 82 -82 82h-78v-412h78c45 0 82 37 82 82z" />
<glyph unicode="&#x430;" horiz-adv-x="368" d="M109 22c0 -12 -10 -22 -22 -22s-22 10 -22 22v562c0 70 56 126 119 126s119 -56 119 -126v-562c0 -12 -10 -22 -22 -22s-22 10 -22 22v306h-150v-306zM259 372v212c0 47 -33 82 -75 82s-75 -35 -75 -82v-212h150z" />
<glyph unicode="&#x431;" horiz-adv-x="383" d="M145 506c112 0 203 -111 203 -253s-91 -253 -203 -253h-59c-11 0 -21 10 -21 22v655c0 12 10 23 22 23h171c12 0 22 -10 22 -22s-10 -22 -22 -22h-149v-150h36zM145 44c89 0 159 91 159 209s-70 209 -159 209h-36v-418h36z" />
<glyph unicode="&#x432;" horiz-adv-x="403" d="M223 495c94 -34 155 -127 155 -242c0 -142 -91 -253 -203 -253h-89c-11 0 -21 10 -21 22v655c0 12 10 23 22 23h72c61 0 112 -53 112 -117c0 -37 -14 -68 -48 -88zM109 509h50c38 0 68 34 68 74s-31 73 -68 73h-50v-147zM175 44c89 0 159 91 159 209s-71 212 -159 212 h-66v-421h66z" />
<glyph unicode="&#x433;" horiz-adv-x="342" d="M285 700c12 0 22 -10 22 -22s-10 -22 -22 -22h-176v-634c0 -12 -10 -22 -22 -22s-22 10 -22 22v655c0 12 10 23 22 23h198z" />
<glyph unicode="&#x434;" horiz-adv-x="449" d="M397 44c12 0 22 -10 22 -22v-129c0 -11 -9 -20 -20 -20s-20 9 -20 20v107h-309v-107c0 -11 -9 -20 -20 -20s-20 9 -20 20v129c0 12 10 22 22 22h25l126 648c2 12 12 18 22 18s20 -6 22 -18l126 -648h24zM225 596l-104 -552h207z" />
<glyph unicode="&#x435;" horiz-adv-x="294" d="M217 166h-108v-87c0 -19 17 -35 36 -35h72c12 0 22 -10 22 -22s-10 -22 -22 -22h-72c-44 0 -80 35 -80 79v542c0 44 36 79 80 79h72c12 0 22 -10 22 -22s-10 -22 -22 -22h-72c-19 0 -36 -16 -36 -35v-411h108c12 0 22 -10 22 -22s-10 -22 -22 -22z" />
<glyph unicode="&#x451;" horiz-adv-x="294" d="M108 762c-19 0 -34 15 -34 34s15 34 34 34s34 -15 34 -34s-15 -34 -34 -34zM208 762c-19 0 -34 15 -34 34s15 34 34 34s34 -15 34 -34s-15 -34 -34 -34zM109 621v-411h108c12 0 22 -10 22 -22s-10 -22 -22 -22h-108v-87c0 -19 17 -35 36 -35h72c12 0 22 -10 22 -22 s-10 -22 -22 -22h-72c-44 0 -80 35 -80 79v542c0 44 36 79 80 79h72c12 0 22 -10 22 -22s-10 -22 -22 -22h-72c-19 0 -36 -16 -36 -35z" />
<glyph unicode="&#x436;" horiz-adv-x="498" d="M375 412c46 -6 73 -39 73 -81v-309c0 -12 -10 -22 -22 -22s-22 10 -22 22v309c0 25 -20 45 -45 45h-88v-354c0 -12 -10 -22 -22 -22s-22 10 -22 22v354h-88c-25 0 -45 -20 -45 -45v-309c0 -12 -10 -22 -22 -22s-22 10 -22 22v309c0 42 27 75 73 81c-17 18 -22 35 -22 52 v180c0 12 10 22 22 22s22 -10 22 -22v-180c0 -24 20 -44 42 -44h40v258c0 12 10 22 22 22s22 -10 22 -22v-258h40c22 0 42 20 42 44v180c0 12 10 22 22 22s22 -10 22 -22v-180c0 -17 -5 -34 -22 -52z" />
<glyph unicode="&#x437;" horiz-adv-x="323" d="M211 489c44 -13 72 -61 72 -105v-268c0 -70 -53 -126 -124 -126c-72 0 -124 56 -124 126c0 12 10 22 22 22s22 -10 22 -22c0 -46 32 -82 80 -82c47 0 80 37 80 82v268c0 49 -29 82 -80 82h-53c-12 0 -22 10 -22 22s10 22 22 22h53c48 0 80 30 80 79c0 43 -36 77 -80 77 c-45 0 -80 -34 -80 -77c0 -12 -10 -22 -22 -22s-22 10 -22 22c0 67 55 121 124 121c68 0 124 -54 124 -121c0 -47 -31 -89 -72 -100z" />
<glyph unicode="&#x438;" d="M87 700c12 0 22 -10 22 -22v-512l161 519c3 9 11 15 21 15c12 0 22 -10 22 -22v-656c0 -12 -10 -22 -22 -22s-22 10 -22 22v512l-161 -519c-3 -9 -11 -15 -21 -15c-12 0 -22 10 -22 22v656c0 12 10 22 22 22z" />
<glyph unicode="&#x439;" d="M265 821c0 -43 -30 -71 -75 -71s-75 28 -75 71c0 14 8 23 21 23s21 -9 21 -23c0 -21 13 -35 33 -35s33 14 33 35c0 14 8 23 21 23s21 -9 21 -23zM87 700c12 0 22 -10 22 -22v-512l161 519c3 9 11 15 21 15c12 0 22 -10 22 -22v-656c0 -12 -10 -22 -22 -22s-22 10 -22 22 v512l-161 -519c-3 -9 -11 -15 -21 -15c-12 0 -22 10 -22 22v656c0 12 10 22 22 22z" />
<glyph unicode="&#x43a;" horiz-adv-x="366" d="M243 412c46 -6 73 -39 73 -81v-309c0 -12 -10 -22 -22 -22s-22 10 -22 22v309c0 25 -20 45 -45 45h-118v-354c0 -12 -10 -22 -22 -22s-22 10 -22 22v656c0 12 10 22 22 22s22 -10 22 -22v-258h70c22 0 42 20 42 44v120c0 12 10 22 22 22s22 -10 22 -22v-120 c0 -17 -5 -34 -22 -52z" />
<glyph unicode="&#x43b;" horiz-adv-x="316" d="M286 25c2 -16 -10 -25 -23 -25c-10 0 -19 5 -21 18l-83 559l-84 -559c-2 -13 -11 -18 -21 -18c-13 0 -26 9 -23 25l106 665c2 14 13 20 22 20c10 0 18 -6 21 -20z" />
<glyph unicode="&#x43c;" horiz-adv-x="386" d="M299 0c-12 0 -22 10 -22 22v519l-62 -195c-4 -14 -13 -18 -22 -18s-18 4 -22 18l-62 195v-519c0 -12 -10 -22 -22 -22s-22 10 -22 22v656c0 12 10 22 22 22c10 0 18 -7 21 -16l85 -268l85 268c3 9 11 16 21 16c12 0 22 -10 22 -22v-656c0 -12 -10 -22 -22 -22z" />
<glyph unicode="&#x43d;" horiz-adv-x="368" d="M109 372h150v306c0 12 10 22 22 22s22 -10 22 -22v-656c0 -12 -10 -22 -22 -22s-22 10 -22 22v306h-150v-306c0 -12 -10 -22 -22 -22s-22 10 -22 22v656c0 12 10 22 22 22s22 -10 22 -22v-306z" />
<glyph unicode="&#x43e;" d="M189 -10c68 0 124 54 124 121v478c0 67 -56 121 -124 121s-124 -54 -124 -121v-478c0 -67 56 -121 124 -121zM189 666c44 0 80 -34 80 -77v-478c0 -43 -36 -77 -80 -77s-80 34 -80 77v478c0 43 36 77 80 77z" />
<glyph unicode="&#x43f;" horiz-adv-x="368" d="M109 22c0 -12 -10 -22 -22 -22s-22 10 -22 22v656c0 12 10 22 22 22h194c12 0 22 -10 22 -22v-656c0 -12 -10 -22 -22 -22s-22 10 -22 22v634h-150v-634z" />
<glyph unicode="&#x440;" horiz-adv-x="380" d="M221 700c62 0 114 -53 114 -117s-52 -117 -114 -117h-112v-444c0 -12 -10 -22 -22 -22s-22 10 -22 22v656c0 12 10 22 22 22h134zM221 510c38 0 70 33 70 73s-32 73 -70 73h-112v-146h112z" />
<glyph unicode="&#x441;" horiz-adv-x="363" d="M291 133c12 0 22 -10 22 -22c0 -67 -55 -121 -124 -121c-68 0 -124 54 -124 121v478c0 67 56 121 124 121c69 0 124 -54 124 -121c0 -12 -10 -22 -22 -22s-22 10 -22 22c0 43 -35 77 -80 77c-44 0 -80 -34 -80 -77v-478c0 -43 36 -77 80 -77c45 0 80 34 80 77 c0 12 10 22 22 22z" />
<glyph unicode="&#x442;" horiz-adv-x="302" d="M255 700c12 0 22 -10 22 -22s-10 -22 -22 -22h-82v-634c0 -12 -10 -22 -22 -22s-22 10 -22 22v634h-82c-12 0 -22 10 -22 22s10 22 22 22h208z" />
<glyph unicode="&#x443;" horiz-adv-x="347" d="M290 699c13 0 28 -10 23 -28l-189 -655c-3 -11 -11 -16 -19 -16c-14 0 -29 11 -24 28l65 226l-121 417c-5 18 10 28 23 28c9 -1 17 -6 20 -16l101 -350l101 350c3 10 11 15 20 16z" />
<glyph unicode="&#x444;" horiz-adv-x="454" d="M265 700c68 0 124 -54 124 -121v-458c0 -67 -56 -121 -124 -121h-16v-28c0 -12 -10 -22 -22 -22s-22 10 -22 22v28h-16c-68 0 -124 54 -124 121v458c0 67 56 121 124 121h16v28c0 12 10 22 22 22s22 -10 22 -22v-28h16zM189 44h16v612h-16c-44 0 -80 -34 -80 -77v-458 c0 -43 36 -77 80 -77zM345 121v458c0 43 -36 77 -80 77h-16v-612h16c44 0 80 34 80 77z" />
<glyph unicode="&#x445;" horiz-adv-x="347" d="M311 29c6 -18 -8 -29 -21 -29c-9 0 -18 5 -21 15l-95 277l-96 -277c-3 -10 -12 -15 -21 -15c-13 0 -27 11 -21 29l114 331l-107 311c-6 17 8 29 22 29c8 0 16 -4 20 -15l89 -257l88 257c4 11 12 15 20 15c14 0 28 -12 22 -29l-107 -311z" />
<glyph unicode="&#x447;" horiz-adv-x="363" d="M276 700c12 0 22 -10 22 -22v-656c0 -12 -10 -22 -22 -22s-22 10 -22 22v277c-24 -17 -51 -27 -80 -27c-69 0 -124 54 -124 121v285c0 12 10 22 22 22s22 -10 22 -22v-285c0 -43 35 -77 80 -77c30 0 58 10 80 29v333c0 12 10 22 22 22z" />
<glyph unicode="&#x446;" horiz-adv-x="372" d="M109 44h150v634c0 12 10 22 22 22s22 -10 22 -22v-634h32c12 0 22 -10 22 -22v-129c0 -11 -9 -20 -20 -20s-20 9 -20 20v107h-230c-12 0 -22 10 -22 22v656c0 12 10 22 22 22s22 -10 22 -22v-634z" />
<glyph unicode="&#x448;" horiz-adv-x="462" d="M375 700c12 0 22 -10 22 -22v-656c0 -12 -10 -22 -22 -22h-288c-12 0 -22 10 -22 22v656c0 12 10 22 22 22s22 -10 22 -22v-634h100v634c0 12 10 22 22 22s22 -10 22 -22v-634h100v634c0 12 10 22 22 22z" />
<glyph unicode="&#x449;" horiz-adv-x="462" d="M429 44c12 0 22 -10 22 -22v-129c0 -11 -9 -20 -20 -20s-20 9 -20 20v107h-324c-12 0 -22 10 -22 22v656c0 12 10 22 22 22s22 -10 22 -22v-634h100v634c0 12 10 22 22 22s22 -10 22 -22v-634h100v634c0 12 10 22 22 22s22 -10 22 -22v-634h32z" />
<glyph unicode="&#x44f;" horiz-adv-x="400" d="M291 22v444h-112c-40 0 -69 -30 -70 -68v-376c0 -12 -10 -22 -22 -22s-22 10 -22 22v376c0 38 18 71 52 91c-34 22 -52 56 -52 94c0 64 52 117 114 117h134c12 0 22 -10 22 -22v-656c0 -12 -10 -22 -22 -22s-22 10 -22 22zM291 656h-112c-38 0 -70 -33 -70 -73 s32 -73 70 -73h112v146z" />
<glyph unicode="&#x44c;" horiz-adv-x="403" d="M175 506c112 0 203 -111 203 -253s-91 -253 -203 -253h-89c-11 0 -21 10 -21 22v656c0 11 10 22 22 22c15 0 22 -13 22 -22v-172h66zM175 44c89 0 159 91 159 209s-70 209 -159 209h-66v-418h66z" />
<glyph unicode="&#x44a;" horiz-adv-x="479" d="M251 506c112 0 203 -111 203 -253s-91 -253 -203 -253h-89c-11 0 -21 10 -21 22v634h-119c-12 0 -22 10 -22 22s10 22 22 22h141c15 0 22 -13 22 -22v-172h66zM251 44c89 0 159 91 159 209s-70 209 -159 209h-66v-418h66z" />
<glyph unicode="&#x44b;" horiz-adv-x="527" d="M175 506c112 0 203 -111 203 -253s-91 -253 -203 -253h-89c-11 0 -21 10 -21 22v656c0 11 10 22 22 22c15 0 22 -13 22 -22v-172h66zM462 22c0 -12 -10 -22 -22 -22s-22 10 -22 22v656c0 12 10 22 22 22s22 -10 22 -22v-656zM175 44c89 0 159 91 159 209 s-70 209 -159 209h-66v-418h66z" />
<glyph unicode="&#x44d;" horiz-adv-x="363" d="M174 710c68 0 124 -54 124 -121v-478c0 -67 -56 -121 -124 -121c-69 0 -124 54 -124 121c0 12 10 22 22 22s22 -10 22 -22c0 -43 35 -77 80 -77c44 0 80 34 80 77v217h-127c-12 0 -22 10 -22 22s10 22 22 22h127v217c0 43 -36 77 -80 77c-45 0 -80 -34 -80 -77 c0 -12 -10 -22 -22 -22s-22 10 -22 22c0 67 55 121 124 121z" />
<glyph unicode="&#x44e;" horiz-adv-x="494" d="M305 710c68 0 124 -54 124 -121v-478c0 -67 -56 -121 -124 -121s-124 54 -124 121v217h-72v-306c0 -12 -10 -22 -22 -22s-22 10 -22 22v656c0 12 10 22 22 22s22 -10 22 -22v-306h72v217c0 67 56 121 124 121zM385 111v478c0 43 -36 77 -80 77s-80 -34 -80 -77v-478 c0 -43 36 -77 80 -77s80 34 80 77z" />
<glyph unicode="&#x391;" horiz-adv-x="368" d="M109 22c0 -12 -10 -22 -22 -22s-22 10 -22 22v562c0 70 56 126 119 126s119 -56 119 -126v-562c0 -12 -10 -22 -22 -22s-22 10 -22 22v306h-150v-306zM259 372v212c0 47 -33 82 -75 82s-75 -35 -75 -82v-212h150z" />
<glyph unicode="&#x392;" horiz-adv-x="403" d="M223 495c94 -34 155 -127 155 -242c0 -142 -91 -253 -203 -253h-89c-11 0 -21 10 -21 22v655c0 12 10 23 22 23h72c61 0 112 -53 112 -117c0 -37 -14 -68 -48 -88zM109 509h50c38 0 68 34 68 74s-31 73 -68 73h-50v-147zM175 44c89 0 159 91 159 209s-71 212 -159 212 h-66v-421h66z" />
<glyph unicode="&#x393;" horiz-adv-x="342" d="M285 700c12 0 22 -10 22 -22s-10 -22 -22 -22h-176v-634c0 -12 -10 -22 -22 -22s-22 10 -22 22v655c0 12 10 23 22 23h198z" />
<glyph unicode="&#x394;" horiz-adv-x="344" d="M324 26c3 -16 -10 -26 -22 -26h-260c-12 0 -25 10 -22 26l130 666c2 12 12 18 22 18s20 -6 22 -18zM172 586l-104 -542h208z" />
<glyph unicode="&#x395;" horiz-adv-x="294" d="M217 166h-108v-87c0 -19 17 -35 36 -35h72c12 0 22 -10 22 -22s-10 -22 -22 -22h-72c-44 0 -80 35 -80 79v542c0 44 36 79 80 79h72c12 0 22 -10 22 -22s-10 -22 -22 -22h-72c-19 0 -36 -16 -36 -35v-411h108c12 0 22 -10 22 -22s-10 -22 -22 -22z" />
<glyph unicode="&#x396;" horiz-adv-x="341" d="M81 700c-12 0 -22 -10 -22 -22s10 -22 22 -22h162l-208 -627c-6 -18 8 -29 21 -29h228c12 0 22 10 22 22s-10 22 -22 22h-198l208 627c6 17 -8 29 -22 29h-191z" />
<glyph unicode="&#x397;" horiz-adv-x="368" d="M109 372h150v306c0 12 10 22 22 22s22 -10 22 -22v-656c0 -12 -10 -22 -22 -22s-22 10 -22 22v306h-150v-306c0 -12 -10 -22 -22 -22s-22 10 -22 22v656c0 12 10 22 22 22s22 -10 22 -22v-306z" />
<glyph unicode="&#x398;" d="M189 710c68 0 124 -54 124 -121v-478c0 -67 -56 -121 -124 -121s-124 54 -124 121v478c0 67 56 121 124 121zM189 666c-44 0 -80 -34 -80 -77v-217h160v217c0 43 -36 77 -80 77zM189 34c44 0 80 34 80 77v217h-160v-217c0 -43 36 -77 80 -77z" />
<glyph unicode="&#x399;" horiz-adv-x="174" d="M109 22c0 -12 -10 -22 -22 -22s-22 10 -22 22v656c0 12 10 22 22 22s22 -10 22 -22v-656z" />
<glyph unicode="&#x39a;" horiz-adv-x="366" d="M243 412c46 -6 73 -39 73 -81v-309c0 -12 -10 -22 -22 -22s-22 10 -22 22v309c0 25 -20 45 -45 45h-118v-354c0 -12 -10 -22 -22 -22s-22 10 -22 22v656c0 12 10 22 22 22s22 -10 22 -22v-258h70c22 0 42 20 42 44v120c0 12 10 22 22 22s22 -10 22 -22v-120 c0 -17 -5 -34 -22 -52z" />
<glyph unicode="&#x39b;" horiz-adv-x="316" d="M286 25c2 -16 -10 -25 -23 -25c-10 0 -19 5 -21 18l-83 559l-84 -559c-2 -13 -11 -18 -21 -18c-13 0 -26 9 -23 25l106 665c2 14 13 20 22 20c10 0 18 -6 21 -20z" />
<glyph unicode="&#x39c;" horiz-adv-x="386" d="M299 0c-12 0 -22 10 -22 22v519l-62 -195c-4 -14 -13 -18 -22 -18s-18 4 -22 18l-62 195v-519c0 -12 -10 -22 -22 -22s-22 10 -22 22v656c0 12 10 22 22 22c10 0 18 -7 21 -16l85 -268l85 268c3 9 11 16 21 16c12 0 22 -10 22 -22v-656c0 -12 -10 -22 -22 -22z" />
<glyph unicode="&#x39d;" d="M291 700c12 0 22 -10 22 -22v-656c0 -12 -10 -22 -22 -22c-10 0 -18 6 -21 15l-161 519v-512c0 -12 -10 -22 -22 -22s-22 10 -22 22v656c0 12 10 22 22 22c10 0 18 -6 21 -15l161 -519v512c0 12 10 22 22 22z" />
<glyph unicode="&#x39e;" horiz-adv-x="348" d="M276 700c12 0 22 -10 22 -22s-10 -22 -22 -22h-204c-12 0 -22 10 -22 22s10 22 22 22h204zM111 338c-12 0 -22 10 -22 22s10 22 22 22h127c12 0 22 -10 22 -22s-10 -22 -22 -22h-127zM281 44c12 0 22 -10 22 -22s-10 -22 -22 -22h-214c-12 0 -22 10 -22 22s10 22 22 22 h214z" />
<glyph unicode="&#x39f;" d="M189 -10c68 0 124 54 124 121v478c0 67 -56 121 -124 121s-124 -54 -124 -121v-478c0 -67 56 -121 124 -121zM189 666c44 0 80 -34 80 -77v-478c0 -43 -36 -77 -80 -77s-80 34 -80 77v478c0 43 36 77 80 77z" />
<glyph unicode="&#x3a0;" horiz-adv-x="368" d="M109 22c0 -12 -10 -22 -22 -22s-22 10 -22 22v656c0 12 10 22 22 22h194c12 0 22 -10 22 -22v-656c0 -12 -10 -22 -22 -22s-22 10 -22 22v634h-150v-634z" />
<glyph unicode="&#x3a1;" horiz-adv-x="380" d="M221 700c62 0 114 -53 114 -117s-52 -117 -114 -117h-112v-444c0 -12 -10 -22 -22 -22s-22 10 -22 22v656c0 12 10 22 22 22h134zM221 510c38 0 70 33 70 73s-32 73 -70 73h-112v-146h112z" />
<glyph unicode="&#x3a3;" horiz-adv-x="392" d="M303 44c12 0 22 -10 22 -22s-10 -22 -22 -22h-233c-12 0 -22 10 -22 22c0 2 0 5 1 7l108 321l-98 321c-1 2 -1 5 -1 7c0 12 10 22 22 22h213c12 0 22 -10 22 -22s-10 -22 -22 -22h-183l89 -288c4 -14 4 -22 0 -35l-98 -289h202z" />
<glyph unicode="&#x3a4;" horiz-adv-x="302" d="M255 700c12 0 22 -10 22 -22s-10 -22 -22 -22h-82v-634c0 -12 -10 -22 -22 -22s-22 10 -22 22v634h-82c-12 0 -22 10 -22 22s10 22 22 22h208z" />
<glyph unicode="&#x3a5;" horiz-adv-x="324" d="M271 700c14 0 28 -12 22 -29l-108 -313v-336c0 -12 -10 -22 -22 -22s-22 10 -22 22v336l-109 313c-6 17 8 29 22 29c8 0 16 -4 20 -15l89 -257l88 257c4 11 12 15 20 15z" />
<glyph unicode="&#x3a6;" horiz-adv-x="454" d="M265 700c68 0 124 -54 124 -121v-458c0 -67 -56 -121 -124 -121h-16v-28c0 -12 -10 -22 -22 -22s-22 10 -22 22v28h-16c-68 0 -124 54 -124 121v458c0 67 56 121 124 121h16v28c0 12 10 22 22 22s22 -10 22 -22v-28h16zM189 44h16v612h-16c-44 0 -80 -34 -80 -77v-458 c0 -43 36 -77 80 -77zM345 121v458c0 43 -36 77 -80 77h-16v-612h16c44 0 80 34 80 77z" />
<glyph unicode="&#x3a7;" horiz-adv-x="347" d="M311 29c6 -18 -8 -29 -21 -29c-9 0 -18 5 -21 15l-95 277l-96 -277c-3 -10 -12 -15 -21 -15c-13 0 -27 11 -21 29l114 331l-107 311c-6 17 8 29 22 29c8 0 16 -4 20 -15l89 -257l88 257c4 11 12 15 20 15c14 0 28 -12 22 -29l-107 -311z" />
<glyph unicode="&#x3a8;" horiz-adv-x="424" d="M352 700c12 0 22 -10 22 -22v-285c0 -67 -56 -121 -124 -121h-16v-250c0 -12 -10 -22 -22 -22s-22 10 -22 22v250h-16c-68 0 -124 54 -124 121v285c0 12 10 22 22 22s22 -10 22 -22v-285c0 -43 36 -77 80 -77h16v362c0 12 10 22 22 22s22 -10 22 -22v-362h16 c44 0 80 34 80 77v285c0 12 10 22 22 22z" />
<glyph unicode="&#x3a9;" d="M328 44c12 0 22 -10 22 -22s-10 -22 -22 -22h-90c-12 0 -22 10 -22 22c0 6 3 12 7 16c1 1 1 1 2 1c35 30 44 45 44 72v478c0 43 -36 77 -80 77s-80 -34 -80 -77v-478c0 -27 9 -42 44 -72c1 0 1 0 2 -1c4 -4 7 -10 7 -16c0 -12 -10 -22 -22 -22h-90c-12 0 -22 10 -22 22 s10 22 22 22h45c-19 16 -30 39 -30 67v478c0 67 56 121 124 121s124 -54 124 -121v-478c0 -28 -11 -51 -30 -67h45z" />
<glyph unicode="&#x386;" horiz-adv-x="368" d="M109 22c0 -12 -10 -22 -22 -22s-22 10 -22 22v562c0 70 56 126 119 126s119 -56 119 -126v-562c0 -12 -10 -22 -22 -22s-22 10 -22 22v306h-150v-306zM22 688c3 5 6 8 10 10c17 7 38 -9 27 -30l-39 -71c-3 -4 -6 -8 -10 -10c-15 -6 -35 9 -26 28zM259 372v212 c0 47 -33 82 -75 82s-75 -35 -75 -82v-212h150z" />
<glyph unicode="&#x388;" horiz-adv-x="294" d="M13 698c17 7 38 -9 27 -30l-39 -71c-3 -4 -6 -8 -10 -10c-15 -6 -35 9 -26 28l38 73c3 5 6 8 10 10zM217 166h-108v-87c0 -19 17 -35 36 -35h72c12 0 22 -10 22 -22s-10 -22 -22 -22h-72c-44 0 -80 35 -80 79v542c0 44 36 79 80 79h72c12 0 22 -10 22 -22 s-10 -22 -22 -22h-72c-19 0 -36 -16 -36 -35v-411h108c12 0 22 -10 22 -22s-10 -22 -22 -22z" />
<glyph unicode="&#x389;" horiz-adv-x="368" d="M-6 688c3 5 6 8 10 10c17 7 38 -9 27 -30l-39 -71c-3 -4 -6 -8 -10 -10c-15 -6 -35 9 -26 28zM109 372h150v306c0 12 10 22 22 22s22 -10 22 -22v-656c0 -12 -10 -22 -22 -22s-22 10 -22 22v306h-150v-306c0 -12 -10 -22 -22 -22s-22 10 -22 22v656c0 12 10 22 22 22 s22 -10 22 -22v-306z" />
<glyph unicode="&#x38a;" horiz-adv-x="270" d="M25 688c3 5 6 8 10 10c17 7 38 -9 27 -30l-39 -71c-3 -4 -6 -8 -10 -10c-15 -6 -35 9 -26 28zM193 44c12 0 22 -10 22 -22s-10 -22 -22 -22c-23 0 -43 9 -58 30c-15 -21 -35 -30 -58 -30c-12 0 -22 10 -22 22s10 22 22 22c22 0 36 19 36 35v542c0 13 -2 20 -16 26 c-12 5 -17 16 -14 28c5 13 16 18 29 13c10 -4 17 -10 23 -18c15 21 35 30 58 30c12 0 22 -10 22 -22s-10 -22 -22 -22c-22 0 -36 -19 -36 -35v-542c0 -16 14 -35 36 -35z" />
<glyph unicode="&#x38c;" d="M189 -10c68 0 124 54 124 121v478c0 67 -56 121 -124 121s-124 -54 -124 -121v-478c0 -67 56 -121 124 -121zM22 688c3 5 6 8 10 10c17 7 38 -9 27 -30l-39 -71c-3 -4 -6 -8 -10 -10c-15 -6 -35 9 -26 28zM189 666c44 0 80 -34 80 -77v-478c0 -43 -36 -77 -80 -77 s-80 34 -80 77v478c0 43 36 77 80 77z" />
<glyph unicode="&#x38e;" horiz-adv-x="324" d="M0 688c4 5 7 8 10 10c17 7 39 -9 27 -30l-39 -71c-2 -4 -5 -8 -10 -9c-15 -6 -35 8 -25 27zM271 700c14 0 28 -12 22 -29l-108 -313v-336c0 -12 -10 -22 -22 -22s-22 10 -22 22v336l-84 313c-5 17 8 29 22 29c8 0 17 -4 20 -15l66 -257l86 257c4 11 12 15 20 15z" />
<glyph unicode="&#x38f;" d="M328 44c12 0 22 -10 22 -22s-10 -22 -22 -22h-90c-12 0 -22 10 -22 22c0 6 3 12 7 16c1 1 1 1 2 1c35 30 44 45 44 72v478c0 43 -36 77 -80 77s-80 -34 -80 -77v-478c0 -27 9 -42 44 -72c1 0 1 0 2 -1c4 -4 7 -10 7 -16c0 -12 -10 -22 -22 -22h-90c-12 0 -22 10 -22 22 s10 22 22 22h45c-19 16 -30 39 -30 67v478c0 67 56 121 124 121s124 -54 124 -121v-478c0 -28 -11 -51 -30 -67h45zM32 698c17 7 38 -9 27 -30l-39 -71c-3 -4 -6 -8 -10 -10c-15 -6 -35 9 -26 28l38 73c3 5 6 8 10 10z" />
<glyph unicode="&#x3aa;" horiz-adv-x="174" d="M37 762c-19 0 -34 15 -34 34s15 34 34 34s34 -15 34 -34s-15 -34 -34 -34zM137 762c-19 0 -34 15 -34 34s15 34 34 34s34 -15 34 -34s-15 -34 -34 -34zM109 22c0 -12 -10 -22 -22 -22s-22 10 -22 22v656c0 12 10 22 22 22s22 -10 22 -22v-656z" />
<glyph unicode="&#x3ab;" horiz-adv-x="324" d="M113 762c-19 0 -34 15 -34 34s15 34 34 34s34 -15 34 -34s-15 -34 -34 -34zM213 762c-19 0 -34 15 -34 34s15 34 34 34s34 -15 34 -34s-15 -34 -34 -34zM271 700c14 0 28 -12 22 -29l-108 -313v-336c0 -12 -10 -22 -22 -22s-22 10 -22 22v336l-109 313c-6 17 8 29 22 29 c8 0 16 -4 20 -15l89 -257l88 257c4 11 12 15 20 15z" />
<glyph unicode="&#x3b1;" horiz-adv-x="368" d="M109 22c0 -12 -10 -22 -22 -22s-22 10 -22 22v562c0 70 56 126 119 126s119 -56 119 -126v-562c0 -12 -10 -22 -22 -22s-22 10 -22 22v306h-150v-306zM259 372v212c0 47 -33 82 -75 82s-75 -35 -75 -82v-212h150z" />
<glyph unicode="&#x3b2;" horiz-adv-x="403" d="M223 495c94 -34 155 -127 155 -242c0 -142 -91 -253 -203 -253h-89c-11 0 -21 10 -21 22v655c0 12 10 23 22 23h72c61 0 112 -53 112 -117c0 -37 -14 -68 -48 -88zM109 509h50c38 0 68 34 68 74s-31 73 -68 73h-50v-147zM175 44c89 0 159 91 159 209s-71 212 -159 212 h-66v-421h66z" />
<glyph unicode="&#x3b3;" horiz-adv-x="342" d="M285 700c12 0 22 -10 22 -22s-10 -22 -22 -22h-176v-634c0 -12 -10 -22 -22 -22s-22 10 -22 22v655c0 12 10 23 22 23h198z" />
<glyph unicode="&#x3b4;" horiz-adv-x="344" d="M324 26c3 -16 -10 -26 -22 -26h-260c-12 0 -25 10 -22 26l130 666c2 12 12 18 22 18s20 -6 22 -18zM172 586l-104 -542h208z" />
<glyph unicode="&#x3b5;" horiz-adv-x="294" d="M217 166h-108v-87c0 -19 17 -35 36 -35h72c12 0 22 -10 22 -22s-10 -22 -22 -22h-72c-44 0 -80 35 -80 79v542c0 44 36 79 80 79h72c12 0 22 -10 22 -22s-10 -22 -22 -22h-72c-19 0 -36 -16 -36 -35v-411h108c12 0 22 -10 22 -22s-10 -22 -22 -22z" />
<glyph unicode="&#x3b6;" horiz-adv-x="341" d="M81 700c-12 0 -22 -10 -22 -22s10 -22 22 -22h162l-208 -627c-6 -18 8 -29 21 -29h228c12 0 22 10 22 22s-10 22 -22 22h-198l208 627c6 17 -8 29 -22 29h-191z" />
<glyph unicode="&#x3b7;" horiz-adv-x="368" d="M109 372h150v306c0 12 10 22 22 22s22 -10 22 -22v-656c0 -12 -10 -22 -22 -22s-22 10 -22 22v306h-150v-306c0 -12 -10 -22 -22 -22s-22 10 -22 22v656c0 12 10 22 22 22s22 -10 22 -22v-306z" />
<glyph unicode="&#x3b8;" d="M189 710c68 0 124 -54 124 -121v-478c0 -67 -56 -121 -124 -121s-124 54 -124 121v478c0 67 56 121 124 121zM189 666c-44 0 -80 -34 -80 -77v-217h160v217c0 43 -36 77 -80 77zM189 34c44 0 80 34 80 77v217h-160v-217c0 -43 36 -77 80 -77z" />
<glyph unicode="&#x3b9;" horiz-adv-x="174" d="M109 22c0 -12 -10 -22 -22 -22s-22 10 -22 22v656c0 12 10 22 22 22s22 -10 22 -22v-656z" />
<glyph unicode="&#x3ba;" horiz-adv-x="366" d="M243 412c46 -6 73 -39 73 -81v-309c0 -12 -10 -22 -22 -22s-22 10 -22 22v309c0 25 -20 45 -45 45h-118v-354c0 -12 -10 -22 -22 -22s-22 10 -22 22v656c0 12 10 22 22 22s22 -10 22 -22v-258h70c22 0 42 20 42 44v120c0 12 10 22 22 22s22 -10 22 -22v-120 c0 -17 -5 -34 -22 -52z" />
<glyph unicode="&#x3bb;" horiz-adv-x="344" />
<glyph unicode="&#x3bc;" horiz-adv-x="386" d="M299 0c-12 0 -22 10 -22 22v519l-62 -195c-4 -14 -13 -18 -22 -18s-18 4 -22 18l-62 195v-519c0 -12 -10 -22 -22 -22s-22 10 -22 22v656c0 12 10 22 22 22c10 0 18 -7 21 -16l85 -268l85 268c3 9 11 16 21 16c12 0 22 -10 22 -22v-656c0 -12 -10 -22 -22 -22z" />
<glyph unicode="&#x3bd;" d="M291 700c12 0 22 -10 22 -22v-656c0 -12 -10 -22 -22 -22c-10 0 -18 6 -21 15l-161 519v-512c0 -12 -10 -22 -22 -22s-22 10 -22 22v656c0 12 10 22 22 22c10 0 18 -6 21 -15l161 -519v512c0 12 10 22 22 22z" />
<glyph unicode="&#x3be;" horiz-adv-x="348" d="M276 700c12 0 22 -10 22 -22s-10 -22 -22 -22h-204c-12 0 -22 10 -22 22s10 22 22 22h204zM111 338c-12 0 -22 10 -22 22s10 22 22 22h127c12 0 22 -10 22 -22s-10 -22 -22 -22h-127zM281 44c12 0 22 -10 22 -22s-10 -22 -22 -22h-214c-12 0 -22 10 -22 22s10 22 22 22 h214z" />
<glyph unicode="&#x3bf;" d="M189 -10c68 0 124 54 124 121v478c0 67 -56 121 -124 121s-124 -54 -124 -121v-478c0 -67 56 -121 124 -121zM189 666c44 0 80 -34 80 -77v-478c0 -43 -36 -77 -80 -77s-80 34 -80 77v478c0 43 36 77 80 77z" />
<glyph unicode="&#x3c0;" horiz-adv-x="368" d="M109 22c0 -12 -10 -22 -22 -22s-22 10 -22 22v656c0 12 10 22 22 22h194c12 0 22 -10 22 -22v-656c0 -12 -10 -22 -22 -22s-22 10 -22 22v634h-150v-634z" />
<glyph unicode="&#x3c1;" horiz-adv-x="380" d="M221 700c62 0 114 -53 114 -117s-52 -117 -114 -117h-112v-444c0 -12 -10 -22 -22 -22s-22 10 -22 22v656c0 12 10 22 22 22h134zM221 510c38 0 70 33 70 73s-32 73 -70 73h-112v-146h112z" />
<glyph unicode="&#x3c2;" horiz-adv-x="392" d="M303 44c12 0 22 -10 22 -22s-10 -22 -22 -22h-233c-12 0 -22 10 -22 22c0 2 0 5 1 7l108 321l-98 321c-1 2 -1 5 -1 7c0 12 10 22 22 22h213c12 0 22 -10 22 -22s-10 -22 -22 -22h-183l89 -288c4 -14 4 -22 0 -35l-98 -289h202z" />
<glyph unicode="&#x3c3;" horiz-adv-x="392" d="M303 44c12 0 22 -10 22 -22s-10 -22 -22 -22h-233c-12 0 -22 10 -22 22c0 2 0 5 1 7l108 321l-98 321c-1 2 -1 5 -1 7c0 12 10 22 22 22h213c12 0 22 -10 22 -22s-10 -22 -22 -22h-183l89 -288c4 -14 4 -22 0 -35l-98 -289h202z" />
<glyph unicode="&#x3c4;" horiz-adv-x="302" d="M255 700c12 0 22 -10 22 -22s-10 -22 -22 -22h-82v-634c0 -12 -10 -22 -22 -22s-22 10 -22 22v634h-82c-12 0 -22 10 -22 22s10 22 22 22h208z" />
<glyph unicode="&#x3c5;" horiz-adv-x="324" d="M271 700c14 0 28 -12 22 -29l-108 -313v-336c0 -12 -10 -22 -22 -22s-22 10 -22 22v336l-109 313c-6 17 8 29 22 29c8 0 16 -4 20 -15l89 -257l88 257c4 11 12 15 20 15z" />
<glyph unicode="&#x3c6;" horiz-adv-x="454" d="M265 700c68 0 124 -54 124 -121v-458c0 -67 -56 -121 -124 -121h-16v-28c0 -12 -10 -22 -22 -22s-22 10 -22 22v28h-16c-68 0 -124 54 -124 121v458c0 67 56 121 124 121h16v28c0 12 10 22 22 22s22 -10 22 -22v-28h16zM189 44h16v612h-16c-44 0 -80 -34 -80 -77v-458 c0 -43 36 -77 80 -77zM345 121v458c0 43 -36 77 -80 77h-16v-612h16c44 0 80 34 80 77z" />
<glyph unicode="&#x3c7;" horiz-adv-x="347" d="M311 29c6 -18 -8 -29 -21 -29c-9 0 -18 5 -21 15l-95 277l-96 -277c-3 -10 -12 -15 -21 -15c-13 0 -27 11 -21 29l114 331l-107 311c-6 17 8 29 22 29c8 0 16 -4 20 -15l89 -257l88 257c4 11 12 15 20 15c14 0 28 -12 22 -29l-107 -311z" />
<glyph unicode="&#x3c8;" horiz-adv-x="424" d="M352 700c12 0 22 -10 22 -22v-285c0 -67 -56 -121 -124 -121h-16v-250c0 -12 -10 -22 -22 -22s-22 10 -22 22v250h-16c-68 0 -124 54 -124 121v285c0 12 10 22 22 22s22 -10 22 -22v-285c0 -43 36 -77 80 -77h16v362c0 12 10 22 22 22s22 -10 22 -22v-362h16 c44 0 80 34 80 77v285c0 12 10 22 22 22z" />
<glyph unicode="&#x3c9;" d="M328 44c12 0 22 -10 22 -22s-10 -22 -22 -22h-90c-12 0 -22 10 -22 22c0 6 3 12 7 16c1 1 1 1 2 1c35 30 44 45 44 72v478c0 43 -36 77 -80 77s-80 -34 -80 -77v-478c0 -27 9 -42 44 -72c1 0 1 0 2 -1c4 -4 7 -10 7 -16c0 -12 -10 -22 -22 -22h-90c-12 0 -22 10 -22 22 s10 22 22 22h45c-19 16 -30 39 -30 67v478c0 67 56 121 124 121s124 -54 124 -121v-478c0 -28 -11 -51 -30 -67h45z" />
<glyph unicode="&#x3af;" horiz-adv-x="270" d="M25 688c3 5 6 8 10 10c17 7 38 -9 27 -30l-39 -71c-3 -4 -6 -8 -10 -10c-15 -6 -35 9 -26 28zM193 44c12 0 22 -10 22 -22s-10 -22 -22 -22c-23 0 -43 9 -58 30c-15 -21 -35 -30 -58 -30c-12 0 -22 10 -22 22s10 22 22 22c22 0 36 19 36 35v542c0 13 -2 20 -16 26 c-12 5 -17 16 -14 28c5 13 16 18 29 13c10 -4 17 -10 23 -18c15 21 35 30 58 30c12 0 22 -10 22 -22s-10 -22 -22 -22c-22 0 -36 -19 -36 -35v-542c0 -16 14 -35 36 -35z" />
<glyph unicode="&#x3ca;" horiz-adv-x="174" d="M37 762c-19 0 -34 15 -34 34s15 34 34 34s34 -15 34 -34s-15 -34 -34 -34zM137 762c-19 0 -34 15 -34 34s15 34 34 34s34 -15 34 -34s-15 -34 -34 -34zM109 22c0 -12 -10 -22 -22 -22s-22 10 -22 22v656c0 12 10 22 22 22s22 -10 22 -22v-656z" />
<glyph unicode="&#x390;" horiz-adv-x="270" d="M146 849c4 5 7 8 10 10c17 7 39 -9 27 -30l-39 -71c-2 -4 -5 -8 -10 -9c-15 -6 -35 8 -25 27zM61 762c-19 0 -34 15 -34 34s15 34 34 34s34 -15 34 -34s-15 -34 -34 -34zM221 762c-19 0 -34 15 -34 34s15 34 34 34s34 -15 34 -34s-15 -34 -34 -34zM109 22 c0 -12 -10 -22 -22 -22s-22 10 -22 22v656c0 12 10 22 22 22s22 -10 22 -22v-656z" />
<glyph unicode="&#x3cd;" horiz-adv-x="324" d="M0 688c4 5 7 8 10 10c17 7 39 -9 27 -30l-39 -71c-2 -4 -5 -8 -10 -9c-15 -6 -35 8 -25 27zM271 700c14 0 28 -12 22 -29l-108 -313v-336c0 -12 -10 -22 -22 -22s-22 10 -22 22v336l-84 313c-5 17 8 29 22 29c8 0 17 -4 20 -15l66 -257l86 257c4 11 12 15 20 15z" />
<glyph unicode="&#x3cb;" horiz-adv-x="324" d="M113 762c-19 0 -34 15 -34 34s15 34 34 34s34 -15 34 -34s-15 -34 -34 -34zM213 762c-19 0 -34 15 -34 34s15 34 34 34s34 -15 34 -34s-15 -34 -34 -34zM271 700c14 0 28 -12 22 -29l-108 -313v-336c0 -12 -10 -22 -22 -22s-22 10 -22 22v336l-109 313c-6 17 8 29 22 29 c8 0 16 -4 20 -15l89 -257l88 257c4 11 12 15 20 15z" />
<glyph unicode="&#x3b0;" horiz-adv-x="324" d="M165 849c4 5 7 8 10 10c17 7 39 -9 27 -30l-39 -71c-2 -4 -5 -8 -10 -9c-15 -6 -35 8 -25 27zM80 762c-19 0 -34 15 -34 34s15 34 34 34s34 -15 34 -34s-15 -34 -34 -34zM240 762c-19 0 -34 15 -34 34s15 34 34 34s34 -15 34 -34s-15 -34 -34 -34zM271 700 c14 0 28 -12 22 -29l-108 -313v-336c0 -12 -10 -22 -22 -22s-22 10 -22 22v336l-109 313c-6 17 8 29 22 29c8 0 16 -4 20 -15l89 -257l88 257c4 11 12 15 20 15z" />
<glyph unicode="&#x3cc;" d="M189 -10c68 0 124 54 124 121v478c0 67 -56 121 -124 121s-124 -54 -124 -121v-478c0 -67 56 -121 124 -121zM22 688c3 5 6 8 10 10c17 7 38 -9 27 -30l-39 -71c-3 -4 -6 -8 -10 -10c-15 -6 -35 9 -26 28zM189 666c44 0 80 -34 80 -77v-478c0 -43 -36 -77 -80 -77 s-80 34 -80 77v478c0 43 36 77 80 77z" />
<glyph unicode="&#x3ce;" d="M328 44c12 0 22 -10 22 -22s-10 -22 -22 -22h-90c-12 0 -22 10 -22 22c0 6 3 12 7 16c1 1 1 1 2 1c35 30 44 45 44 72v478c0 43 -36 77 -80 77s-80 -34 -80 -77v-478c0 -27 9 -42 44 -72c1 0 1 0 2 -1c4 -4 7 -10 7 -16c0 -12 -10 -22 -22 -22h-90c-12 0 -22 10 -22 22 s10 22 22 22h45c-19 16 -30 39 -30 67v478c0 67 56 121 124 121s124 -54 124 -121v-478c0 -28 -11 -51 -30 -67h45zM32 698c17 7 38 -9 27 -30l-39 -71c-3 -4 -6 -8 -10 -10c-15 -6 -35 9 -26 28l38 73c3 5 6 8 10 10z" />
<glyph unicode="&#x3ac;" horiz-adv-x="368" d="M109 22c0 -12 -10 -22 -22 -22s-22 10 -22 22v562c0 70 56 126 119 126s119 -56 119 -126v-562c0 -12 -10 -22 -22 -22s-22 10 -22 22v306h-150v-306zM22 688c3 5 6 8 10 10c17 7 38 -9 27 -30l-39 -71c-3 -4 -6 -8 -10 -10c-15 -6 -35 9 -26 28zM259 372v212 c0 47 -33 82 -75 82s-75 -35 -75 -82v-212h150z" />
<glyph unicode="&#x3ad;" horiz-adv-x="294" d="M13 698c17 7 38 -9 27 -30l-39 -71c-3 -4 -6 -8 -10 -10c-15 -6 -35 9 -26 28l38 73c3 5 6 8 10 10zM217 166h-108v-87c0 -19 17 -35 36 -35h72c12 0 22 -10 22 -22s-10 -22 -22 -22h-72c-44 0 -80 35 -80 79v542c0 44 36 79 80 79h72c12 0 22 -10 22 -22 s-10 -22 -22 -22h-72c-19 0 -36 -16 -36 -35v-411h108c12 0 22 -10 22 -22s-10 -22 -22 -22z" />
<glyph unicode="&#x3ae;" horiz-adv-x="368" d="M-6 688c3 5 6 8 10 10c17 7 38 -9 27 -30l-39 -71c-3 -4 -6 -8 -10 -10c-15 -6 -35 9 -26 28zM109 372h150v306c0 12 10 22 22 22s22 -10 22 -22v-656c0 -12 -10 -22 -22 -22s-22 10 -22 22v306h-150v-306c0 -12 -10 -22 -22 -22s-22 10 -22 22v656c0 12 10 22 22 22 s22 -10 22 -22v-306z" />
<glyph unicode="0" d="M189 -10c68 0 124 54 124 121v478c0 67 -56 121 -124 121s-124 -54 -124 -121v-478c0 -67 56 -121 124 -121zM189 666c44 0 80 -34 80 -77v-478c0 -43 -36 -77 -80 -77s-80 34 -80 77v478c0 43 36 77 80 77z" />
<glyph unicode="1" horiz-adv-x="207" d="M150 682v-660c0 -12 -10 -22 -22 -22s-22 10 -22 22v605l-28 -30c-8 -8 -23 -8 -31 -1c-9 8 -9 23 -1 31l66 70c4 4 10 7 16 7c11 0 22 -8 22 -22z" />
<glyph unicode="2" horiz-adv-x="320" d="M265 554l-173 -510h149c13 0 22 -9 22 -22c0 -11 -9 -22 -22 -22h-179c-15 0 -26 15 -21 29l181 530c7 20 7 32 7 47c0 28 -19 60 -60 60c-35 0 -57 -26 -58 -60c0 -12 -10 -21 -22 -21s-22 10 -22 22c0 58 45 103 103 103c55 0 103 -41 103 -104c0 -17 -1 -31 -8 -52z " />
<glyph unicode="3" horiz-adv-x="323" d="M211 361c44 -13 77 -61 77 -105v-140c0 -70 -58 -126 -129 -126c-72 0 -129 56 -129 126c0 12 10 22 22 22s22 -10 22 -22c0 -46 37 -82 85 -82c47 0 85 37 85 82v140c0 49 -34 82 -85 82h-53c-12 0 -22 10 -22 22s10 22 22 22h53c48 0 80 31 80 77v130 c0 43 -36 77 -80 77c-45 0 -80 -34 -80 -77c0 -12 -10 -22 -22 -22s-22 10 -22 22c0 67 55 121 124 121c68 0 124 -54 124 -121v-130c0 -41 -28 -86 -72 -98z" />
<glyph unicode="4" horiz-adv-x="363" d="M276 700c12 0 22 -10 22 -22v-656c0 -12 -10 -22 -22 -22s-22 10 -22 22v360h-124c-44 0 -80 35 -80 79v217c0 12 10 22 22 22s22 -10 22 -22v-217c0 -19 17 -35 36 -35h124v252c0 12 10 22 22 22z" />
<glyph unicode="5" horiz-adv-x="387" d="M206 500c67 0 126 -60 126 -132v-235c0 -74 -60 -133 -134 -133s-133 59 -133 133c0 12 9 22 22 22c12 0 22 -10 22 -22c0 -49 40 -89 89 -89c50 0 90 40 90 89v235c0 48 -39 88 -88 88s-88 -40 -88 -88c0 -12 -10 -23 -22 -23s-22 11 -22 23v310c0 12 10 22 22 22h192 c12 0 22 -10 22 -22s-10 -22 -22 -22h-170v-196c25 29 54 40 94 40z" />
<glyph unicode="6" d="M199 500c58 0 114 -54 114 -121v-268c0 -67 -56 -121 -124 -121s-124 54 -124 121v478c0 67 56 121 124 121c69 0 124 -54 124 -121c0 -12 -10 -22 -22 -22s-22 10 -22 22c0 43 -35 77 -80 77c-44 0 -80 -34 -80 -77v-129c22 29 50 40 90 40zM269 379c0 43 -36 77 -80 77 s-80 -34 -80 -77v-268c0 -43 36 -77 80 -77s80 34 80 77v268z" />
<glyph unicode="7" horiz-adv-x="332" d="M52 700c-12 0 -22 -10 -22 -22s10 -22 22 -22h185l-148 -630c-4 -16 9 -26 23 -26c8 0 17 4 20 15l154 656c4 17 -5 29 -22 29h-212z" />
<glyph unicode="8" horiz-adv-x="388" d="M318 589c0 73 -56 121 -124 121s-124 -48 -124 -121v-101c0 -41 28 -86 72 -98c-44 -13 -77 -61 -77 -105v-169c0 -70 58 -126 129 -126s129 56 129 126v169c0 44 -33 92 -77 105c44 12 72 57 72 98v101zM114 589c0 46 32 77 80 77s80 -31 80 -77v-101 c0 -46 -32 -77 -80 -77s-80 31 -80 77v101zM279 116c0 -45 -38 -82 -85 -82s-85 37 -85 82v169c0 49 34 82 85 82s85 -33 85 -82v-169z" />
<glyph unicode="9" d="M179 200c-58 0 -114 54 -114 121v268c0 67 56 121 124 121s124 -54 124 -121v-478c0 -67 -56 -121 -124 -121c-69 0 -124 54 -124 121c0 12 10 22 22 22s22 -10 22 -22c0 -43 35 -77 80 -77c44 0 80 34 80 77v129c-22 -29 -50 -40 -90 -40zM109 321c0 -43 36 -77 80 -77 s80 34 80 77v268c0 43 -36 77 -80 77s-80 -34 -80 -77v-268z" />
<glyph unicode="&#x2044;" horiz-adv-x="290" d="M265 734l-273 -756c-4 -10 0 -18 10 -24c9 -3 20 2 25 12l271 755c4 10 0 19 -11 24c-7 3 -19 -2 -22 -11z" />
<glyph unicode="*" horiz-adv-x="248" d="M217 662c4 -10 -2 -22 -13 -25l-48 -15l30 -41c6 -8 5 -21 -5 -28c-8 -7 -21 -5 -27 5l-30 41l-30 -41c-6 -10 -19 -12 -27 -5c-10 7 -11 20 -5 28l30 41l-48 15c-11 3 -17 15 -13 25c3 11 15 16 25 13l48 -16v51c0 11 9 20 20 20s20 -9 20 -20v-51l48 16 c10 3 22 -2 25 -13z" />
<glyph unicode="\" horiz-adv-x="347" d="M283 -10c15 0 25 15 21 28l-214 677c-3 10 -10 15 -19 15c-13 0 -26 -12 -21 -27l213 -678c3 -10 10 -15 20 -15z" />
<glyph unicode="&#xb7;" horiz-adv-x="118" d="M59 317c-19 0 -34 15 -34 34c0 18 15 33 34 33s34 -15 34 -33c0 -19 -15 -34 -34 -34z" />
<glyph unicode="&#x2022;" horiz-adv-x="313" d="M50 251c0 -59 47 -107 106 -107s107 48 107 107s-48 106 -106 106c-59 0 -107 -47 -107 -106z" />
<glyph unicode=":" horiz-adv-x="118" d="M59 317c-19 0 -34 15 -34 34c0 18 15 33 34 33s34 -15 34 -33c0 -19 -15 -34 -34 -34zM59 0c-19 0 -34 15 -34 34c0 18 15 33 34 33s34 -15 34 -33c0 -19 -15 -34 -34 -34z" />
<glyph unicode="," horiz-adv-x="178" d="M114 15l-21 -65c-3 -10 -11 -15 -19 -15c-12 0 -23 10 -19 25l11 46c-11 6 -16 17 -16 27c0 20 14 34 35 34c20 0 33 -13 33 -33c0 -5 -1 -10 -4 -19z" />
<glyph unicode="&#x2026;" d="M59 0c-19 0 -34 15 -34 34c0 18 15 33 34 33s34 -15 34 -33c0 -19 -15 -34 -34 -34zM189 0c-19 0 -34 15 -34 34c0 18 15 33 34 33s34 -15 34 -33c0 -19 -15 -34 -34 -34zM319 0c-19 0 -34 15 -34 34c0 18 15 33 34 33s34 -15 34 -33c0 -19 -15 -34 -34 -34z" />
<glyph unicode="!" horiz-adv-x="118" d="M81 153c0 -12 -10 -22 -22 -22s-22 10 -22 22v525c0 12 10 22 22 22s22 -10 22 -22v-525zM59 0c-19 0 -34 15 -34 34c0 18 15 33 34 33s34 -15 34 -33c0 -19 -15 -34 -34 -34z" />
<glyph unicode="#" horiz-adv-x="422" d="M355 174c12 0 22 -10 22 -22s-10 -22 -22 -22h-54v-108c0 -12 -10 -22 -22 -22s-22 10 -22 22v108h-76v-108c0 -12 -10 -22 -22 -22s-22 10 -22 22v108h-54c-12 0 -22 10 -22 22s10 22 22 22h54v354h-54c-12 0 -22 10 -22 22s10 22 22 22h54v106c0 12 10 22 22 22 s22 -10 22 -22v-106h76v106c0 12 10 22 22 22s22 -10 22 -22v-106h54c12 0 22 -10 22 -22s-10 -22 -22 -22h-54v-354h54zM181 174h76v354h-76v-354z" />
<glyph unicode="." horiz-adv-x="118" d="M59 0c-19 0 -34 15 -34 34c0 18 15 33 34 33s34 -15 34 -33c0 -19 -15 -34 -34 -34z" />
<glyph unicode="?" horiz-adv-x="369" d="M182 710c78 0 142 -64 142 -142c0 -72 -54 -131 -123 -141v-274c0 -12 -10 -22 -22 -22s-22 10 -22 22v295c0 12 10 22 22 22h3c54 0 98 44 98 98s-44 98 -98 98s-98 -44 -98 -98c0 -12 -10 -22 -22 -22s-22 10 -22 22c0 78 64 142 142 142zM179 67c19 0 34 -15 34 -33 c0 -19 -15 -34 -34 -34s-34 15 -34 34c0 18 15 33 34 33z" />
<glyph unicode="&#x22;" horiz-adv-x="215" d="M91 570c0 -12 -11 -22 -23 -22c-13 0 -24 10 -24 22l-4 103c0 15 12 27 28 27c15 0 27 -12 27 -27zM171 570c0 -12 -11 -22 -23 -22c-13 0 -24 10 -24 22l-4 103c0 15 12 27 28 27c15 0 27 -12 27 -27z" />
<glyph unicode="'" horiz-adv-x="135" d="M91 570c0 -12 -11 -22 -23 -22c-13 0 -24 10 -24 22l-4 103c0 15 12 27 28 27c15 0 27 -12 27 -27z" />
<glyph unicode=";" horiz-adv-x="120" d="M59 317c-19 0 -34 15 -34 34c0 18 15 33 34 33s34 -15 34 -33c0 -19 -15 -34 -34 -34zM89 15l-21 -65c-3 -10 -11 -15 -19 -15c-12 0 -23 10 -19 25l11 46c-11 6 -16 17 -16 27c0 20 14 34 35 34c20 0 33 -13 33 -33c0 -5 -1 -10 -4 -19z" />
<glyph unicode="/" horiz-adv-x="347" d="M71 -10c10 0 17 5 20 15l213 678c5 15 -8 27 -21 27c-9 0 -16 -5 -19 -15l-214 -677c-4 -13 6 -28 21 -28z" />
<glyph unicode="_" horiz-adv-x="488" d="M468 -50c11 0 20 9 20 20s-9 20 -20 20h-448c-11 0 -20 -9 -20 -20s9 -20 20 -20h448z" />
<glyph horiz-adv-x="456" d="M424 572c12 0 22 -10 22 -22s-10 -22 -22 -22h-72l-63 -356h64c12 0 22 -10 22 -22s-10 -22 -22 -22h-72l-19 -110c-2 -12 -11 -18 -21 -18c-12 0 -25 10 -22 25l18 103h-96l-19 -110c-2 -12 -11 -18 -21 -18c-12 0 -25 10 -22 25l18 103h-65c-12 0 -22 10 -22 22 s10 22 22 22h73l62 356h-64c-12 0 -22 10 -22 22s10 22 22 22h72l19 110c2 12 12 18 22 18c12 0 25 -9 22 -25l-18 -103h95l19 110c2 12 12 18 22 18c12 0 25 -9 22 -25l-18 -103h64zM245 172l62 356h-95l-63 -356h96z" />
<glyph unicode="{" horiz-adv-x="268" d="M236 0c12 0 22 -10 22 -22s-10 -22 -22 -22c-68 0 -124 54 -124 121v174c0 43 -36 77 -80 77c-12 0 -22 10 -22 22s10 22 22 22c44 0 80 34 80 77v174c0 67 56 121 124 121c12 0 22 -10 22 -22s-10 -22 -22 -22c-44 0 -80 -34 -80 -77v-174c0 -41 -21 -77 -69 -99 c48 -22 69 -58 69 -99v-174c0 -43 36 -77 80 -77z" />
<glyph unicode="}" horiz-adv-x="268" d="M32 0c44 0 80 34 80 77v174c0 41 21 77 69 99c-48 22 -69 58 -69 99v174c0 43 -36 77 -80 77c-12 0 -22 10 -22 22s10 22 22 22c68 0 124 -54 124 -121v-174c0 -43 36 -77 80 -77c12 0 22 -10 22 -22s-10 -22 -22 -22c-44 0 -80 -34 -80 -77v-174 c0 -67 -56 -121 -124 -121c-12 0 -22 10 -22 22s10 22 22 22z" />
<glyph unicode="[" horiz-adv-x="226" d="M194 0c12 0 22 -10 22 -22s-10 -22 -22 -22h-107c-12 0 -22 11 -22 23v742c0 12 10 23 22 23h107c12 0 22 -10 22 -22s-10 -22 -22 -22h-85v-700h85z" />
<glyph unicode="]" horiz-adv-x="226" d="M32 0h85v700h-85c-12 0 -22 10 -22 22s10 22 22 22h107c12 0 22 -11 22 -23v-742c0 -12 -10 -23 -22 -23h-107c-12 0 -22 10 -22 22s10 22 22 22z" />
<glyph unicode="(" horiz-adv-x="221" d="M189 0c12 0 22 -10 22 -22s-10 -22 -22 -22c-68 0 -124 54 -124 121v546c0 67 56 121 124 121c12 0 22 -10 22 -22s-10 -22 -22 -22c-44 0 -80 -34 -80 -77v-546c0 -43 36 -77 80 -77z" />
<glyph unicode=")" horiz-adv-x="221" d="M32 0c44 0 80 34 80 77v546c0 43 -36 77 -80 77c-12 0 -22 10 -22 22s10 22 22 22c68 0 124 -54 124 -121v-546c0 -67 -56 -121 -124 -121c-12 0 -22 10 -22 22s10 22 22 22z" />
<glyph unicode="&#x2014;" horiz-adv-x="427" d="M405 272c12 0 22 -10 22 -22s-10 -22 -22 -22h-383c-12 0 -22 10 -22 22s10 22 22 22h383z" />
<glyph unicode="&#x2013;" horiz-adv-x="354" d="M332 272c12 0 22 -10 22 -22s-10 -22 -22 -22h-310c-12 0 -22 10 -22 22s10 22 22 22h310z" />
<glyph unicode="-" horiz-adv-x="283" d="M261 272c12 0 22 -10 22 -22s-10 -22 -22 -22h-239c-12 0 -22 10 -22 22s10 22 22 22h239z" />
<glyph unicode="&#x201e;" horiz-adv-x="178" d="M74 15l-21 -65c-3 -10 -11 -15 -19 -15c-12 0 -23 10 -19 25l11 46c-11 6 -16 17 -16 27c0 20 14 34 35 34c20 0 33 -13 33 -33c0 -5 -1 -10 -4 -19zM164 15l-21 -65c-3 -10 -11 -15 -19 -15c-12 0 -23 10 -19 25l11 46c-11 6 -16 17 -16 27c0 20 14 34 35 34 c20 0 33 -13 33 -33c0 -5 -1 -10 -4 -19z" />
<glyph unicode="&#x201c;" horiz-adv-x="178" d="M14 620l21 65c3 10 11 15 19 15c12 0 23 -10 19 -25l-11 -46c11 -6 16 -17 16 -27c0 -20 -14 -34 -35 -34c-20 0 -33 13 -33 33c0 5 1 10 4 19zM104 620l21 65c3 10 11 15 19 15c12 0 23 -10 19 -25l-11 -46c11 -6 16 -17 16 -27c0 -20 -14 -34 -35 -34 c-20 0 -33 13 -33 33c0 5 1 10 4 19z" />
<glyph unicode="&#x201d;" horiz-adv-x="178" d="M74 648l-21 -65c-3 -10 -11 -15 -19 -15c-12 0 -23 10 -19 25l11 46c-11 6 -16 17 -16 27c0 20 14 34 35 34c20 0 33 -13 33 -33c0 -5 -1 -10 -4 -19zM164 648l-21 -65c-3 -10 -11 -15 -19 -15c-12 0 -23 10 -19 25l11 46c-11 6 -16 17 -16 27c0 20 14 34 35 34 c20 0 33 -13 33 -33c0 -5 -1 -10 -4 -19z" />
<glyph unicode="&#x2018;" horiz-adv-x="88" d="M14 620l21 65c3 10 11 15 19 15c12 0 23 -10 19 -25l-11 -46c11 -6 16 -17 16 -27c0 -20 -14 -34 -35 -34c-20 0 -33 13 -33 33c0 5 1 10 4 19z" />
<glyph unicode="&#x2019;" horiz-adv-x="88" d="M74 648l-21 -65c-3 -10 -11 -15 -19 -15c-12 0 -23 10 -19 25l11 46c-11 6 -16 17 -16 27c0 20 14 34 35 34c20 0 33 -13 33 -33c0 -5 -1 -10 -4 -19z" />
<glyph unicode="&#x201a;" horiz-adv-x="88" d="M74 15l-21 -65c-3 -10 -11 -15 -19 -15c-12 0 -23 10 -19 25l11 46c-11 6 -16 17 -16 27c0 20 14 34 35 34c20 0 33 -13 33 -33c0 -5 -1 -10 -4 -19z" />
<glyph unicode="&#xd;" horiz-adv-x="248" />
<glyph unicode="&#x20ac;" horiz-adv-x="383" d="M301 133c12 0 22 -10 22 -22c0 -67 -55 -121 -124 -121c-68 0 -124 54 -124 121v176h-57c-10 0 -18 8 -18 18s8 18 18 18h57v54h-57c-10 0 -18 8 -18 18s8 18 18 18h57v176c0 67 56 121 124 121c69 0 124 -54 124 -121c0 -12 -10 -22 -22 -22s-22 10 -22 22 c0 43 -35 77 -80 77c-44 0 -80 -34 -80 -77v-176h111c10 0 18 -8 18 -18s-8 -18 -18 -18h-111v-54h111c10 0 18 -8 18 -18s-8 -18 -18 -18h-111v-176c0 -43 36 -77 80 -77c45 0 80 34 80 77c0 12 10 22 22 22z" />
<glyph unicode="&#xa2;" horiz-adv-x="343" d="M276 165c12 0 22 -10 22 -22c0 -60 -45 -110 -104 -119v-48c0 -12 -9 -18 -18 -18s-18 6 -18 18v47c-61 8 -108 58 -108 120v268c0 62 47 112 108 120v47c0 12 9 18 18 18s18 -6 18 -18v-48c59 -9 104 -59 104 -119c0 -12 -10 -22 -22 -22s-22 10 -22 22 c0 36 -25 66 -60 75v-418c35 9 60 39 60 75c0 12 10 22 22 22zM94 143c0 -38 28 -68 64 -75v418c-36 -7 -64 -37 -64 -75v-268z" />
<glyph unicode="$" horiz-adv-x="328" d="M187 418c64 -25 106 -80 106 -140v-139c0 -62 -46 -113 -106 -124v-39c0 -12 -9 -18 -18 -18s-18 6 -18 18v38c-66 6 -116 59 -116 125c0 12 10 22 22 22s22 -10 22 -22c0 -42 30 -75 72 -81v326c-69 25 -111 79 -111 137v31c0 63 49 114 111 120v38c0 12 9 18 18 18 s18 -6 18 -18v-39c58 -10 101 -60 101 -119c0 -12 -10 -22 -22 -22s-22 10 -22 22c0 35 -24 65 -57 74v-208zM84 521c0 -37 26 -70 67 -89v196c-38 -6 -67 -37 -67 -76v-31zM249 139v139c0 36 -25 72 -62 92v-310c36 10 62 42 62 79z" />
<glyph unicode="&#xa3;" horiz-adv-x="328" d="M271 44c12 0 22 -10 22 -22s-10 -22 -22 -22h-215c-12 0 -22 10 -22 22c0 6 3 12 7 16l14 27c22 43 30 85 30 131c0 52 -12 104 -23 164h-44c-10 0 -18 8 -18 18s8 18 18 18h37c-8 49 -15 102 -15 163c0 91 50 151 124 151s124 -48 124 -121c0 -12 -10 -22 -22 -22 s-22 10 -22 22c0 46 -32 77 -80 77s-80 -43 -80 -107c0 -61 7 -114 15 -163h95c10 0 18 -8 18 -18s-8 -18 -18 -18h-88c11 -60 23 -112 23 -164c0 -47 -11 -97 -40 -152h182z" />
<glyph unicode="&#xa5;" horiz-adv-x="324" d="M271 700c14 0 28 -12 22 -29l-98 -283h78c10 0 18 -8 18 -18s-8 -18 -18 -18h-88v-54h88c10 0 18 -8 18 -18s-8 -18 -18 -18h-88v-240c0 -12 -10 -22 -22 -22s-22 10 -22 22v240h-90c-10 0 -18 8 -18 18s8 18 18 18h90v54h-90c-10 0 -18 8 -18 18s8 18 18 18h80l-99 283 c-6 17 8 29 22 29c8 0 16 -4 20 -15l89 -257l88 257c4 11 12 15 20 15z" />
<glyph unicode="=" horiz-adv-x="496" d="M370 335c12 0 22 -10 22 -22s-10 -22 -22 -22h-239c-12 0 -22 10 -22 22s10 22 22 22h239zM370 209c12 0 22 -10 22 -22s-10 -22 -22 -22h-239c-12 0 -22 10 -22 22s10 22 22 22h239z" />
<glyph unicode="&#x3e;" horiz-adv-x="205" d="M148 250l-125 217c-10 17 5 33 20 33c7 0 13 -3 18 -11l131 -227c4 -7 4 -16 0 -22l-131 -229c-5 -8 -11 -11 -18 -11c-15 0 -30 16 -20 33z" />
<glyph unicode="&#x3c;" horiz-adv-x="205" d="M57 250l125 -217c10 -17 -5 -33 -20 -33c-7 0 -13 3 -18 11l-131 229c-4 6 -4 15 0 22l131 227c5 8 11 11 18 11c15 0 30 -16 20 -33z" />
<glyph unicode="&#x2212;" horiz-adv-x="414" d="M362 272c12 0 22 -10 22 -22s-10 -22 -22 -22h-310c-12 0 -22 10 -22 22s10 22 22 22h310z" />
<glyph unicode="&#xd7;" horiz-adv-x="345" d="M298 176c9 -9 9 -23 0 -31c-8 -9 -22 -9 -31 0l-95 95l-94 -94c-9 -8 -23 -8 -32 0c-8 8 -8 23 0 31l95 94l-93 93c-9 8 -9 22 0 31c8 8 22 8 31 0l93 -93l94 94c8 9 22 9 31 0c8 -8 8 -22 0 -31l-94 -94z" />
<glyph unicode="%" horiz-adv-x="303" d="M259 698l-248 -683c-5 -14 6 -25 18 -25c7 0 14 4 17 13l246 682c5 14 -6 25 -17 25c-7 0 -13 -4 -16 -12zM109 700c39 0 71 -32 71 -71s-32 -71 -71 -71s-71 32 -71 71s32 71 71 71zM109 662c-18 0 -33 -15 -33 -33s15 -33 33 -33s33 15 33 33s-15 33 -33 33zM195 0 c-39 0 -71 32 -71 71s32 71 71 71s71 -32 71 -71s-32 -71 -71 -71zM195 38c18 0 33 15 33 33s-15 33 -33 33s-33 -15 -33 -33s15 -33 33 -33z" />
<glyph unicode="+" horiz-adv-x="414" d="M362 272c12 0 22 -10 22 -22s-10 -22 -22 -22h-133v-135c0 -12 -10 -22 -22 -22s-22 10 -22 22v135h-133c-12 0 -22 10 -22 22s10 22 22 22h133v131c0 12 10 22 22 22s22 -10 22 -22v-131h133z" />
<glyph unicode="@" horiz-adv-x="568" d="M284 660c129 0 234 -103 234 -231v-193c0 -39 -34 -73 -73 -73c-31 0 -56 21 -66 49c-23 -28 -57 -49 -95 -49c-68 0 -124 54 -124 121v29c0 67 56 121 124 121c34 0 66 -16 80 -40v21c0 46 -32 77 -80 77c-17 0 -43 -9 -59 -22c-23 -18 -49 15 -25 35c23 19 56 31 84 31 c68 0 124 -54 124 -121v-179c0 -20 17 -37 37 -37s37 17 37 37v193c0 108 -88 195 -198 195s-198 -87 -198 -195v-158c0 -108 88 -195 198 -195c34 0 64 8 93 23c23 12 40 -20 17 -32c-32 -17 -70 -27 -110 -27c-129 0 -234 103 -234 231v158c0 128 105 231 234 231z M364 284v29c0 46 -32 77 -80 77s-80 -31 -80 -77v-29c0 -46 32 -77 80 -77s80 31 80 77z" />
<glyph unicode="&#x26;" horiz-adv-x="606" d="M602 35c3 -4 4 -9 4 -13c0 -12 -11 -22 -23 -22c-6 0 -12 3 -17 10l-74 106c-38 -70 -120 -126 -214 -126c-132 0 -238 107 -238 238c0 121 90 221 207 236l-9 13c-1 1 -1 2 -1 2c-16 24 -25 52 -25 82c0 82 67 149 149 149s149 -67 149 -149s-67 -149 -149 -149 c-9 0 -17 1 -26 2l138 -195v90c0 15 10 22 20 22s20 -7 20 -22v-112c0 -10 -1 -21 -3 -31zM361 666c-58 0 -105 -47 -105 -105s47 -105 105 -105s105 47 105 105s-47 105 -105 105zM278 34c80 0 162 49 187 119l-188 269c-107 -1 -193 -87 -193 -194s87 -194 194 -194z" />
<glyph unicode="&#x301;" horiz-adv-x="0" d="M-85 839c5 3 9 5 13 5c18 0 32 -23 14 -38l-63 -51c-4 -3 -8 -5 -13 -5c-16 0 -29 21 -13 35z" />
<glyph unicode="&#x306;" horiz-adv-x="0" d="M-69 844c10 0 19 -9 19 -19c0 -45 -30 -75 -75 -75s-75 30 -75 75c0 10 9 19 19 19s19 -9 19 -19c0 -21 16 -35 37 -35s37 14 37 35c0 10 9 19 19 19z" />
<glyph unicode="&#x30c;" horiz-adv-x="0" d="M-55 836c7 -9 6 -22 -3 -30l-63 -51c-8 -6 -20 -6 -27 0l-63 51c-9 8 -10 21 -3 30c8 9 21 11 30 3l50 -44l49 44c9 8 22 6 30 -3z" />
<glyph unicode="&#x327;" horiz-adv-x="0" d="M-112 -52c34 1 62 -25 62 -67c0 -46 -30 -77 -75 -77c-31 0 -63 22 -63 43c0 11 9 20 20 20c7 0 12 -3 16 -8c7 -9 14 -15 27 -15c21 0 35 15 35 37c0 46 -35 31 -48 31s-20 12 -14 28l26 71h37z" />
<glyph unicode="&#x302;" horiz-adv-x="0" d="M-55 759c-8 -9 -21 -11 -30 -3l-49 44l-50 -44c-9 -8 -22 -6 -30 3c-7 9 -6 22 3 30l63 51c7 6 19 6 27 0l63 -51c9 -8 10 -21 3 -30z" />
<glyph unicode="&#x326;" horiz-adv-x="0" d="M-65 -112l-21 -65c-3 -10 -11 -15 -19 -15c-12 0 -23 10 -19 25l11 46c-11 6 -16 17 -16 27c0 20 14 34 35 34c20 0 33 -13 33 -33c0 -5 -1 -10 -4 -19z" />
<glyph unicode="&#x312;" horiz-adv-x="0" />
<glyph unicode="&#x308;" horiz-adv-x="0" d="M-204 762c-19 0 -34 15 -34 34s15 34 34 34s34 -15 34 -34s-15 -34 -34 -34zM-104 762c-19 0 -34 15 -34 34s15 34 34 34s34 -15 34 -34s-15 -34 -34 -34z" />
<glyph unicode="&#x307;" horiz-adv-x="0" d="M-88 758c-21 0 -38 17 -38 38s17 38 38 38s38 -17 38 -38s-17 -38 -38 -38z" />
<glyph unicode="&#x300;" horiz-adv-x="0" d="M-119 839l62 -54c16 -14 3 -35 -13 -35c-5 0 -9 2 -13 5l-63 51c-18 15 -4 38 14 38c4 0 8 -2 13 -5z" />
<glyph unicode="&#x30b;" horiz-adv-x="0" d="M-164 837c5 5 10 7 16 7c16 0 30 -19 16 -35l-47 -52c-5 -5 -10 -7 -15 -7c-15 0 -28 17 -16 32zM-84 837c5 5 10 7 16 7c16 0 30 -19 16 -35l-47 -52c-5 -5 -10 -7 -15 -7c-15 0 -28 17 -16 32z" />
<glyph unicode="&#x304;" horiz-adv-x="0" d="M-70 818c11 0 20 -9 20 -20s-9 -20 -20 -20h-144c-11 0 -20 9 -20 20s9 20 20 20h144z" />
<glyph unicode="&#x328;" horiz-adv-x="0" d="M-119 30l31 -23c-36 -49 -60 -87 -60 -126c0 -22 14 -37 35 -37c13 0 20 6 27 15c4 5 9 8 16 8c11 0 20 -9 20 -20c0 -21 -32 -43 -63 -43c-45 0 -75 31 -75 77c0 42 28 89 69 149z" />
<glyph unicode="&#x30a;" horiz-adv-x="0" d="M-108 739c-34 0 -59 25 -59 59c0 33 25 58 59 58c33 0 58 -25 58 -58c0 -34 -25 -59 -58 -59zM-108 770c15 0 27 12 27 28c0 15 -12 27 -27 27c-16 0 -28 -12 -28 -27c0 -16 12 -28 28 -28z" />
<glyph unicode="&#x336;" horiz-adv-x="0" />
<glyph unicode="&#x335;" horiz-adv-x="0" />
<glyph unicode="&#x303;" horiz-adv-x="0" d="M-70 840c11 0 20 -9 20 -20c0 -39 -24 -66 -58 -66c-41 0 -47 45 -69 45c-9 0 -15 -10 -15 -25c0 -11 -9 -20 -20 -20s-20 9 -20 20c0 39 24 66 58 66c43 0 49 -45 70 -45c8 0 14 10 14 25c0 11 9 20 20 20z" />
<glyph horiz-adv-x="250" d="M200 821c0 -43 -30 -71 -75 -71s-75 28 -75 71c0 14 8 23 21 23s21 -9 21 -23c0 -21 13 -35 33 -35s33 14 33 35c0 14 8 23 21 23s21 -9 21 -23z" />
<glyph horiz-adv-x="0" />
<glyph horiz-adv-x="0" />
<glyph horiz-adv-x="250" d="M200 821c0 -43 -30 -71 -75 -71s-75 28 -75 71c0 14 8 23 21 23s21 -9 21 -23c0 -21 13 -35 33 -35s33 14 33 35c0 14 8 23 21 23s21 -9 21 -23z" />
</font>
</defs>
</svg>
